<svg width="106" height="100" viewBox="0 0 106 100" fill="none" xmlns="http://www.w3.org/2000/svg">
<mask id="mask0_348_8677" style="mask-type:alpha" maskUnits="userSpaceOnUse" x="0" y="-1" width="106" height="101">
<path d="M83.6395 28.5711C83.6395 28.7151 83.6385 28.8588 83.6364 29.0023C95.829 31.2404 105.068 41.922 105.068 54.7615C105.068 69.2261 93.3422 80.952 78.8776 80.952C78.8661 80.952 78.8547 80.952 78.8432 80.952C78.227 91.5751 69.4171 99.9996 58.6395 99.9996C47.4623 99.9996 38.4014 90.9387 38.4014 79.7616C38.4014 79.2822 38.4181 78.8068 38.4509 78.3358H6.1453C3.27114 78.3358 0.941156 76.0059 0.941156 73.1317V25.5741C0.941156 22.7 3.27112 20.37 6.14528 20.37H27.6912C31.2157 8.58743 42.139 -0.000366211 55.0681 -0.000366211C70.8477 -0.000366211 83.6395 12.7915 83.6395 28.5711Z" fill="white"/>
</mask>
<g mask="url(#mask0_348_8677)">
<path d="M55.0681 57.1425C70.8477 57.1425 83.6395 44.3506 83.6395 28.5711C83.6395 12.7915 70.8477 -0.000366211 55.0681 -0.000366211C39.2885 -0.000366211 26.4967 12.7915 26.4967 28.5711C26.4967 44.3506 39.2885 57.1425 55.0681 57.1425Z" fill="#036C70"/>
<path d="M78.8776 80.9518C93.3422 80.9518 105.068 69.2259 105.068 54.7613C105.068 40.2967 93.3422 28.5708 78.8776 28.5708C64.413 28.5708 52.6871 40.2967 52.6871 54.7613C52.6871 69.2259 64.413 80.9518 78.8776 80.9518Z" fill="#1A9BA1"/>
<path d="M58.6395 99.999C69.8166 99.999 78.8775 90.9381 78.8775 79.7609C78.8775 68.5837 69.8166 59.5228 58.6395 59.5228C47.4623 59.5228 38.4014 68.5837 38.4014 79.7609C38.4014 90.9381 47.4623 99.999 58.6395 99.999Z" fill="#37C6D0"/>
<g filter="url(#filter0_d_348_8677)">
<g filter="url(#filter1_b_348_8677)">
<path d="M1.31148 25.5742C1.31148 22.9046 3.47563 20.7405 6.14524 20.7405H53.7028C56.3724 20.7405 58.5366 22.9046 58.5366 25.5742V73.1318C58.5366 75.8014 56.3724 77.9656 53.7028 77.9656H6.14525C3.47564 77.9656 1.31148 75.8014 1.31148 73.1318V25.5742Z" fill="url(#paint0_linear_348_8677)"/>
<path d="M6.14524 20.5588C3.3753 20.5588 1.12983 22.8043 1.12983 25.5742V73.1318C1.12983 75.9017 3.37531 78.1472 6.14525 78.1472H53.7028C56.4727 78.1472 58.7182 75.9017 58.7182 73.1318V25.5742C58.7182 22.8043 56.4727 20.5588 53.7028 20.5588H6.14524Z" stroke="#D2D2D2" stroke-opacity="0.42" stroke-width="0.363303"/>
<path d="M6.14524 20.5588C3.3753 20.5588 1.12983 22.8043 1.12983 25.5742V73.1318C1.12983 75.9017 3.37531 78.1472 6.14525 78.1472H53.7028C56.4727 78.1472 58.7182 75.9017 58.7182 73.1318V25.5742C58.7182 22.8043 56.4727 20.5588 53.7028 20.5588H6.14524Z" stroke="url(#paint1_radial_348_8677)" stroke-opacity="0.6" stroke-width="0.363303"/>
</g>
<path d="M20.2219 63.483V58.2105C20.6953 58.6409 21.2549 59.0283 21.9005 59.3726C22.5604 59.7169 23.2563 60.0111 23.988 60.255C24.7197 60.4845 25.4514 60.6638 26.1831 60.793C26.9148 60.9221 27.5891 60.9867 28.206 60.9867C30.3581 60.9867 31.9577 60.628 33.0051 59.9106C34.0668 59.1933 34.5976 58.1531 34.5976 56.7901C34.5976 56.0585 34.4183 55.4272 34.0596 54.8963C33.7153 54.3512 33.2275 53.8562 32.5962 53.4114C31.9649 52.9667 31.2189 52.5434 30.3581 52.1417C29.5116 51.7257 28.6005 51.2952 27.6249 50.8505C26.5776 50.2909 25.602 49.7242 24.6982 49.1504C23.7943 48.5765 23.0052 47.9452 22.3309 47.2566C21.6709 46.5535 21.1473 45.7645 20.7599 44.8893C20.3869 44.0141 20.2004 42.9883 20.2004 41.8119C20.2004 40.3628 20.5232 39.1074 21.1688 38.0458C21.8287 36.9697 22.6896 36.0874 23.7512 35.3987C24.8273 34.6957 26.0468 34.1792 27.4097 33.8493C28.7727 33.5049 30.1644 33.3328 31.5847 33.3328C34.8128 33.3328 37.1657 33.6986 38.6435 34.4303V39.4876C36.8931 38.2251 34.6406 37.5938 31.886 37.5938C31.1256 37.5938 30.3652 37.6656 29.6048 37.809C28.8588 37.9525 28.1845 38.1892 27.5819 38.5192C26.9937 38.8492 26.5131 39.2724 26.14 39.7889C25.767 40.3054 25.5805 40.9295 25.5805 41.6612C25.5805 42.3499 25.724 42.9453 26.0109 43.4474C26.2978 43.9496 26.7139 44.4087 27.2591 44.8247C27.8186 45.2408 28.4929 45.6497 29.282 46.0514C30.0855 46.4388 31.0108 46.862 32.0582 47.3211C33.1342 47.8806 34.1457 48.4689 35.0926 49.0858C36.0538 49.7027 36.8931 50.3842 37.6105 51.1302C38.3422 51.8763 38.9161 52.7084 39.3321 53.6266C39.7625 54.5305 39.9777 55.5635 39.9777 56.7256C39.9777 58.2894 39.6621 59.6093 39.0308 60.6854C38.3996 61.7614 37.5459 62.6366 36.4699 63.3109C35.4082 63.9852 34.1815 64.473 32.7899 64.7743C31.3982 65.0756 29.9276 65.2262 28.3782 65.2262C27.8617 65.2262 27.2232 65.1832 26.4628 65.0971C25.7168 65.0253 24.9492 64.9106 24.1601 64.7527C23.3711 64.6093 22.625 64.4299 21.922 64.2147C21.219 63.9995 20.6523 63.7556 20.2219 63.483Z" fill="white"/>
</g>
</g>
<defs>
<filter id="filter0_d_348_8677" x="-9.2243" y="11.6579" width="78.2966" height="78.2966" filterUnits="userSpaceOnUse" color-interpolation-filters="sRGB">
<feFlood flood-opacity="0" result="BackgroundImageFix"/>
<feColorMatrix in="SourceAlpha" type="matrix" values="0 0 0 0 0 0 0 0 0 0 0 0 0 0 0 0 0 0 127 0" result="hardAlpha"/>
<feOffset dy="1.45321"/>
<feGaussianBlur stdDeviation="5.08624"/>
<feColorMatrix type="matrix" values="0 0 0 0 0 0 0 0 0 0 0 0 0 0 0 0 0 0 0.25 0"/>
<feBlend mode="normal" in2="BackgroundImageFix" result="effect1_dropShadow_348_8677"/>
<feBlend mode="normal" in="SourceGraphic" in2="effect1_dropShadow_348_8677" result="shape"/>
</filter>
<filter id="filter1_b_348_8677" x="-5.27109" y="14.1579" width="70.3902" height="70.3902" filterUnits="userSpaceOnUse" color-interpolation-filters="sRGB">
<feFlood flood-opacity="0" result="BackgroundImageFix"/>
<feGaussianBlur in="BackgroundImageFix" stdDeviation="3.10963"/>
<feComposite in2="SourceAlpha" operator="in" result="effect1_backgroundBlur_348_8677"/>
<feBlend mode="normal" in="SourceGraphic" in2="effect1_backgroundBlur_348_8677" result="shape"/>
</filter>
<linearGradient id="paint0_linear_348_8677" x1="12.7671" y1="29.8237" x2="44.8629" y2="86.7533" gradientUnits="userSpaceOnUse">
<stop stop-color="white" stop-opacity="0.45"/>
<stop offset="1" stop-color="white" stop-opacity="0"/>
<stop offset="1" stop-color="white" stop-opacity="0"/>
</linearGradient>
<radialGradient id="paint1_radial_348_8677" cx="0" cy="0" r="1" gradientUnits="userSpaceOnUse" gradientTransform="translate(38.691 52.702) rotate(-32.5165) scale(79.2329 71.9975)">
<stop stop-color="white"/>
<stop offset="1" stop-color="white" stop-opacity="0"/>
</radialGradient>
</defs>
</svg>
