<svg width="116" height="100" viewBox="0 0 116 100" fill="none" xmlns="http://www.w3.org/2000/svg">
<mask id="mask0_348_8667" style="mask-type:alpha" maskUnits="userSpaceOnUse" x="3" y="0" width="113" height="101">
<path d="M65.6576 0.000225045L65.5554 0.00012207C49.0315 0.000121873 34.3798 8.0156 25.2762 20.3705H8.90768C6.03352 20.3705 3.70355 22.7004 3.70355 25.5746L3.70355 73.1322C3.70355 76.0063 6.03353 78.3363 8.90769 78.3363H24.3544C33.3716 91.4223 48.4618 100 65.5554 100C93.1356 100 115.5 77.6696 115.555 50.1024L115.555 50.0002C115.555 22.42 93.2249 0.0554102 65.6576 0.000225045Z" fill="white"/>
</mask>
<g mask="url(#mask0_348_8667)">
<path d="M15.5555 50.1023C15.6107 77.6695 37.9753 100 65.5554 100C93.1356 100 115.5 77.6695 115.555 50.1023H15.5555Z" fill="#D35230"/>
<path d="M65.4531 50.1025H115.555C115.555 50.0684 115.555 50.0343 115.555 50.0002C115.555 22.386 93.1695 0.000244141 65.5553 0.000244141C65.5212 0.000244141 65.4871 0.000278259 65.4531 0.000346464V50.1025Z" fill="#FF8F6B"/>
<path d="M65.6576 50.1024L65.6576 0.00027907C65.6235 0.000210405 65.5894 0.000176073 65.5554 0.000176072C37.9411 0.000175743 15.5554 22.3859 15.5554 50.0002C15.5554 50.0343 15.5554 50.0683 15.5555 50.1024L65.6576 50.1024Z" fill="#ED6C47"/>
<g filter="url(#filter0_dd_348_8667)">
<g filter="url(#filter1_b_348_8667)">
<path d="M4.07373 25.5746C4.07373 22.905 6.23788 20.7408 8.90749 20.7408H56.4651C59.1347 20.7408 61.2988 22.905 61.2988 25.5746V73.1322C61.2988 75.8018 59.1347 77.9659 56.4651 77.9659H8.9075C6.23789 77.9659 4.07373 75.8018 4.07373 73.1322L4.07373 25.5746Z" fill="url(#paint0_linear_348_8667)"/>
<path d="M8.90749 20.5592C6.13755 20.5592 3.89208 22.8047 3.89208 25.5746L3.89208 73.1322C3.89208 75.9021 6.13757 78.1476 8.9075 78.1476H56.4651C59.235 78.1476 61.4805 75.9021 61.4805 73.1322V25.5746C61.4805 22.8047 59.235 20.5592 56.4651 20.5592H8.90749Z" stroke="#D2D2D2" stroke-opacity="0.42" stroke-width="0.363303"/>
<path d="M8.90749 20.5592C6.13755 20.5592 3.89208 22.8047 3.89208 25.5746L3.89208 73.1322C3.89208 75.9021 6.13757 78.1476 8.9075 78.1476H56.4651C59.235 78.1476 61.4805 75.9021 61.4805 73.1322V25.5746C61.4805 22.8047 59.235 20.5592 56.4651 20.5592H8.90749Z" stroke="url(#paint1_radial_348_8667)" stroke-opacity="0.6" stroke-width="0.363303"/>
</g>
<path d="M27.5173 54.0314V65.5963H22.2219V33.7037H31.9414C35.6207 33.7037 38.4732 34.5563 40.4991 36.2614C42.5249 37.9665 43.5378 40.3684 43.5378 43.4672C43.5378 46.566 42.4802 49.1014 40.365 51.0734C38.2498 53.0454 35.3898 54.0314 31.785 54.0314H27.5173ZM27.5173 38.0628V49.7168H30.9583C33.2373 49.7168 34.9727 49.1904 36.1644 48.1377C37.3561 47.085 37.9519 45.6023 37.9519 43.6896C37.9519 39.9384 35.7622 38.0628 31.3828 38.0628H27.5173Z" fill="white"/>
</g>
</g>
<defs>
<filter id="filter0_dd_348_8667" x="-28.2602" y="-5.05362" width="121.893" height="121.893" filterUnits="userSpaceOnUse" color-interpolation-filters="sRGB">
<feFlood flood-opacity="0" result="BackgroundImageFix"/>
<feColorMatrix in="SourceAlpha" type="matrix" values="0 0 0 0 0 0 0 0 0 0 0 0 0 0 0 0 0 0 127 0" result="hardAlpha"/>
<feOffset dy="6.53945"/>
<feGaussianBlur stdDeviation="15.9853"/>
<feColorMatrix type="matrix" values="0 0 0 0 0 0 0 0 0 0 0 0 0 0 0 0 0 0 0.14 0"/>
<feBlend mode="normal" in2="BackgroundImageFix" result="effect1_dropShadow_348_8667"/>
<feColorMatrix in="SourceAlpha" type="matrix" values="0 0 0 0 0 0 0 0 0 0 0 0 0 0 0 0 0 0 127 0" result="hardAlpha"/>
<feOffset dy="1.45321"/>
<feGaussianBlur stdDeviation="5.08624"/>
<feColorMatrix type="matrix" values="0 0 0 0 0 0 0 0 0 0 0 0 0 0 0 0 0 0 0.25 0"/>
<feBlend mode="normal" in2="effect1_dropShadow_348_8667" result="effect2_dropShadow_348_8667"/>
<feBlend mode="normal" in="SourceGraphic" in2="effect2_dropShadow_348_8667" result="shape"/>
</filter>
<filter id="filter1_b_348_8667" x="-2.50882" y="14.1583" width="70.3902" height="70.3902" filterUnits="userSpaceOnUse" color-interpolation-filters="sRGB">
<feFlood flood-opacity="0" result="BackgroundImageFix"/>
<feGaussianBlur in="BackgroundImageFix" stdDeviation="3.10963"/>
<feComposite in2="SourceAlpha" operator="in" result="effect1_backgroundBlur_348_8667"/>
<feBlend mode="normal" in="SourceGraphic" in2="effect1_backgroundBlur_348_8667" result="shape"/>
</filter>
<linearGradient id="paint0_linear_348_8667" x1="15.5293" y1="29.824" x2="47.6251" y2="86.7537" gradientUnits="userSpaceOnUse">
<stop stop-color="white" stop-opacity="0.45"/>
<stop offset="1" stop-color="white" stop-opacity="0"/>
<stop offset="1" stop-color="white" stop-opacity="0"/>
</linearGradient>
<radialGradient id="paint1_radial_348_8667" cx="0" cy="0" r="1" gradientUnits="userSpaceOnUse" gradientTransform="translate(41.4533 52.7024) rotate(-32.5165) scale(79.2329 71.9975)">
<stop stop-color="white"/>
<stop offset="1" stop-color="white" stop-opacity="0"/>
</radialGradient>
</defs>
</svg>
