<svg width="103" height="100" viewBox="0 0 103 100" fill="none" xmlns="http://www.w3.org/2000/svg">
<mask id="mask0_348_8660" style="mask-type:alpha" maskUnits="userSpaceOnUse" x="0" y="0" width="103" height="101">
<path d="M102.39 50.0001C102.386 50.7926 102.174 51.5701 101.775 52.2553C101.377 52.9404 100.806 53.5094 100.12 53.9057L28.2757 99.0694C27.3965 99.6319 26.384 99.9512 25.3412 99.9949C24.2984 100.039 23.2626 99.8051 22.3395 99.3181C21.4163 98.8312 20.6388 98.1082 20.086 97.2228C19.5333 96.3375 19.2252 95.3215 19.193 94.2782L19.193 69.2978L5.54825 78.4819L5.54439 78.4844C4.99721 78.8354 4.36463 79.0306 3.71478 79.0487C3.06492 79.0668 2.42244 78.9073 1.85653 78.5874C1.29062 78.2674 0.82274 77.7991 0.503285 77.2329C0.184853 76.6684 0.025933 76.0281 0.043487 75.3804L0.043487 24.6198C0.025933 23.972 0.184853 23.3317 0.503285 22.7673C0.82274 22.2011 1.29062 21.7328 1.85653 21.4128C2.42243 21.0928 3.06492 20.9333 3.71478 20.9514C4.36462 20.9696 4.99721 21.1647 5.54439 21.5157L5.3194 21.8664L5.55206 21.5208L19.193 30.7024L19.193 5.72199C19.2252 4.67877 19.5333 3.66272 20.086 2.77738C20.6388 1.89204 21.4163 1.16904 22.3395 0.682086C23.2626 0.19512 24.2984 -0.0384026 25.3412 0.00530107C26.384 0.0489984 27.3965 0.368371 28.2757 0.930867L100.12 46.0946C100.806 46.4908 101.377 47.0598 101.775 47.7449C102.174 48.4301 102.386 49.2076 102.39 50.0001Z" fill="#E8467C"/>
</mask>
<g mask="url(#mask0_348_8660)">
<path fill-rule="evenodd" clip-rule="evenodd" d="M19.1932 49.9999L19.1932 94.278C19.2253 95.3212 19.5335 96.3373 20.0862 97.2226C20.6389 98.108 21.4165 98.8309 22.3396 99.3179C23.2628 99.8049 24.2985 100.038 25.3413 99.9947C26.3841 99.951 27.3967 99.6316 28.2759 99.0691L100.12 53.9054C100.806 53.5092 101.377 52.9402 101.775 52.255C102.174 51.5699 102.386 50.7924 102.391 49.9999L19.1932 49.9999Z" fill="#BC1948"/>
<path fill-rule="evenodd" clip-rule="evenodd" d="M19.1931 50.0001L19.1931 5.72199C19.2253 4.67877 19.5334 3.66272 20.0861 2.77738C20.6389 1.89204 21.4164 1.16905 22.3396 0.682088C23.2627 0.195126 24.2985 -0.0384019 25.3413 0.00530074C26.3841 0.0490034 27.3966 0.368374 28.2758 0.930869L100.12 46.0946C100.806 46.4908 101.377 47.0598 101.775 47.7449C102.174 48.4301 102.386 49.2076 102.391 50.0001L19.1931 50.0001Z" fill="#E8467C"/>
<g filter="url(#filter0_d_348_8660)">
<g filter="url(#filter1_b_348_8660)">
<mask id="path-4-outside-1_348_8660" maskUnits="userSpaceOnUse" x="-0.541077" y="20.3663" width="46" height="59" fill="black">
<rect fill="white" x="-0.541077" y="20.3663" width="46" height="59"/>
<path fill-rule="evenodd" clip-rule="evenodd" d="M5.31948 21.866L43.0354 47.2522C43.4803 47.5591 43.844 47.9695 44.0953 48.4481C44.3465 48.9267 44.4778 49.4591 44.4778 49.9997C44.4778 50.5402 44.3465 51.0727 44.0953 51.5513C43.844 52.0298 43.4803 52.4403 43.0354 52.7472L5.31948 78.1333C4.83611 78.4434 4.27729 78.6158 3.70323 78.6318C3.12916 78.6478 2.5616 78.5069 2.06169 78.2243C1.56178 77.9416 1.14846 77.5279 0.86626 77.0277C0.584062 76.5275 0.44368 75.9599 0.460235 75.3858L0.460235 24.6136C0.44368 24.0395 0.584062 23.4718 0.86626 22.9716C1.14846 22.4715 1.56178 22.0578 2.06169 21.7751C2.5616 21.4924 3.12916 21.3515 3.70323 21.3676C4.27729 21.3836 4.83611 21.5559 5.31948 21.866Z"/>
</mask>
<path fill-rule="evenodd" clip-rule="evenodd" d="M5.31948 21.866L43.0354 47.2522C43.4803 47.5591 43.844 47.9695 44.0953 48.4481C44.3465 48.9267 44.4778 49.4591 44.4778 49.9997C44.4778 50.5402 44.3465 51.0727 44.0953 51.5513C43.844 52.0298 43.4803 52.4403 43.0354 52.7472L5.31948 78.1333C4.83611 78.4434 4.27729 78.6158 3.70323 78.6318C3.12916 78.6478 2.5616 78.5069 2.06169 78.2243C1.56178 77.9416 1.14846 77.5279 0.86626 77.0277C0.584062 76.5275 0.44368 75.9599 0.460235 75.3858L0.460235 24.6136C0.44368 24.0395 0.584062 23.4718 0.86626 22.9716C1.14846 22.4715 1.56178 22.0578 2.06169 21.7751C2.5616 21.4924 3.12916 21.3515 3.70323 21.3676C4.27729 21.3836 4.83611 21.5559 5.31948 21.866Z" fill="url(#paint0_linear_348_8660)"/>
<path d="M43.0354 47.2522L43.2417 46.9531L43.2382 46.9508L43.0354 47.2522ZM44.4778 49.9997H44.1145H44.4778ZM43.0354 52.7472L43.2382 53.0486L43.2417 53.0462L43.0354 52.7472ZM5.31948 78.1333L5.5157 78.4392L5.52234 78.4347L5.31948 78.1333ZM0.460235 75.3858L0.823538 75.3963V75.3858H0.460235ZM0.460235 24.6136H0.823689L0.823387 24.6031L0.460235 24.6136ZM5.11661 22.1674L42.8325 47.5536L43.2382 46.9508L5.52234 21.5647L5.11661 22.1674ZM42.829 47.5512C43.2256 47.8248 43.5497 48.1905 43.7736 48.617L44.4169 48.2792C44.1383 47.7486 43.735 47.2935 43.2417 46.9531L42.829 47.5512ZM43.7736 48.617C43.9975 49.0435 44.1145 49.518 44.1145 49.9997H44.8411C44.8411 49.4003 44.6955 48.8099 44.4169 48.2792L43.7736 48.617ZM44.1145 49.9997C44.1145 50.4814 43.9975 50.9559 43.7736 51.3824L44.4169 51.7201C44.6955 51.1895 44.8411 50.5991 44.8411 49.9997H44.1145ZM43.7736 51.3824C43.5497 51.8089 43.2256 52.1746 42.829 52.4482L43.2417 53.0462C43.735 52.7059 44.1383 52.2508 44.4169 51.7201L43.7736 51.3824ZM42.8325 52.4458L5.11661 77.8319L5.52234 78.4347L43.2382 53.0486L42.8325 52.4458ZM5.1233 77.8275C4.69557 78.1019 4.20108 78.2545 3.69309 78.2686L3.71336 78.995C4.35351 78.9771 4.97665 78.7849 5.51565 78.4391L5.1233 77.8275ZM3.69309 78.2686C3.1851 78.2828 2.68287 78.1581 2.2405 77.908L1.88287 78.5405C2.44033 78.8557 3.07322 79.0128 3.71336 78.995L3.69309 78.2686ZM2.2405 77.908C1.79813 77.6579 1.43239 77.2918 1.18268 76.8492L0.549844 77.2062C0.864524 77.764 1.32542 78.2253 1.88287 78.5405L2.2405 77.908ZM1.18268 76.8492C0.93296 76.4066 0.808737 75.9043 0.823387 75.3963L0.0970839 75.3753C0.0786224 76.0155 0.235164 76.6485 0.549844 77.2062L1.18268 76.8492ZM0.823538 75.3858L0.823538 24.6136H0.0969329L0.0969329 75.3858H0.823538ZM0.823387 24.6031C0.808737 24.0951 0.93296 23.5928 1.18268 23.1502L0.549844 22.7931C0.235163 23.3509 0.0786224 23.9839 0.0970839 24.624L0.823387 24.6031ZM1.18268 23.1502C1.43239 22.7076 1.79813 22.3415 2.2405 22.0914L1.88287 21.4589C1.32542 21.7741 0.864525 22.2354 0.549844 22.7931L1.18268 23.1502ZM2.2405 22.0914C2.68287 21.8412 3.1851 21.7165 3.69309 21.7307L3.71336 21.0044C3.07322 20.9865 2.44033 21.1437 1.88287 21.4589L2.2405 22.0914ZM3.69309 21.7307C4.20108 21.7449 4.69557 21.8974 5.1233 22.1718L5.51565 21.5603C4.97665 21.2145 4.35351 21.0223 3.71336 21.0044L3.69309 21.7307Z" fill="#D2D2D2" fill-opacity="0.42" mask="url(#path-4-outside-1_348_8660)"/>
<path d="M43.0354 47.2522L43.2417 46.9531L43.2382 46.9508L43.0354 47.2522ZM44.4778 49.9997H44.1145H44.4778ZM43.0354 52.7472L43.2382 53.0486L43.2417 53.0462L43.0354 52.7472ZM5.31948 78.1333L5.5157 78.4392L5.52234 78.4347L5.31948 78.1333ZM0.460235 75.3858L0.823538 75.3963V75.3858H0.460235ZM0.460235 24.6136H0.823689L0.823387 24.6031L0.460235 24.6136ZM5.11661 22.1674L42.8325 47.5536L43.2382 46.9508L5.52234 21.5647L5.11661 22.1674ZM42.829 47.5512C43.2256 47.8248 43.5497 48.1905 43.7736 48.617L44.4169 48.2792C44.1383 47.7486 43.735 47.2935 43.2417 46.9531L42.829 47.5512ZM43.7736 48.617C43.9975 49.0435 44.1145 49.518 44.1145 49.9997H44.8411C44.8411 49.4003 44.6955 48.8099 44.4169 48.2792L43.7736 48.617ZM44.1145 49.9997C44.1145 50.4814 43.9975 50.9559 43.7736 51.3824L44.4169 51.7201C44.6955 51.1895 44.8411 50.5991 44.8411 49.9997H44.1145ZM43.7736 51.3824C43.5497 51.8089 43.2256 52.1746 42.829 52.4482L43.2417 53.0462C43.735 52.7059 44.1383 52.2508 44.4169 51.7201L43.7736 51.3824ZM42.8325 52.4458L5.11661 77.8319L5.52234 78.4347L43.2382 53.0486L42.8325 52.4458ZM5.1233 77.8275C4.69557 78.1019 4.20108 78.2545 3.69309 78.2686L3.71336 78.995C4.35351 78.9771 4.97665 78.7849 5.51565 78.4391L5.1233 77.8275ZM3.69309 78.2686C3.1851 78.2828 2.68287 78.1581 2.2405 77.908L1.88287 78.5405C2.44033 78.8557 3.07322 79.0128 3.71336 78.995L3.69309 78.2686ZM2.2405 77.908C1.79813 77.6579 1.43239 77.2918 1.18268 76.8492L0.549844 77.2062C0.864524 77.764 1.32542 78.2253 1.88287 78.5405L2.2405 77.908ZM1.18268 76.8492C0.93296 76.4066 0.808737 75.9043 0.823387 75.3963L0.0970839 75.3753C0.0786224 76.0155 0.235164 76.6485 0.549844 77.2062L1.18268 76.8492ZM0.823538 75.3858L0.823538 24.6136H0.0969329L0.0969329 75.3858H0.823538ZM0.823387 24.6031C0.808737 24.0951 0.93296 23.5928 1.18268 23.1502L0.549844 22.7931C0.235163 23.3509 0.0786224 23.9839 0.0970839 24.624L0.823387 24.6031ZM1.18268 23.1502C1.43239 22.7076 1.79813 22.3415 2.2405 22.0914L1.88287 21.4589C1.32542 21.7741 0.864525 22.2354 0.549844 22.7931L1.18268 23.1502ZM2.2405 22.0914C2.68287 21.8412 3.1851 21.7165 3.69309 21.7307L3.71336 21.0044C3.07322 20.9865 2.44033 21.1437 1.88287 21.4589L2.2405 22.0914ZM3.69309 21.7307C4.20108 21.7449 4.69557 21.8974 5.1233 22.1718L5.51565 21.5603C4.97665 21.2145 4.35351 21.0223 3.71336 21.0044L3.69309 21.7307Z" fill="url(#paint1_radial_348_8660)" fill-opacity="0.6" mask="url(#path-4-outside-1_348_8660)"/>
</g>
</g>
</g>
<defs>
<filter id="filter0_d_348_8660" x="-10.0768" y="12.2838" width="65.0904" height="78.3382" filterUnits="userSpaceOnUse" color-interpolation-filters="sRGB">
<feFlood flood-opacity="0" result="BackgroundImageFix"/>
<feColorMatrix in="SourceAlpha" type="matrix" values="0 0 0 0 0 0 0 0 0 0 0 0 0 0 0 0 0 0 127 0" result="hardAlpha"/>
<feOffset dy="1.45321"/>
<feGaussianBlur stdDeviation="5.08624"/>
<feColorMatrix type="matrix" values="0 0 0 0 0 0 0 0 0 0 0 0 0 0 0 0 0 0 0.25 0"/>
<feBlend mode="normal" in2="BackgroundImageFix" result="effect1_dropShadow_348_8660"/>
<feBlend mode="normal" in="SourceGraphic" in2="effect1_dropShadow_348_8660" result="shape"/>
</filter>
<filter id="filter1_b_348_8660" x="-6.12363" y="14.7838" width="57.184" height="70.4318" filterUnits="userSpaceOnUse" color-interpolation-filters="sRGB">
<feFlood flood-opacity="0" result="BackgroundImageFix"/>
<feGaussianBlur in="BackgroundImageFix" stdDeviation="3.10963"/>
<feComposite in2="SourceAlpha" operator="in" result="effect1_backgroundBlur_348_8660"/>
<feBlend mode="normal" in="SourceGraphic" in2="effect1_backgroundBlur_348_8660" result="shape"/>
</filter>
<linearGradient id="paint0_linear_348_8660" x1="9.27084" y1="30.4561" x2="45.0762" y2="79.2737" gradientUnits="userSpaceOnUse">
<stop stop-color="white" stop-opacity="0.45"/>
<stop offset="1" stop-color="white" stop-opacity="0"/>
<stop offset="1" stop-color="white" stop-opacity="0"/>
</linearGradient>
<radialGradient id="paint1_radial_348_8660" cx="0" cy="0" r="1" gradientUnits="userSpaceOnUse" gradientTransform="translate(29.2121 53.3511) rotate(-39.6699) scale(66.7677 65.7696)">
<stop stop-color="white"/>
<stop offset="1" stop-color="white" stop-opacity="0"/>
</radialGradient>
</defs>
</svg>
