<svg width="113" height="100" viewBox="0 0 113 100" fill="none" xmlns="http://www.w3.org/2000/svg">
<mask id="mask0_348_8674" style="mask-type:alpha" maskUnits="userSpaceOnUse" x="0" y="-1" width="113" height="101">
<path d="M80.2093 -0.000366165L105.155 -0.000366165C106.092 -0.000408551 107.019 0.187642 107.885 0.55305C108.75 0.918456 109.537 1.45406 110.199 2.12928C110.861 2.8045 111.387 3.60612 111.745 4.48834C112.103 5.37057 112.288 6.31613 112.288 7.27103V32.7023C112.288 34.6305 111.537 36.4798 110.199 37.8434L98.2747 49.9996L110.199 62.1559C111.536 63.5194 112.288 65.3687 112.288 67.297V92.7288C112.288 94.6571 111.536 96.5065 110.199 97.87C108.861 99.2336 107.047 99.9996 105.156 99.9996H80.2093C78.3177 99.9996 76.5037 99.2336 75.1661 97.87L63.242 85.7139V85.7134L51.3177 97.8695C50.6556 98.5449 49.8694 99.0807 49.0041 99.4462C48.1388 99.8117 47.2113 99.9997 46.2746 99.9996H21.3287C20.392 99.9997 19.4645 99.8116 18.5991 99.4462C17.7337 99.0808 16.9474 98.5452 16.2851 97.87C15.6227 97.1948 15.0974 96.3931 14.7389 95.5109C14.3805 94.6287 14.1961 93.6831 14.1961 92.7282L14.1961 79.0766H5.13214C2.31283 79.0766 0.0273132 76.7466 0.0273132 73.8725L0.0273132 26.3149C0.0273132 23.4407 2.31282 21.1107 5.13213 21.1107H14.1961L14.1961 7.27047C14.1961 5.34212 14.9475 3.49276 16.2851 2.12921C17.6226 0.765667 19.4367 -0.000366165 21.3282 -0.000366165L46.2747 -0.000366165C48.1662 -0.000363339 49.9803 0.76567 51.3178 2.12922L63.242 14.2853V14.286L75.1662 2.12976C75.8284 1.45436 76.6145 0.918594 77.4799 0.553095C78.3452 0.187597 79.2727 -0.000473542 80.2093 -0.000366165Z" fill="#50D9FF"/>
</mask>
<g mask="url(#mask0_348_8674)">
<path d="M105.155 -0.000366166L80.2092 -0.000366166C79.2726 -0.000472463 78.3451 0.187598 77.4798 0.553097C76.6144 0.918595 75.8283 1.45436 75.1661 2.12976L16.2855 62.1559C15.623 62.8309 15.0975 63.6323 14.7389 64.5145C14.3804 65.3966 14.1959 66.3421 14.196 67.297L14.196 92.7282C14.196 93.6831 14.3804 94.6287 14.7388 95.5109C15.0973 96.3932 15.6226 97.1948 16.285 97.87C16.9473 98.5452 17.7336 99.0808 18.599 99.4462C19.4644 99.8116 20.3919 99.9997 21.3286 99.9996H46.2745C47.2112 99.9997 48.1387 99.8117 49.004 99.4462C49.8693 99.0807 50.6555 98.5449 51.3176 97.8695L110.199 37.8434C111.537 36.4798 112.288 34.6305 112.288 32.7023V7.27103C112.288 6.31613 112.103 5.37057 111.745 4.48834C111.386 3.60612 110.861 2.80451 110.199 2.12928C109.536 1.45406 108.75 0.918456 107.885 0.553049C107.019 0.187642 106.092 -0.000409944 105.155 -0.000366166Z" fill="#28A8EA"/>
<path d="M105.156 99.9993H80.2092C78.3176 99.9993 76.5036 99.2332 75.1661 97.8697L63.2419 85.7136V62.9993C63.2419 59.5515 64.5854 56.2448 66.9768 53.8069C69.3683 51.3689 72.6118 49.9993 75.9938 49.9993H98.2746L110.199 62.1555C111.536 63.519 112.288 65.3684 112.288 67.2967V92.7284C112.288 94.6568 111.536 96.5061 110.199 97.8697C108.861 99.2332 107.047 99.9993 105.156 99.9993Z" fill="#0078D4"/>
<path d="M21.3281 -0.000366211L46.2746 -0.000366211C48.1661 -0.000363264 49.9802 0.76567 51.3177 2.12922L63.2419 14.2853V36.9996C63.2419 40.4474 61.8984 43.754 59.5069 46.192C57.1155 48.63 53.872 49.9996 50.4899 49.9996H28.2091L16.285 37.8435C14.9474 36.4799 14.196 34.6306 14.196 32.7022L14.196 7.27047C14.196 5.34212 14.9474 3.49276 16.285 2.12921C17.6225 0.765667 19.4366 -0.000366211 21.3281 -0.000366211Z" fill="#50D9FF"/>
<g filter="url(#filter0_d_348_8674)">
<g filter="url(#filter1_b_348_8674)">
<path d="M0.390503 26.3151C0.390503 23.6455 2.51335 21.4813 5.13202 21.4813L51.7821 21.4813C54.4007 21.4813 56.5236 23.6455 56.5236 26.3151V73.8726C56.5236 76.5423 54.4007 78.7064 51.7821 78.7064H5.13203C2.51336 78.7064 0.390503 76.5423 0.390503 73.8727L0.390503 26.3151Z" fill="url(#paint0_linear_348_8674)"/>
<path d="M5.13202 21.2997C2.40974 21.2997 0.208852 23.5485 0.208852 26.3151L0.208852 73.8727C0.208852 76.6393 2.40976 78.8881 5.13203 78.8881H51.7821C54.5043 78.8881 56.7052 76.6393 56.7052 73.8726V26.3151C56.7052 23.5485 54.5043 21.2997 51.7821 21.2997L5.13202 21.2997Z" stroke="#D2D2D2" stroke-opacity="0.42" stroke-width="0.363303"/>
<path d="M5.13202 21.2997C2.40974 21.2997 0.208852 23.5485 0.208852 26.3151L0.208852 73.8727C0.208852 76.6393 2.40976 78.8881 5.13203 78.8881H51.7821C54.5043 78.8881 56.7052 76.6393 56.7052 73.8726V26.3151C56.7052 23.5485 54.5043 21.2997 51.7821 21.2997L5.13202 21.2997Z" stroke="url(#paint1_radial_348_8674)" stroke-opacity="0.6" stroke-width="0.363303"/>
</g>
<path d="M36.4808 65.9662H18.919V34.0736H35.7827V38.5661H24.1112V47.5957H34.8665V52.066H24.1112V61.4959H36.4808V65.9662Z" fill="white"/>
</g>
</g>
<defs>
<filter id="filter0_d_348_8674" x="-10.1453" y="12.3988" width="77.2046" height="78.2966" filterUnits="userSpaceOnUse" color-interpolation-filters="sRGB">
<feFlood flood-opacity="0" result="BackgroundImageFix"/>
<feColorMatrix in="SourceAlpha" type="matrix" values="0 0 0 0 0 0 0 0 0 0 0 0 0 0 0 0 0 0 127 0" result="hardAlpha"/>
<feOffset dy="1.45321"/>
<feGaussianBlur stdDeviation="5.08624"/>
<feColorMatrix type="matrix" values="0 0 0 0 0 0 0 0 0 0 0 0 0 0 0 0 0 0 0.25 0"/>
<feBlend mode="normal" in2="BackgroundImageFix" result="effect1_dropShadow_348_8674"/>
<feBlend mode="normal" in="SourceGraphic" in2="effect1_dropShadow_348_8674" result="shape"/>
</filter>
<filter id="filter1_b_348_8674" x="-6.19208" y="14.8988" width="69.2982" height="70.3902" filterUnits="userSpaceOnUse" color-interpolation-filters="sRGB">
<feFlood flood-opacity="0" result="BackgroundImageFix"/>
<feGaussianBlur in="BackgroundImageFix" stdDeviation="3.10963"/>
<feComposite in2="SourceAlpha" operator="in" result="effect1_backgroundBlur_348_8674"/>
<feBlend mode="normal" in="SourceGraphic" in2="effect1_backgroundBlur_348_8674" result="shape"/>
</filter>
<linearGradient id="paint0_linear_348_8674" x1="11.6275" y1="30.5645" x2="44.0405" y2="86.9598" gradientUnits="userSpaceOnUse">
<stop stop-color="white" stop-opacity="0.45"/>
<stop offset="1" stop-color="white" stop-opacity="0"/>
<stop offset="1" stop-color="white" stop-opacity="0"/>
</linearGradient>
<radialGradient id="paint1_radial_348_8674" cx="0" cy="0" r="1" gradientUnits="userSpaceOnUse" gradientTransform="translate(37.0567 53.4428) rotate(-33.0189) scale(78.1608 71.5923)">
<stop stop-color="white"/>
<stop offset="1" stop-color="white" stop-opacity="0"/>
</radialGradient>
</defs>
</svg>
