<svg width="109" height="100" viewBox="0 0 109 100" fill="none" xmlns="http://www.w3.org/2000/svg">
<mask id="mask0_348_8657" style="mask-type:alpha" maskUnits="userSpaceOnUse" x="0" y="-1" width="109" height="101">
<path d="M83.7136 24.9998L104.11 24.9998C106.633 24.9998 108.679 27.0481 108.679 29.5748V70.4253C108.679 72.9521 106.633 75.0004 104.11 75.0004L83.7136 75.0004C83.713 88.8077 72.5351 100 58.7471 99.9996C49.8287 99.9992 41.5879 95.2347 37.1283 87.5006C36.6479 86.701 36.2305 85.8651 35.88 85.0005C35.5121 84.1878 35.1953 83.3528 34.9313 82.5005C34.497 81.1176 34.1889 79.7253 34.0005 78.3358H6.01587C3.14171 78.3358 0.811729 76.0059 0.811729 73.1317L0.811729 25.5741C0.811729 22.7 3.1417 20.37 6.01586 20.37H36.5338L55.5277 1.34947C57.2803 -0.431667 60.1429 -0.452846 61.9216 1.30214C61.9375 1.3178 61.9532 1.33356 61.9688 1.34947L82.3655 21.7747C83.2322 22.6227 83.7187 23.7863 83.7136 24.9998Z" fill="#41A5EE"/>
</mask>
<g mask="url(#mask0_348_8657)">
<path d="M60.8204 24.9995H104.11C106.633 24.9995 108.679 27.0478 108.679 29.5746V70.4251C108.679 72.9518 106.633 75.0002 104.11 75.0002H60.8204C58.2972 75.0002 56.2517 72.9518 56.2517 70.4251V29.5746C56.2517 27.0478 58.2972 24.9995 60.8204 24.9995Z" fill="#2B7CD3"/>
<path d="M83.7135 75.0002C83.7129 88.8075 72.5351 100 58.7471 99.9994C49.8287 99.999 41.5878 95.2345 37.1282 87.5004C36.6479 86.7008 36.2305 85.8649 35.88 85.0003C35.5121 84.1876 35.1953 83.3526 34.9313 82.5003C30.7949 69.329 38.1042 55.2936 51.2571 51.1514C53.681 50.3881 56.2072 49.9997 58.7482 49.9999C59.597 49.9999 60.4209 50.0499 61.2448 50.1249C62.084 50.1972 62.9178 50.3225 63.7413 50.4999C75.3578 52.8912 83.6995 63.1242 83.7135 75.0002Z" fill="#103F91"/>
<path d="M83.7136 24.9994C83.7186 26.2128 83.2322 27.3765 82.3654 28.2244L63.7413 46.8747L61.9688 48.6497C61.7391 48.8712 61.4974 49.0799 61.2448 49.2747C60.4975 49.7473 59.632 49.9986 58.7482 49.9997C57.5365 50.0048 56.3745 49.5177 55.5277 48.6497L35.131 28.2244C33.5915 26.7043 33.3405 24.3061 34.5319 22.4993C34.7103 22.2407 34.9107 21.9982 35.131 21.7743L55.5277 1.3491C57.2802 -0.432034 60.1428 -0.453211 61.9215 1.30177C61.9374 1.31743 61.9531 1.33319 61.9688 1.3491L82.3654 21.7744C83.2322 22.6223 83.7186 23.7859 83.7136 24.9994Z" fill="#41A5EE"/>
<g filter="url(#filter0_d_348_8657)">
<g filter="url(#filter1_b_348_8657)">
<path d="M1.18209 25.5742C1.18209 22.9046 3.34624 20.7405 6.01585 20.7405H53.5734C56.243 20.7405 58.4072 22.9046 58.4072 25.5742V73.1318C58.4072 75.8014 56.243 77.9656 53.5734 77.9656H6.01586C3.34625 77.9656 1.18209 75.8014 1.18209 73.1318L1.18209 25.5742Z" fill="url(#paint0_linear_348_8657)"/>
<path d="M6.01585 20.5588C3.24592 20.5588 1.00044 22.8043 1.00044 25.5742L1.00044 73.1318C1.00044 75.9017 3.24593 78.1472 6.01586 78.1472H53.5734C56.3434 78.1472 58.5888 75.9017 58.5888 73.1318V25.5742C58.5888 22.8043 56.3434 20.5588 53.5734 20.5588H6.01585Z" stroke="#D2D2D2" stroke-opacity="0.42" stroke-width="0.363303"/>
<path d="M6.01585 20.5588C3.24592 20.5588 1.00044 22.8043 1.00044 25.5742L1.00044 73.1318C1.00044 75.9017 3.24593 78.1472 6.01586 78.1472H53.5734C56.3434 78.1472 58.5888 75.9017 58.5888 73.1318V25.5742C58.5888 22.8043 56.3434 20.5588 53.5734 20.5588H6.01585Z" stroke="url(#paint1_radial_348_8657)" stroke-opacity="0.6" stroke-width="0.363303"/>
</g>
<path d="M44.2499 33.3328L32.7962 65.2254H26.8803L15.6267 33.3328H21.4092L29.2822 57.5302C29.5343 58.3012 29.727 59.1982 29.8605 60.2213H29.9494C30.0532 59.3762 30.2682 58.4643 30.5944 57.4857L38.6454 33.3328H44.2499Z" fill="white"/>
</g>
</g>
<defs>
<filter id="filter0_d_348_8657" x="-9.35368" y="11.6579" width="78.2966" height="78.2966" filterUnits="userSpaceOnUse" color-interpolation-filters="sRGB">
<feFlood flood-opacity="0" result="BackgroundImageFix"/>
<feColorMatrix in="SourceAlpha" type="matrix" values="0 0 0 0 0 0 0 0 0 0 0 0 0 0 0 0 0 0 127 0" result="hardAlpha"/>
<feOffset dy="1.45321"/>
<feGaussianBlur stdDeviation="5.08624"/>
<feColorMatrix type="matrix" values="0 0 0 0 0 0 0 0 0 0 0 0 0 0 0 0 0 0 0.25 0"/>
<feBlend mode="normal" in2="BackgroundImageFix" result="effect1_dropShadow_348_8657"/>
<feBlend mode="normal" in="SourceGraphic" in2="effect1_dropShadow_348_8657" result="shape"/>
</filter>
<filter id="filter1_b_348_8657" x="-5.40048" y="14.1579" width="70.3902" height="70.3902" filterUnits="userSpaceOnUse" color-interpolation-filters="sRGB">
<feFlood flood-opacity="0" result="BackgroundImageFix"/>
<feGaussianBlur in="BackgroundImageFix" stdDeviation="3.10963"/>
<feComposite in2="SourceAlpha" operator="in" result="effect1_backgroundBlur_348_8657"/>
<feBlend mode="normal" in="SourceGraphic" in2="effect1_backgroundBlur_348_8657" result="shape"/>
</filter>
<linearGradient id="paint0_linear_348_8657" x1="12.6377" y1="29.8237" x2="44.7335" y2="86.7533" gradientUnits="userSpaceOnUse">
<stop stop-color="white" stop-opacity="0.45"/>
<stop offset="1" stop-color="white" stop-opacity="0"/>
<stop offset="1" stop-color="white" stop-opacity="0"/>
</linearGradient>
<radialGradient id="paint1_radial_348_8657" cx="0" cy="0" r="1" gradientUnits="userSpaceOnUse" gradientTransform="translate(38.5616 52.702) rotate(-32.5165) scale(79.2329 71.9975)">
<stop stop-color="white"/>
<stop offset="1" stop-color="white" stop-opacity="0"/>
</radialGradient>
</defs>
</svg>
