<svg width="157" height="101" viewBox="0 0 157 101" fill="none" xmlns="http://www.w3.org/2000/svg">
<mask id="mask0_348_8672" style="mask-type:alpha" maskUnits="userSpaceOnUse" x="0" y="0" width="157" height="101">
<path d="M126.691 37.5208C121.296 16.2336 102.01 0.483643 79.0457 0.483643C61.6675 0.483643 46.3959 9.50297 37.6565 23.1159C16.7436 23.7995 9.15527e-05 40.9679 9.15527e-05 62.0469C9.15527e-05 70.2323 2.52486 77.828 6.83811 84.0977C7.48438 85.0371 8.17081 85.9467 8.89489 86.8242C16.0393 95.4812 26.8514 100.999 38.9523 100.999L124.374 100.999L124.488 100.999C136.424 100.999 146.823 94.4179 152.254 84.6861C154.809 80.1094 156.264 74.8359 156.264 69.2224C156.264 52.4132 143.213 38.6523 126.691 37.5208Z" fill="white"/>
</mask>
<g mask="url(#mask0_348_8672)">
<path d="M6.83817 84.0981C7.48444 85.0375 8.17087 85.9472 8.89495 86.8246C16.0394 95.4816 26.8515 101 38.9523 101L124.374 100.999L124.488 101C136.424 101 146.823 94.4183 152.255 84.6865L91.9068 48.4259L6.83817 84.0981Z" fill="url(#paint0_linear_348_8672)"/>
<path d="M91.9067 48.426L59.6835 29.0644C53.6799 25.283 46.5716 23.0953 38.9523 23.0953C17.4396 23.0953 9.15527e-05 40.5348 9.15527e-05 62.0475C9.15527e-05 70.2329 2.52486 77.8285 6.83809 84.0983L91.9067 48.426Z" fill="#1582D7"/>
<path fill-rule="evenodd" clip-rule="evenodd" d="M91.9067 48.4256L152.255 84.6862C154.809 80.1095 156.264 74.8359 156.264 69.2224C156.264 51.6726 142.037 37.4457 124.488 37.4457C119.903 37.4457 115.545 38.4166 111.608 40.1641L91.9067 48.4256Z" fill="url(#paint1_linear_348_8672)"/>
<g filter="url(#filter0_d_348_8672)">
<g filter="url(#filter1_b_348_8672)">
<ellipse cx="79.0457" cy="49.6329" rx="48.6333" ry="48.6333" fill="url(#paint2_linear_348_8672)"/>
<path d="M79.0457 98.4478C106.005 98.4478 127.861 76.5926 127.861 49.6329C127.861 22.6732 106.005 0.817982 79.0457 0.817982C52.086 0.817982 30.2308 22.6732 30.2308 49.6329C30.2308 76.5926 52.086 98.4478 79.0457 98.4478Z" stroke="#D2D2D2" stroke-opacity="0.42" stroke-width="0.363303"/>
<path d="M79.0457 98.4478C106.005 98.4478 127.861 76.5926 127.861 49.6329C127.861 22.6732 106.005 0.817982 79.0457 0.817982C52.086 0.817982 30.2308 22.6732 30.2308 49.6329C30.2308 76.5926 52.086 98.4478 79.0457 98.4478Z" stroke="url(#paint3_radial_348_8672)" stroke-opacity="0.6" stroke-width="0.363303"/>
</g>
</g>
</g>
<defs>
<filter id="filter0_d_348_8672" x="19.8767" y="-8.08291" width="118.338" height="118.338" filterUnits="userSpaceOnUse" color-interpolation-filters="sRGB">
<feFlood flood-opacity="0" result="BackgroundImageFix"/>
<feColorMatrix in="SourceAlpha" type="matrix" values="0 0 0 0 0 0 0 0 0 0 0 0 0 0 0 0 0 0 127 0" result="hardAlpha"/>
<feOffset dy="1.45321"/>
<feGaussianBlur stdDeviation="5.08624"/>
<feColorMatrix type="matrix" values="0 0 0 0 0 0 0 0 0 0 0 0 0 0 0 0 0 0 0.25 0"/>
<feBlend mode="normal" in2="BackgroundImageFix" result="effect1_dropShadow_348_8672"/>
<feBlend mode="normal" in="SourceGraphic" in2="effect1_dropShadow_348_8672" result="shape"/>
</filter>
<filter id="filter1_b_348_8672" x="23.8299" y="-5.58291" width="110.432" height="110.432" filterUnits="userSpaceOnUse" color-interpolation-filters="sRGB">
<feFlood flood-opacity="0" result="BackgroundImageFix"/>
<feGaussianBlur in="BackgroundImageFix" stdDeviation="3.10963"/>
<feComposite in2="SourceAlpha" operator="in" result="effect1_backgroundBlur_348_8672"/>
<feBlend mode="normal" in="SourceGraphic" in2="effect1_backgroundBlur_348_8672" result="shape"/>
</filter>
<linearGradient id="paint0_linear_348_8672" x1="58.884" y1="63.9836" x2="122.21" y2="107.15" gradientUnits="userSpaceOnUse">
<stop stop-color="#2BAAEA"/>
<stop offset="1" stop-color="#1C94E3"/>
</linearGradient>
<linearGradient id="paint1_linear_348_8672" x1="104.328" y1="64.3249" x2="156.264" y2="64.8944" gradientUnits="userSpaceOnUse">
<stop stop-color="#148FDF"/>
<stop offset="1" stop-color="#0D7AD5"/>
</linearGradient>
<linearGradient id="paint2_linear_348_8672" x1="49.8837" y1="16.4385" x2="104.438" y2="113.203" gradientUnits="userSpaceOnUse">
<stop stop-color="white" stop-opacity="0.45"/>
<stop offset="1" stop-color="white" stop-opacity="0"/>
<stop offset="1" stop-color="white" stop-opacity="0"/>
</linearGradient>
<radialGradient id="paint3_radial_348_8672" cx="0" cy="0" r="1" gradientUnits="userSpaceOnUse" gradientTransform="translate(93.9471 55.3252) rotate(-32.5165) scale(134.674 122.375)">
<stop stop-color="white"/>
<stop offset="1" stop-color="white" stop-opacity="0"/>
</radialGradient>
</defs>
</svg>
