<svg width="100" height="100" viewBox="0 0 100 100" fill="none" xmlns="http://www.w3.org/2000/svg">
<g filter="url(#filter0_b_335_8328)">
<rect x="1" y="1" width="98" height="98" rx="10" fill="#5779A1"/>
</g>
<path d="M22.4743 56.3438C21.6343 56.3438 20.8868 56.1713 20.2318 55.8263C19.5818 55.4763 19.0743 54.9838 18.7093 54.3488C18.3493 53.7138 18.1693 52.9788 18.1693 52.1438V45.3263L19.7593 45.3188V52.0613C19.7593 52.6463 19.8868 53.1513 20.1418 53.5763C20.4018 54.0013 20.7393 54.3238 21.1543 54.5438C21.5693 54.7588 22.0093 54.8663 22.4743 54.8663C22.9393 54.8663 23.3793 54.7563 23.7943 54.5363C24.2093 54.3163 24.5443 53.9938 24.7993 53.5688C25.0593 53.1438 25.1893 52.6413 25.1893 52.0613V45.3188H26.7793V52.1438C26.7793 52.9788 26.5968 53.7138 26.2318 54.3488C25.8718 54.9838 25.3643 55.4763 24.7093 55.8263C24.0593 56.1713 23.3143 56.3438 22.4743 56.3438Z" fill="white"/>
<path d="M31.5248 56.3363C30.5398 56.3363 29.7373 56.1188 29.1173 55.6838C28.4973 55.2488 28.1173 54.6363 27.9773 53.8463L29.5823 53.5988C29.6823 54.0238 29.9123 54.3563 30.2723 54.5963C30.6373 54.8363 31.0898 54.9563 31.6298 54.9563C32.1198 54.9563 32.5023 54.8563 32.7773 54.6563C33.0573 54.4563 33.1973 54.1813 33.1973 53.8313C33.1973 53.6163 33.1473 53.4488 33.0473 53.3288C32.9473 53.2038 32.7498 53.0863 32.4548 52.9763C32.1648 52.8663 31.6873 52.7213 31.0223 52.5413C30.3123 52.3563 29.7573 52.1613 29.3573 51.9563C28.9623 51.7513 28.6773 51.5138 28.5023 51.2438C28.3273 50.9688 28.2398 50.6288 28.2398 50.2238C28.2398 49.7388 28.3698 49.3138 28.6298 48.9488C28.8898 48.5788 29.2573 48.2938 29.7323 48.0938C30.2073 47.8938 30.7598 47.7938 31.3898 47.7938C32.0048 47.7938 32.5573 47.8913 33.0473 48.0863C33.5373 48.2813 33.9298 48.5588 34.2248 48.9188C34.5248 49.2788 34.7048 49.6963 34.7648 50.1713L33.1598 50.4638C33.0998 50.0638 32.9023 49.7488 32.5673 49.5188C32.2373 49.2888 31.8073 49.1738 31.2773 49.1738C30.8373 49.1738 30.4823 49.2638 30.2123 49.4438C29.9423 49.6188 29.8073 49.8513 29.8073 50.1413C29.8073 50.3263 29.8648 50.4788 29.9798 50.5988C30.0948 50.7188 30.3098 50.8363 30.6248 50.9513C30.9398 51.0663 31.4223 51.2063 32.0723 51.3713C32.7623 51.5463 33.3023 51.7413 33.6923 51.9563C34.0873 52.1663 34.3723 52.4163 34.5473 52.7063C34.7223 52.9913 34.8098 53.3463 34.8098 53.7713C34.8098 54.3013 34.6773 54.7588 34.4123 55.1438C34.1523 55.5288 33.7748 55.8238 33.2798 56.0288C32.7898 56.2338 32.2048 56.3363 31.5248 56.3363Z" fill="white"/>
<path d="M37.2493 52.5113C37.3143 53.2663 37.5418 53.8488 37.9318 54.2588C38.3218 54.6638 38.8568 54.8663 39.5368 54.8663C40.0218 54.8663 40.4443 54.7563 40.8043 54.5363C41.1643 54.3163 41.4443 53.9963 41.6443 53.5763L43.1818 54.0638C42.8718 54.7788 42.3968 55.3388 41.7568 55.7438C41.1168 56.1438 40.4018 56.3438 39.6118 56.3438C38.8118 56.3438 38.1068 56.1688 37.4968 55.8188C36.8868 55.4638 36.4118 54.9688 36.0718 54.3338C35.7368 53.6938 35.5693 52.9613 35.5693 52.1363C35.5693 51.2613 35.7343 50.4963 36.0643 49.8413C36.3943 49.1863 36.8593 48.6813 37.4593 48.3263C38.0593 47.9713 38.7518 47.7938 39.5368 47.7938C40.3118 47.7938 40.9818 47.9663 41.5468 48.3113C42.1118 48.6563 42.5443 49.1513 42.8443 49.7963C43.1493 50.4363 43.3018 51.1938 43.3018 52.0688C43.3018 52.1638 43.2968 52.3113 43.2868 52.5113H37.2493ZM39.5968 49.1813C38.9318 49.1813 38.4043 49.3613 38.0143 49.7213C37.6293 50.0763 37.3868 50.5988 37.2868 51.2888H41.6818C41.5968 50.5738 41.3818 50.0438 41.0368 49.6988C40.6968 49.3538 40.2168 49.1813 39.5968 49.1813Z" fill="white"/>
<path d="M46.6645 48.4763C46.8895 48.3063 47.1495 48.1788 47.4445 48.0938C47.7395 48.0088 48.0395 47.9663 48.3445 47.9663C48.5095 47.9663 48.692 47.9838 48.892 48.0188V49.4888C48.722 49.4388 48.5245 49.4138 48.2995 49.4138C48.0895 49.4138 47.882 49.4413 47.677 49.4963C47.477 49.5463 47.292 49.6263 47.122 49.7363C46.442 50.1713 46.102 50.9363 46.102 52.0313V56.1188H44.5195V48.0188H45.9145V49.3088C46.1145 48.9538 46.3645 48.6763 46.6645 48.4763Z" fill="white"/>
<path d="M54.2878 56.3438C53.3178 56.3438 52.4528 56.1188 51.6928 55.6688C50.9378 55.2188 50.3453 54.5713 49.9153 53.7263C49.4853 52.8763 49.2703 51.8738 49.2703 50.7188C49.2703 49.5738 49.4803 48.5788 49.9003 47.7338C50.3253 46.8838 50.9153 46.2338 51.6703 45.7838C52.4303 45.3288 53.3028 45.1013 54.2878 45.1013C55.5278 45.1013 56.5303 45.3913 57.2953 45.9713C58.0653 46.5463 58.5928 47.3663 58.8778 48.4313L57.2878 48.7163C57.0628 48.0563 56.7028 47.5388 56.2078 47.1638C55.7128 46.7838 55.1028 46.5913 54.3778 46.5863C53.6278 46.5813 52.9953 46.7488 52.4803 47.0888C51.9703 47.4288 51.5853 47.9113 51.3253 48.5363C51.0703 49.1563 50.9403 49.8838 50.9353 50.7188C50.9303 51.5588 51.0578 52.2888 51.3178 52.9088C51.5828 53.5288 51.9753 54.0088 52.4953 54.3488C53.0203 54.6838 53.6653 54.8513 54.4303 54.8513C55.3353 54.8513 56.0478 54.5888 56.5678 54.0638C57.0928 53.5338 57.4103 52.7688 57.5203 51.7688H55.4203V50.5088H59.1853C59.2053 50.6738 59.2153 50.8863 59.2153 51.1463C59.2153 52.1563 59.0203 53.0538 58.6303 53.8388C58.2453 54.6238 57.6803 55.2388 56.9353 55.6838C56.1953 56.1238 55.3128 56.3438 54.2878 56.3438Z" fill="white"/>
<path d="M66.5676 49.3388C66.6826 49.5838 66.7576 49.8463 66.7926 50.1263C66.8326 50.4013 66.8526 50.7363 66.8526 51.1313V56.1188H65.4651V54.9413C65.1301 55.4163 64.7226 55.7688 64.2426 55.9988C63.7676 56.2288 63.2026 56.3438 62.5476 56.3438C61.9676 56.3438 61.4726 56.2363 61.0626 56.0213C60.6526 55.8013 60.3401 55.5088 60.1251 55.1438C59.9151 54.7738 59.8101 54.3638 59.8101 53.9138C59.8101 52.7188 60.4476 51.9188 61.7226 51.5138C62.1076 51.3988 62.5426 51.3013 63.0276 51.2213C63.5176 51.1363 64.1951 51.0338 65.0601 50.9138L65.3076 50.8838C65.2826 50.3138 65.1276 49.8988 64.8426 49.6388C64.5576 49.3738 64.1026 49.2413 63.4776 49.2413C63.0226 49.2413 62.6226 49.3463 62.2776 49.5563C61.9326 49.7663 61.6951 50.0863 61.5651 50.5163L60.1026 50.0663C60.3026 49.3513 60.6876 48.7938 61.2576 48.3938C61.8326 47.9938 62.5776 47.7938 63.4926 47.7938C64.2376 47.7938 64.8751 47.9213 65.4051 48.1763C65.9351 48.4313 66.3226 48.8188 66.5676 49.3388ZM62.8251 55.0613C63.2501 55.0613 63.6251 54.9863 63.9501 54.8363C64.2751 54.6813 64.5351 54.4813 64.7301 54.2363C64.9301 53.9913 65.0626 53.7313 65.1276 53.4563C65.2276 53.1663 65.2826 52.7438 65.2926 52.1888L65.0976 52.2188C64.3676 52.3238 63.8201 52.4088 63.4551 52.4738C63.0951 52.5388 62.7701 52.6138 62.4801 52.6988C62.1301 52.8188 61.8551 52.9738 61.6551 53.1638C61.4601 53.3538 61.3626 53.5988 61.3626 53.8988C61.3626 54.2338 61.4851 54.5113 61.7301 54.7313C61.9801 54.9513 62.3451 55.0613 62.8251 55.0613Z" fill="white"/>
<path d="M70.5777 52.8563V53.2838C70.5777 53.5388 70.5877 53.7463 70.6077 53.9063C70.6277 54.0613 70.6727 54.1963 70.7427 54.3113C70.8627 54.5113 71.0302 54.6563 71.2452 54.7463C71.4652 54.8313 71.7327 54.8738 72.0477 54.8738C72.3177 54.8738 72.6302 54.8463 72.9852 54.7913V56.1188C72.5202 56.2088 72.0927 56.2538 71.7027 56.2538C71.1427 56.2538 70.6527 56.1638 70.2327 55.9838C69.8177 55.8038 69.5077 55.5213 69.3027 55.1363C69.1777 54.9013 69.0952 54.6613 69.0552 54.4163C69.0202 54.1663 69.0027 53.8638 69.0027 53.5088V52.9313V49.2788H67.4502V48.0188H69.0027V45.7688H70.5777V48.0188H72.9852V49.2788H70.5777V52.8563Z" fill="white"/>
<path d="M75.0921 52.5113C75.1571 53.2663 75.3846 53.8488 75.7746 54.2588C76.1646 54.6638 76.6996 54.8663 77.3796 54.8663C77.8646 54.8663 78.2871 54.7563 78.6471 54.5363C79.0071 54.3163 79.2871 53.9963 79.4871 53.5763L81.0246 54.0638C80.7146 54.7788 80.2396 55.3388 79.5996 55.7438C78.9596 56.1438 78.2446 56.3438 77.4546 56.3438C76.6546 56.3438 75.9496 56.1688 75.3396 55.8188C74.7296 55.4638 74.2546 54.9688 73.9146 54.3338C73.5796 53.6938 73.4121 52.9613 73.4121 52.1363C73.4121 51.2613 73.5771 50.4963 73.9071 49.8413C74.2371 49.1863 74.7021 48.6813 75.3021 48.3263C75.9021 47.9713 76.5946 47.7938 77.3796 47.7938C78.1546 47.7938 78.8246 47.9663 79.3896 48.3113C79.9546 48.6563 80.3871 49.1513 80.6871 49.7963C80.9921 50.4363 81.1446 51.1938 81.1446 52.0688C81.1446 52.1638 81.1396 52.3113 81.1296 52.5113H75.0921ZM77.4396 49.1813C76.7746 49.1813 76.2471 49.3613 75.8571 49.7213C75.4721 50.0763 75.2296 50.5988 75.1296 51.2888H79.5246C79.4396 50.5738 79.2246 50.0438 78.8796 49.6988C78.5396 49.3538 78.0596 49.1813 77.4396 49.1813Z" fill="white"/>
<defs>
<filter id="filter0_b_335_8328" x="-5.21927" y="-5.21927" width="110.439" height="110.439" filterUnits="userSpaceOnUse" color-interpolation-filters="sRGB">
<feFlood flood-opacity="0" result="BackgroundImageFix"/>
<feGaussianBlur in="BackgroundImageFix" stdDeviation="3.10963"/>
<feComposite in2="SourceAlpha" operator="in" result="effect1_backgroundBlur_335_8328"/>
<feBlend mode="normal" in="SourceGraphic" in2="effect1_backgroundBlur_335_8328" result="shape"/>
</filter>
</defs>
</svg>
