<svg width="101" height="101" viewBox="0 0 101 101" fill="none" xmlns="http://www.w3.org/2000/svg">
<g filter="url(#filter0_b_335_8364)">
<rect x="1" y="1" width="98" height="98" rx="10" fill="#0079C2"/>
</g>
<path d="M13.95 53.0001L13.1475 50.5626H8.715L7.9275 53.0001H6.3L9.81 42.2001H12.0675L15.5775 53.0001H13.95ZM9.195 49.0926H12.6675L10.92 43.7676L9.195 49.0926Z" fill="white"/>
<path d="M20.0951 53.2251C19.3201 53.2251 18.6201 53.0926 17.9951 52.8276C17.3701 52.5576 16.8551 52.1726 16.4501 51.6726C16.0501 51.1676 15.7926 50.5776 15.6776 49.9026L17.3126 49.6551C17.4226 50.0901 17.6126 50.4651 17.8826 50.7801C18.1576 51.0951 18.4926 51.3351 18.8876 51.5001C19.2826 51.6651 19.7151 51.7476 20.1851 51.7476C20.6201 51.7476 21.0226 51.6776 21.3926 51.5376C21.7626 51.3976 22.0551 51.1976 22.2701 50.9376C22.4901 50.6776 22.6001 50.3726 22.6001 50.0226C22.6001 49.6526 22.4801 49.3576 22.2401 49.1376C22.0051 48.9126 21.6726 48.7351 21.2426 48.6051L18.4751 47.7876C17.7901 47.5876 17.2226 47.2826 16.7726 46.8726C16.3226 46.4626 16.0976 45.8651 16.0976 45.0801C16.0976 44.4301 16.2651 43.8726 16.6001 43.4076C16.9401 42.9376 17.4026 42.5826 17.9876 42.3426C18.5726 42.0976 19.2326 41.9776 19.9676 41.9826C20.6926 41.9876 21.3451 42.1176 21.9251 42.3726C22.5051 42.6226 22.9851 42.9851 23.3651 43.4601C23.7501 43.9301 24.0151 44.4926 24.1601 45.1476L22.4801 45.4326C22.4001 45.0276 22.2351 44.6776 21.9851 44.3826C21.7401 44.0826 21.4351 43.8551 21.0701 43.7001C20.7051 43.5451 20.3101 43.4676 19.8851 43.4676C19.4951 43.4676 19.1376 43.5326 18.8126 43.6626C18.4876 43.7926 18.2301 43.9751 18.0401 44.2101C17.8501 44.4451 17.7551 44.7101 17.7551 45.0051C17.7551 45.4051 17.9076 45.7101 18.2126 45.9201C18.5226 46.1251 18.9301 46.2976 19.4351 46.4376L21.4301 47.0001C21.9201 47.1351 22.3576 47.2951 22.7426 47.4801C23.1326 47.6651 23.4776 47.9576 23.7776 48.3576C24.0826 48.7526 24.2351 49.2726 24.2351 49.9176C24.2351 50.6176 24.0476 51.2176 23.6726 51.7176C23.3026 52.2126 22.8026 52.5876 22.1726 52.8426C21.5476 53.0976 20.8551 53.2251 20.0951 53.2251Z" fill="white"/>
<path d="M28.0759 43.6776H24.4834V42.2001H33.2359V43.6776H29.6434V53.0001H28.0759V43.6776Z" fill="white"/>
<path d="M40.3011 53.0001L38.4186 49.1226H35.5536V53.0001H33.9861V42.2001H38.3511C38.6511 42.2001 38.9286 42.2201 39.1836 42.2601C39.7736 42.3501 40.2711 42.5526 40.6761 42.8676C41.0811 43.1776 41.3836 43.5726 41.5836 44.0526C41.7886 44.5326 41.8911 45.0676 41.8911 45.6576C41.8911 46.3926 41.7336 47.0376 41.4186 47.5926C41.1086 48.1476 40.6536 48.5551 40.0536 48.8151L42.0936 53.0001H40.3011ZM35.5536 47.6376H38.2911C38.5511 47.6376 38.7786 47.6151 38.9736 47.5701C39.4186 47.4601 39.7486 47.2251 39.9636 46.8651C40.1836 46.5051 40.2936 46.1026 40.2936 45.6576C40.2936 45.2126 40.1836 44.8101 39.9636 44.4501C39.7486 44.0901 39.4186 43.8576 38.9736 43.7526C38.7886 43.7026 38.5611 43.6776 38.2911 43.6776H35.5536V47.6376Z" fill="white"/>
<path d="M50.192 53.0001L49.3895 50.5626H44.957L44.1695 53.0001H42.542L46.052 42.2001H48.3095L51.8195 53.0001H50.192ZM45.437 49.0926H48.9095L47.162 43.7676L45.437 49.0926Z" fill="white"/>
<path d="M52.865 42.2001H54.4325V51.5226H59.3225V53.0001H52.865V42.2001Z" fill="white"/>
<path d="M60.2959 42.2001H61.8634V53.0001H60.2959V42.2001Z" fill="white"/>
<path d="M63.6656 42.2001H65.2556L70.5731 50.2251V42.2001H72.1631V53.0001H70.5731L65.2556 44.9676V53.0001H63.6656V42.2001Z" fill="white"/>
<path d="M78.1115 53.2251C77.2714 53.2251 76.5239 53.0526 75.8689 52.7076C75.2189 52.3576 74.7114 51.8651 74.3464 51.2301C73.9864 50.5951 73.8064 49.8601 73.8064 49.0251V42.2076L75.3964 42.2001V48.9426C75.3964 49.5276 75.5239 50.0326 75.7789 50.4576C76.0389 50.8826 76.3764 51.2051 76.7915 51.4251C77.2065 51.6401 77.6465 51.7476 78.1115 51.7476C78.5764 51.7476 79.0164 51.6376 79.4314 51.4176C79.8465 51.1976 80.1814 50.8751 80.4364 50.4501C80.6964 50.0251 80.8264 49.5226 80.8264 48.9426V42.2001H82.4165V49.0251C82.4165 49.8601 82.2339 50.5951 81.8689 51.2301C81.5089 51.8651 81.0014 52.3576 80.3465 52.7076C79.6964 53.0526 78.9514 53.2251 78.1115 53.2251Z" fill="white"/>
<path d="M86.8469 47.5326L83.2619 42.2001H85.182L87.8145 46.2051L90.432 42.2001H92.3595L88.7745 47.5326L92.4494 53.0001H90.5294L87.8145 48.8676L85.0919 53.0001H83.1645L86.8469 47.5326Z" fill="white"/>
<path d="M22.56 63.1201C22.16 63.1201 21.7987 63.0535 21.476 62.9201C21.1533 62.7841 20.8867 62.5921 20.676 62.3441C20.468 62.0935 20.332 61.7988 20.268 61.4601L20.868 61.3601C20.932 61.6055 21.044 61.8188 21.204 62.0001C21.3667 62.1788 21.5653 62.3161 21.8 62.4121C22.0373 62.5081 22.2987 62.5561 22.584 62.5561C22.8667 62.5561 23.12 62.5108 23.344 62.4201C23.5707 62.3295 23.7467 62.2015 23.872 62.0361C24 61.8681 24.064 61.6735 24.064 61.4521C24.064 61.1881 23.9813 60.9868 23.816 60.8481C23.6507 60.7068 23.4387 60.5975 23.18 60.5201L21.72 60.0841C20.9013 59.8415 20.492 59.3815 20.492 58.7041C20.492 58.3868 20.576 58.1081 20.744 57.8681C20.9147 57.6281 21.148 57.4441 21.444 57.3161C21.7427 57.1881 22.0813 57.1241 22.46 57.1241C22.8413 57.1241 23.184 57.1921 23.488 57.3281C23.7947 57.4641 24.0467 57.6588 24.244 57.9121C24.4413 58.1655 24.5707 58.4628 24.632 58.8041L24.016 58.9161C23.9787 58.6708 23.8867 58.4561 23.74 58.2721C23.596 58.0855 23.412 57.9415 23.188 57.8401C22.9667 57.7388 22.7227 57.6868 22.456 57.6841C22.2027 57.6841 21.9733 57.7268 21.768 57.8121C21.5627 57.8975 21.4013 58.0161 21.284 58.1681C21.1693 58.3201 21.112 58.4908 21.112 58.6801C21.112 58.8615 21.1627 59.0121 21.264 59.1321C21.3653 59.2495 21.4867 59.3415 21.628 59.4081C21.772 59.4721 21.9413 59.5321 22.136 59.5881L23.264 59.9201C23.4987 59.9868 23.7133 60.0681 23.908 60.1641C24.1027 60.2601 24.2773 60.4121 24.432 60.6201C24.5867 60.8255 24.664 61.0948 24.664 61.4281C24.664 61.7775 24.5733 62.0801 24.392 62.3361C24.2107 62.5895 23.96 62.7841 23.64 62.9201C23.3227 63.0535 22.9627 63.1201 22.56 63.1201Z" fill="white"/>
<path d="M27.4737 57.2401C27.615 57.2401 27.7497 57.2508 27.8777 57.2721C28.171 57.3175 28.423 57.4215 28.6337 57.5841C28.847 57.7468 29.0084 57.9535 29.1177 58.2041C29.227 58.4521 29.2817 58.7268 29.2817 59.0281C29.2817 59.3295 29.2257 59.6041 29.1137 59.8521C29.0044 60.1001 28.8444 60.3055 28.6337 60.4681C28.423 60.6308 28.171 60.7348 27.8777 60.7801C27.7497 60.8015 27.615 60.8121 27.4737 60.8121H25.8377V63.0001H25.2497V57.2401H27.4737ZM27.4577 60.2521C27.591 60.2521 27.7097 60.2401 27.8137 60.2161C28.003 60.1761 28.1617 60.0975 28.2897 59.9801C28.4204 59.8628 28.5177 59.7215 28.5817 59.5561C28.6457 59.3881 28.6777 59.2121 28.6777 59.0281C28.6777 58.8441 28.6457 58.6695 28.5817 58.5041C28.5177 58.3361 28.4204 58.1935 28.2897 58.0761C28.1617 57.9561 28.003 57.8761 27.8137 57.8361C27.707 57.8148 27.5884 57.8041 27.4577 57.8041H25.8377V60.2521H27.4577Z" fill="white"/>
<path d="M29.8378 57.2401H33.4378V57.8041H30.4258V59.7961H32.9578V60.3601H30.4258V62.4361H33.4378V63.0001H29.8378V57.2401Z" fill="white"/>
<path d="M36.2892 63.1201C35.7265 63.1201 35.2465 62.9948 34.8492 62.7441C34.4519 62.4935 34.1505 62.1428 33.9452 61.6921C33.7399 61.2388 33.6372 60.7148 33.6372 60.1201C33.6372 59.5255 33.7399 59.0028 33.9452 58.5521C34.1505 58.0988 34.4519 57.7468 34.8492 57.4961C35.2465 57.2455 35.7265 57.1201 36.2892 57.1201C36.7265 57.1201 37.1145 57.1975 37.4532 57.3521C37.7945 57.5041 38.0772 57.7215 38.3012 58.0041C38.5279 58.2868 38.6945 58.6228 38.8012 59.0121L38.2012 59.1681C38.0759 58.7015 37.8519 58.3375 37.5292 58.0761C37.2065 57.8148 36.7932 57.6841 36.2892 57.6841C35.8492 57.6841 35.4772 57.7855 35.1732 57.9881C34.8719 58.1908 34.6452 58.4748 34.4932 58.8401C34.3412 59.2055 34.2625 59.6321 34.2572 60.1201C34.2545 60.6055 34.3292 61.0321 34.4812 61.4001C34.6359 61.7655 34.8652 62.0495 35.1692 62.2521C35.4759 62.4548 35.8492 62.5561 36.2892 62.5561C36.7932 62.5561 37.2065 62.4255 37.5292 62.1641C37.8519 61.9028 38.0759 61.5388 38.2012 61.0721L38.8012 61.2281C38.6945 61.6175 38.5279 61.9535 38.3012 62.2361C38.0772 62.5188 37.7945 62.7375 37.4532 62.8921C37.1145 63.0441 36.7265 63.1201 36.2892 63.1201Z" fill="white"/>
<path d="M39.5238 57.2401H40.1118V63.0001H39.5238V57.2401Z" fill="white"/>
<path d="M44.8069 63.0001L44.3229 61.6041H41.7629L41.2829 63.0001H40.6709L42.6549 57.2401H43.4349L45.4189 63.0001H44.8069ZM41.9549 61.0521H44.1309L43.0389 57.9041L41.9549 61.0521Z" fill="white"/>
<path d="M45.9813 57.2401H46.5693V62.4361H49.3053V63.0001H45.9813V57.2401Z" fill="white"/>
<path d="M50.7103 57.2401H54.3103V57.8041H51.2983V59.7961H53.8303V60.3601H51.2983V62.4361H54.3103V63.0001H50.7103V57.2401Z" fill="white"/>
<path d="M56.7808 57.2401C57.0901 57.2401 57.3368 57.2521 57.5208 57.2761C57.9448 57.3348 58.3048 57.4948 58.6008 57.7561C58.8995 58.0175 59.1235 58.3521 59.2728 58.7601C59.4221 59.1681 59.4968 59.6215 59.4968 60.1201C59.4968 60.6215 59.4221 61.0761 59.2728 61.4841C59.1235 61.8921 58.9008 62.2268 58.6048 62.4881C58.3088 62.7468 57.9475 62.9055 57.5208 62.9641C57.3422 62.9881 57.0955 63.0001 56.7808 63.0001H55.0328V57.2401H56.7808ZM56.7808 62.4361C57.0715 62.4361 57.2981 62.4201 57.4608 62.3881C57.9408 62.3054 58.2955 62.0601 58.5248 61.6521C58.7568 61.2441 58.8728 60.7335 58.8728 60.1201C58.8728 59.5041 58.7568 58.9935 58.5248 58.5881C58.2928 58.1828 57.9381 57.9375 57.4608 57.8521C57.2981 57.8201 57.0715 57.8041 56.7808 57.8041H55.6408V62.4361H56.7808Z" fill="white"/>
<path d="M60.2478 57.2401H60.8358V63.0001H60.2478V57.2401Z" fill="white"/>
<path d="M63.327 57.8041H61.315V57.2401H65.927V57.8041H63.915V63.0001H63.327V57.8041Z" fill="white"/>
<path d="M66.4084 57.2401H66.9964V63.0001H66.4084V57.2401Z" fill="white"/>
<path d="M70.2876 63.1201C69.725 63.1201 69.245 62.9948 68.8476 62.7441C68.4503 62.4935 68.149 62.1428 67.9436 61.6921C67.7383 61.2388 67.6356 60.7148 67.6356 60.1201C67.6356 59.5255 67.7383 59.0028 67.9436 58.5521C68.149 58.0988 68.4503 57.7468 68.8476 57.4961C69.245 57.2455 69.725 57.1201 70.2876 57.1201C70.8503 57.1201 71.3303 57.2455 71.7276 57.4961C72.1276 57.7468 72.4303 58.0988 72.6356 58.5521C72.841 59.0028 72.9436 59.5255 72.9436 60.1201C72.9436 60.7148 72.841 61.2388 72.6356 61.6921C72.4303 62.1428 72.1276 62.4935 71.7276 62.7441C71.3303 62.9948 70.8503 63.1201 70.2876 63.1201ZM70.2876 62.5561C70.7276 62.5561 71.0996 62.4548 71.4036 62.2521C71.7076 62.0495 71.9356 61.7655 72.0876 61.4001C72.2423 61.0348 72.3196 60.6081 72.3196 60.1201C72.3196 59.6348 72.2423 59.2095 72.0876 58.8441C71.9356 58.4788 71.7076 58.1948 71.4036 57.9921C71.0996 57.7895 70.7276 57.6868 70.2876 57.6841C69.8476 57.6841 69.477 57.7855 69.1756 57.9881C68.8743 58.1908 68.6476 58.4748 68.4956 58.8401C68.3436 59.2055 68.265 59.6321 68.2596 60.1201C68.2543 60.6055 68.3276 61.0308 68.4796 61.3961C68.6343 61.7615 68.8636 62.0455 69.1676 62.2481C69.4743 62.4508 69.8476 62.5535 70.2876 62.5561Z" fill="white"/>
<path d="M73.5047 57.2401H74.0967L77.2687 61.9601V57.2401H77.8607V63.0001H77.2687L74.0967 58.2761V63.0001H73.5047V57.2401Z" fill="white"/>
<defs>
<filter id="filter0_b_335_8364" x="-5.21927" y="-5.21927" width="110.439" height="110.439" filterUnits="userSpaceOnUse" color-interpolation-filters="sRGB">
<feFlood flood-opacity="0" result="BackgroundImageFix"/>
<feGaussianBlur in="BackgroundImageFix" stdDeviation="3.10963"/>
<feComposite in2="SourceAlpha" operator="in" result="effect1_backgroundBlur_335_8364"/>
<feBlend mode="normal" in="SourceGraphic" in2="effect1_backgroundBlur_335_8364" result="shape"/>
</filter>
</defs>
</svg>
