<svg width="100" height="100" viewBox="0 0 100 100" fill="none" xmlns="http://www.w3.org/2000/svg">
<g filter="url(#filter0_b_335_8488)">
<rect x="1" y="1" width="98" height="98" rx="10" fill="#5282FF"/>
</g>
<path d="M23.2493 44.7925C23.8093 44.7925 24.2568 44.815 24.5918 44.86C25.4168 44.965 26.1193 45.2625 26.6993 45.7525C27.2843 46.2425 27.7268 46.8725 28.0268 47.6425C28.3268 48.4125 28.4768 49.2625 28.4768 50.1925C28.4768 51.1225 28.3268 51.9725 28.0268 52.7425C27.7268 53.5125 27.2843 54.1425 26.6993 54.6325C26.1193 55.1225 25.4168 55.42 24.5918 55.525C24.2568 55.57 23.8093 55.5925 23.2493 55.5925H19.8668V44.7925H23.2493ZM23.2493 54.1C23.8043 54.1 24.2143 54.075 24.4793 54.025C25.0093 53.925 25.4468 53.6925 25.7918 53.3275C26.1418 52.9625 26.3993 52.51 26.5643 51.97C26.7293 51.43 26.8118 50.8375 26.8118 50.1925C26.8118 49.5375 26.7268 48.94 26.5568 48.4C26.3918 47.855 26.1343 47.4025 25.7843 47.0425C25.4343 46.6825 24.9993 46.455 24.4793 46.36C24.2143 46.31 23.8043 46.285 23.2493 46.285H21.4718V54.1H23.2493Z" fill="white"/>
<path d="M36.0808 48.8125C36.1958 49.0575 36.2708 49.32 36.3058 49.6C36.3458 49.875 36.3658 50.21 36.3658 50.605V55.5925H34.9783V54.415C34.6433 54.89 34.2358 55.2425 33.7558 55.4725C33.2808 55.7025 32.7158 55.8175 32.0608 55.8175C31.4808 55.8175 30.9858 55.71 30.5758 55.495C30.1658 55.275 29.8533 54.9825 29.6383 54.6175C29.4283 54.2475 29.3233 53.8375 29.3233 53.3875C29.3233 52.1925 29.9608 51.3925 31.2358 50.9875C31.6208 50.8725 32.0558 50.775 32.5408 50.695C33.0308 50.61 33.7083 50.5075 34.5733 50.3875L34.8208 50.3575C34.7958 49.7875 34.6408 49.3725 34.3558 49.1125C34.0708 48.8475 33.6158 48.715 32.9908 48.715C32.5358 48.715 32.1358 48.82 31.7908 49.03C31.4458 49.24 31.2083 49.56 31.0783 49.99L29.6158 49.54C29.8158 48.825 30.2008 48.2675 30.7708 47.8675C31.3458 47.4675 32.0908 47.2675 33.0058 47.2675C33.7508 47.2675 34.3883 47.395 34.9183 47.65C35.4483 47.905 35.8358 48.2925 36.0808 48.8125ZM32.3383 54.535C32.7633 54.535 33.1383 54.46 33.4633 54.31C33.7883 54.155 34.0483 53.955 34.2433 53.71C34.4433 53.465 34.5758 53.205 34.6408 52.93C34.7408 52.64 34.7958 52.2175 34.8058 51.6625L34.6108 51.6925C33.8808 51.7975 33.3333 51.8825 32.9683 51.9475C32.6083 52.0125 32.2833 52.0875 31.9933 52.1725C31.6433 52.2925 31.3683 52.4475 31.1683 52.6375C30.9733 52.8275 30.8758 53.0725 30.8758 53.3725C30.8758 53.7075 30.9983 53.985 31.2433 54.205C31.4933 54.425 31.8583 54.535 32.3383 54.535Z" fill="white"/>
<path d="M40.0908 52.33V52.7575C40.0908 53.0125 40.1008 53.22 40.1208 53.38C40.1408 53.535 40.1858 53.67 40.2558 53.785C40.3758 53.985 40.5433 54.13 40.7583 54.22C40.9783 54.305 41.2458 54.3475 41.5608 54.3475C41.8308 54.3475 42.1433 54.32 42.4983 54.265V55.5925C42.0333 55.6825 41.6058 55.7275 41.2158 55.7275C40.6558 55.7275 40.1658 55.6375 39.7458 55.4575C39.3308 55.2775 39.0208 54.995 38.8158 54.61C38.6908 54.375 38.6083 54.135 38.5683 53.89C38.5333 53.64 38.5158 53.3375 38.5158 52.9825V52.405V48.7525H36.9633V47.4925H38.5158V45.2425H40.0908V47.4925H42.4983V48.7525H40.0908V52.33Z" fill="white"/>
<path d="M50.0636 48.8125C50.1786 49.0575 50.2536 49.32 50.2886 49.6C50.3286 49.875 50.3486 50.21 50.3486 50.605V55.5925H48.9611V54.415C48.6261 54.89 48.2186 55.2425 47.7386 55.4725C47.2636 55.7025 46.6986 55.8175 46.0436 55.8175C45.4636 55.8175 44.9686 55.71 44.5586 55.495C44.1486 55.275 43.8361 54.9825 43.6211 54.6175C43.4111 54.2475 43.3061 53.8375 43.3061 53.3875C43.3061 52.1925 43.9436 51.3925 45.2186 50.9875C45.6036 50.8725 46.0386 50.775 46.5236 50.695C47.0136 50.61 47.6911 50.5075 48.5561 50.3875L48.8036 50.3575C48.7786 49.7875 48.6236 49.3725 48.3386 49.1125C48.0536 48.8475 47.5986 48.715 46.9736 48.715C46.5186 48.715 46.1186 48.82 45.7736 49.03C45.4286 49.24 45.1911 49.56 45.0611 49.99L43.5986 49.54C43.7986 48.825 44.1836 48.2675 44.7536 47.8675C45.3286 47.4675 46.0736 47.2675 46.9886 47.2675C47.7336 47.2675 48.3711 47.395 48.9011 47.65C49.4311 47.905 49.8186 48.2925 50.0636 48.8125ZM46.3211 54.535C46.7461 54.535 47.1211 54.46 47.4461 54.31C47.7711 54.155 48.0311 53.955 48.2261 53.71C48.4261 53.465 48.5586 53.205 48.6236 52.93C48.7236 52.64 48.7786 52.2175 48.7886 51.6625L48.5936 51.6925C47.8636 51.7975 47.3161 51.8825 46.9511 51.9475C46.5911 52.0125 46.2661 52.0875 45.9761 52.1725C45.6261 52.2925 45.3511 52.4475 45.1511 52.6375C44.9561 52.8275 44.8586 53.0725 44.8586 53.3725C44.8586 53.7075 44.9811 53.985 45.2261 54.205C45.4761 54.425 45.8411 54.535 46.3211 54.535Z" fill="white"/>
<path d="M51.9961 44.7925H53.5636V54.115H58.4536V55.5925H51.9961V44.7925Z" fill="white"/>
<path d="M60.507 51.985C60.572 52.74 60.7995 53.3225 61.1895 53.7325C61.5795 54.1375 62.1145 54.34 62.7945 54.34C63.2795 54.34 63.702 54.23 64.062 54.01C64.422 53.79 64.702 53.47 64.902 53.05L66.4395 53.5375C66.1295 54.2525 65.6545 54.8125 65.0145 55.2175C64.3745 55.6175 63.6595 55.8175 62.8695 55.8175C62.0695 55.8175 61.3645 55.6425 60.7545 55.2925C60.1445 54.9375 59.6695 54.4425 59.3295 53.8075C58.9945 53.1675 58.827 52.435 58.827 51.61C58.827 50.735 58.992 49.97 59.322 49.315C59.652 48.66 60.117 48.155 60.717 47.8C61.317 47.445 62.0095 47.2675 62.7945 47.2675C63.5695 47.2675 64.2395 47.44 64.8045 47.785C65.3695 48.13 65.802 48.625 66.102 49.27C66.407 49.91 66.5595 50.6675 66.5595 51.5425C66.5595 51.6375 66.5545 51.785 66.5445 51.985H60.507ZM62.8545 48.655C62.1895 48.655 61.662 48.835 61.272 49.195C60.887 49.55 60.6445 50.0725 60.5445 50.7625H64.9395C64.8545 50.0475 64.6395 49.5175 64.2945 49.1725C63.9545 48.8275 63.4745 48.655 62.8545 48.655Z" fill="white"/>
<path d="M71.63 47.275C72.48 47.275 73.1425 47.49 73.6175 47.92C74.0975 48.345 74.42 48.8425 74.585 49.4125C74.75 49.9825 74.8325 50.5425 74.8325 51.0925V55.5925H73.2425V51.61C73.2425 50.815 73.095 50.1425 72.8 49.5925C72.505 49.0375 71.97 48.76 71.195 48.76C70.58 48.76 70.0825 48.97 69.7025 49.39C69.3275 49.81 69.14 50.4725 69.14 51.3775V55.5925H67.55V47.4925H68.9525V48.46C69.2575 48.08 69.635 47.7875 70.085 47.5825C70.535 47.3775 71.05 47.275 71.63 47.275Z" fill="white"/>
<path d="M79.4335 55.81C78.4485 55.81 77.646 55.5925 77.026 55.1575C76.406 54.7225 76.026 54.11 75.886 53.32L77.491 53.0725C77.591 53.4975 77.821 53.83 78.181 54.07C78.546 54.31 78.9985 54.43 79.5385 54.43C80.0285 54.43 80.411 54.33 80.686 54.13C80.966 53.93 81.106 53.655 81.106 53.305C81.106 53.09 81.056 52.9225 80.956 52.8025C80.856 52.6775 80.6585 52.56 80.3635 52.45C80.0735 52.34 79.596 52.195 78.931 52.015C78.221 51.83 77.666 51.635 77.266 51.43C76.871 51.225 76.586 50.9875 76.411 50.7175C76.236 50.4425 76.1485 50.1025 76.1485 49.6975C76.1485 49.2125 76.2785 48.7875 76.5385 48.4225C76.7985 48.0525 77.166 47.7675 77.641 47.5675C78.116 47.3675 78.6685 47.2675 79.2985 47.2675C79.9135 47.2675 80.466 47.365 80.956 47.56C81.446 47.755 81.8385 48.0325 82.1335 48.3925C82.4335 48.7525 82.6135 49.17 82.6735 49.645L81.0685 49.9375C81.0085 49.5375 80.811 49.2225 80.476 48.9925C80.146 48.7625 79.716 48.6475 79.186 48.6475C78.746 48.6475 78.391 48.7375 78.121 48.9175C77.851 49.0925 77.716 49.325 77.716 49.615C77.716 49.8 77.7735 49.9525 77.8885 50.0725C78.0035 50.1925 78.2185 50.31 78.5335 50.425C78.8485 50.54 79.331 50.68 79.981 50.845C80.671 51.02 81.211 51.215 81.601 51.43C81.996 51.64 82.281 51.89 82.456 52.18C82.631 52.465 82.7185 52.82 82.7185 53.245C82.7185 53.775 82.586 54.2325 82.321 54.6175C82.061 55.0025 81.6835 55.2975 81.1885 55.5025C80.6985 55.7075 80.1135 55.81 79.4335 55.81Z" fill="white"/>
<defs>
<filter id="filter0_b_335_8488" x="-5.21927" y="-5.21927" width="110.439" height="110.439" filterUnits="userSpaceOnUse" color-interpolation-filters="sRGB">
<feFlood flood-opacity="0" result="BackgroundImageFix"/>
<feGaussianBlur in="BackgroundImageFix" stdDeviation="3.10963"/>
<feComposite in2="SourceAlpha" operator="in" result="effect1_backgroundBlur_335_8488"/>
<feBlend mode="normal" in="SourceGraphic" in2="effect1_backgroundBlur_335_8488" result="shape"/>
</filter>
</defs>
</svg>
