<svg width="100" height="100" viewBox="0 0 100 100" fill="none" xmlns="http://www.w3.org/2000/svg">
<g filter="url(#filter0_b_335_8428)">
<rect x="1" y="1" width="98" height="98" rx="10" fill="#FF9300"/>
</g>
<path d="M12.0902 49.8906C11.1716 49.8906 10.3786 49.687 9.71123 49.2796C9.04389 48.8723 8.53473 48.3025 8.18373 47.5701C7.83706 46.8335 7.66373 45.982 7.66373 45.0156C7.66373 44.0493 7.83706 43.2 8.18373 42.4676C8.53473 41.731 9.04389 41.159 9.71123 40.7516C10.3786 40.3443 11.1716 40.1406 12.0902 40.1406C12.7966 40.1406 13.4292 40.2641 13.9882 40.5111C14.5516 40.7538 15.0217 41.1026 15.3987 41.5576C15.7801 42.0083 16.0639 42.5435 16.2502 43.1631L14.8722 43.5336C14.6816 42.8663 14.3522 42.3506 13.8842 41.9866C13.4162 41.6183 12.8182 41.4341 12.0902 41.4341C11.4402 41.4341 10.8921 41.5815 10.4457 41.8761C9.99939 42.1708 9.66356 42.5868 9.43823 43.1241C9.21723 43.6615 9.10456 44.292 9.10023 45.0156C9.09589 45.7393 9.20639 46.3698 9.43173 46.9071C9.65706 47.4445 9.99289 47.8605 10.4392 48.1551C10.8899 48.4498 11.4402 48.5971 12.0902 48.5971C12.8182 48.5971 13.4162 48.4151 13.8842 48.0511C14.3522 47.6828 14.6816 47.165 14.8722 46.4976L16.2502 46.8681C16.0639 47.4878 15.7801 48.0251 15.3987 48.4801C15.0217 48.9308 14.5516 49.2796 13.9882 49.5266C13.4292 49.7693 12.7966 49.8906 12.0902 49.8906Z" fill="white"/>
<path d="M20.3383 49.8906C19.6493 49.8906 19.0448 49.7346 18.5248 49.4226C18.0048 49.1063 17.604 48.6686 17.3223 48.1096C17.0407 47.5463 16.8998 46.9028 16.8998 46.1791C16.8998 45.4511 17.0428 44.8076 17.3288 44.2486C17.6148 43.6896 18.0178 43.2563 18.5378 42.9486C19.0578 42.6366 19.658 42.4806 20.3383 42.4806C21.0273 42.4806 21.6318 42.6366 22.1518 42.9486C22.6762 43.2606 23.0792 43.6983 23.3608 44.2616C23.6425 44.8206 23.7833 45.4598 23.7833 46.1791C23.7833 46.9071 23.6403 47.5528 23.3543 48.1161C23.0727 48.6751 22.6718 49.1106 22.1518 49.4226C21.6318 49.7346 21.0273 49.8906 20.3383 49.8906ZM20.3383 48.6101C20.9883 48.6101 21.4845 48.3913 21.8268 47.9536C22.1692 47.5116 22.3403 46.9201 22.3403 46.1791C22.3403 45.4295 22.1692 44.8401 21.8268 44.4111C21.4845 43.9778 20.9883 43.7611 20.3383 43.7611C19.6797 43.7611 19.1813 43.9778 18.8433 44.4111C18.5097 44.8445 18.3428 45.4338 18.3428 46.1791C18.3428 46.9331 18.514 47.5268 18.8563 47.9601C19.1987 48.3935 19.6927 48.6101 20.3383 48.6101Z" fill="white"/>
<path d="M32.2122 42.5001C32.7062 42.5001 33.133 42.6041 33.4927 42.8121C33.8524 43.0158 34.1254 43.3061 34.3117 43.6831C34.5024 44.0558 34.5977 44.4935 34.5977 44.9961L34.5912 49.6956H33.2327L33.2392 45.3211C33.2392 44.9918 33.1807 44.7058 33.0637 44.4631C32.9467 44.2205 32.7799 44.0341 32.5632 43.9041C32.3509 43.7741 32.1039 43.7091 31.8222 43.7091C31.5579 43.7091 31.3174 43.7698 31.1007 43.8911C30.884 44.0125 30.7107 44.1945 30.5807 44.4371C30.455 44.6755 30.3922 44.9658 30.3922 45.3081L30.3857 49.6956H29.0272L29.0337 45.3471C29.0337 45.0135 28.9752 44.7231 28.8582 44.4761C28.7412 44.2291 28.5744 44.0406 28.3577 43.9106C28.1454 43.7763 27.8962 43.7091 27.6102 43.7091C27.3285 43.7091 27.0794 43.7763 26.8627 43.9106C26.646 44.045 26.477 44.2335 26.3557 44.4761C26.2387 44.7145 26.1802 44.9918 26.1802 45.3081V49.6956H24.8152V42.6756H26.0242V43.4296C26.2539 43.1393 26.542 42.9118 26.8887 42.7471C27.2397 42.5825 27.6232 42.5001 28.0392 42.5001C28.5159 42.5001 28.9275 42.5998 29.2742 42.7991C29.6209 42.9985 29.8895 43.278 30.0802 43.6376C30.2969 43.2823 30.5915 43.005 30.9642 42.8056C31.3412 42.602 31.7572 42.5001 32.2122 42.5001Z" fill="white"/>
<path d="M43.2861 42.5001C43.7801 42.5001 44.2069 42.6041 44.5666 42.8121C44.9262 43.0158 45.1992 43.3061 45.3856 43.6831C45.5762 44.0558 45.6716 44.4935 45.6716 44.9961L45.6651 49.6956H44.3066L44.3131 45.3211C44.3131 44.9918 44.2546 44.7058 44.1376 44.4631C44.0206 44.2205 43.8537 44.0341 43.6371 43.9041C43.4247 43.7741 43.1777 43.7091 42.8961 43.7091C42.6317 43.7091 42.3912 43.7698 42.1746 43.8911C41.9579 44.0125 41.7846 44.1945 41.6546 44.4371C41.5289 44.6755 41.4661 44.9658 41.4661 45.3081L41.4596 49.6956H40.1011L40.1076 45.3471C40.1076 45.0135 40.0491 44.7231 39.9321 44.4761C39.8151 44.2291 39.6482 44.0406 39.4316 43.9106C39.2192 43.7763 38.9701 43.7091 38.6841 43.7091C38.4024 43.7091 38.1532 43.7763 37.9366 43.9106C37.7199 44.045 37.5509 44.2335 37.4296 44.4761C37.3126 44.7145 37.2541 44.9918 37.2541 45.3081V49.6956H35.8891V42.6756H37.0981V43.4296C37.3277 43.1393 37.6159 42.9118 37.9626 42.7471C38.3136 42.5825 38.6971 42.5001 39.1131 42.5001C39.5897 42.5001 40.0014 42.5998 40.3481 42.7991C40.6947 42.9985 40.9634 43.278 41.1541 43.6376C41.3707 43.2823 41.6654 43.005 42.0381 42.8056C42.4151 42.602 42.8311 42.5001 43.2861 42.5001Z" fill="white"/>
<path d="M53.1444 42.6756V49.6956H51.9354V48.8571C51.6711 49.1865 51.3439 49.44 50.9539 49.6176C50.5639 49.7953 50.1176 49.8841 49.6149 49.8841C48.8783 49.8841 48.3019 49.7 47.8859 49.3316C47.4743 48.959 47.1969 48.5256 47.0539 48.0316C46.9109 47.5376 46.8394 47.0523 46.8394 46.5756V42.6756H48.2174V46.1271C48.2174 46.8161 48.3453 47.4011 48.6009 47.8821C48.8566 48.3588 49.3203 48.5971 49.9919 48.5971C50.5249 48.5971 50.9539 48.4151 51.2789 48.0511C51.6083 47.6871 51.7729 47.113 51.7729 46.3286V42.6756H53.1444Z" fill="white"/>
<path d="M58.107 42.4871C58.8436 42.4871 59.4178 42.6735 59.8295 43.0461C60.2455 43.4145 60.525 43.8456 60.668 44.3396C60.811 44.8336 60.8825 45.319 60.8825 45.7956V49.6956H59.5045V46.2441C59.5045 45.5551 59.3766 44.9723 59.121 44.4956C58.8653 44.0146 58.4016 43.7741 57.73 43.7741C57.197 43.7741 56.7658 43.9561 56.4365 44.3201C56.1115 44.6841 55.949 45.2583 55.949 46.0426V49.6956H54.571V42.6756H55.7865V43.5141C56.0508 43.1848 56.378 42.9313 56.768 42.7536C57.158 42.576 57.6043 42.4871 58.107 42.4871Z" fill="white"/>
<path d="M62.3155 40.2056H63.674V41.5251H62.3155V40.2056ZM62.3155 42.6756H63.674V49.6956H62.3155V42.6756Z" fill="white"/>
<path d="M71.32 42.6756V49.8841C71.32 50.2958 71.2896 50.6425 71.229 50.9241C71.086 51.6175 70.7436 52.1375 70.202 52.4841C69.6603 52.8351 68.9691 53.0106 68.1285 53.0106C67.5478 53.0106 67.0083 52.8763 66.51 52.6076C66.016 52.3433 65.6281 51.9663 65.3465 51.4766L66.601 50.8396C66.7483 51.1256 66.9585 51.3401 67.2315 51.4831C67.5088 51.6305 67.8121 51.7041 68.1415 51.7041C68.7265 51.7041 69.1771 51.5481 69.4935 51.2361C69.8098 50.9241 69.9636 50.4691 69.955 49.8711V49.2081C69.4393 49.6631 68.7958 49.8906 68.0245 49.8906C67.3875 49.8906 66.8285 49.7303 66.3475 49.4096C65.8665 49.0846 65.496 48.6405 65.236 48.0771C64.976 47.5138 64.846 46.8811 64.846 46.1791C64.846 45.4728 64.976 44.8401 65.236 44.2811C65.5003 43.7178 65.873 43.278 66.354 42.9616C66.8393 42.641 67.4048 42.4806 68.0505 42.4806C68.4795 42.4806 68.8673 42.5521 69.214 42.6951C69.5606 42.8381 69.8618 43.0418 70.1175 43.3061V42.6756H71.32ZM68.213 48.6621C68.8543 48.6621 69.331 48.4411 69.643 47.9991C69.9593 47.5528 70.1175 46.9461 70.1175 46.1791C70.1175 45.4208 69.9615 44.8206 69.6495 44.3786C69.3418 43.9323 68.8781 43.7091 68.2585 43.7091C67.8208 43.7091 67.4546 43.8175 67.16 44.0341C66.8653 44.2465 66.6465 44.539 66.5035 44.9116C66.3605 45.2843 66.289 45.7068 66.289 46.1791C66.289 46.6558 66.3605 47.0805 66.5035 47.4531C66.6465 47.8258 66.861 48.1205 67.147 48.3371C67.4373 48.5538 67.7926 48.6621 68.213 48.6621Z" fill="white"/>
<path d="M78.2216 43.8196C78.3213 44.032 78.3863 44.2595 78.4166 44.5021C78.4513 44.7405 78.4686 45.0308 78.4686 45.3731V49.6956H77.2661V48.6751C76.9758 49.0868 76.6226 49.3923 76.2066 49.5916C75.795 49.791 75.3053 49.8906 74.7376 49.8906C74.235 49.8906 73.806 49.7975 73.4506 49.6111C73.0953 49.4205 72.8245 49.167 72.6381 48.8506C72.4561 48.53 72.3651 48.1746 72.3651 47.7846C72.3651 46.749 72.9176 46.0556 74.0226 45.7046C74.3563 45.605 74.7333 45.5205 75.1536 45.4511C75.5783 45.3775 76.1655 45.2886 76.9151 45.1846L77.1296 45.1586C77.108 44.6646 76.9736 44.305 76.7266 44.0796C76.4796 43.85 76.0853 43.7351 75.5436 43.7351C75.1493 43.7351 74.8026 43.8261 74.5036 44.0081C74.2046 44.1901 73.9988 44.4675 73.8861 44.8401L72.6186 44.4501C72.792 43.8305 73.1256 43.3473 73.6196 43.0006C74.118 42.654 74.7636 42.4806 75.5566 42.4806C76.2023 42.4806 76.7548 42.5911 77.2141 42.8121C77.6735 43.0331 78.0093 43.369 78.2216 43.8196ZM74.9781 48.7791C75.3465 48.7791 75.6715 48.7141 75.9531 48.5841C76.2348 48.4498 76.4601 48.2765 76.6291 48.0641C76.8025 47.8518 76.9173 47.6265 76.9736 47.3881C77.0603 47.1368 77.108 46.7706 77.1166 46.2896L76.9476 46.3156C76.315 46.4066 75.8405 46.4803 75.5241 46.5366C75.2121 46.593 74.9305 46.658 74.6791 46.7316C74.3758 46.8356 74.1375 46.97 73.9641 47.1346C73.7951 47.2993 73.7106 47.5116 73.7106 47.7716C73.7106 48.062 73.8168 48.3025 74.0291 48.4931C74.2458 48.6838 74.5621 48.7791 74.9781 48.7791Z" fill="white"/>
<path d="M81.697 46.8681V47.2386C81.697 47.4596 81.7057 47.6395 81.723 47.7781C81.7403 47.9125 81.7793 48.0295 81.84 48.1291C81.944 48.3025 82.0892 48.4281 82.2755 48.5061C82.4662 48.5798 82.698 48.6166 82.971 48.6166C83.205 48.6166 83.4758 48.5928 83.7835 48.5451V49.6956C83.3805 49.7736 83.01 49.8126 82.672 49.8126C82.1867 49.8126 81.762 49.7346 81.398 49.5786C81.0383 49.4226 80.7697 49.1778 80.592 48.8441C80.4837 48.6405 80.4122 48.4325 80.3775 48.2201C80.3472 48.0035 80.332 47.7413 80.332 47.4336V46.9331V43.7676H78.9865V42.6756H80.332V40.7256H81.697V42.6756H83.7835V43.7676H81.697V46.8681Z" fill="white"/>
<path d="M85.6095 46.5691C85.6658 47.2235 85.863 47.7283 86.201 48.0836C86.539 48.4346 87.0027 48.6101 87.592 48.6101C88.0123 48.6101 88.3785 48.5148 88.6905 48.3241C89.0025 48.1335 89.2452 47.8561 89.4185 47.4921L90.751 47.9146C90.4823 48.5343 90.0707 49.0196 89.516 49.3706C88.9613 49.7173 88.3417 49.8906 87.657 49.8906C86.9637 49.8906 86.3527 49.739 85.824 49.4356C85.2953 49.128 84.8837 48.699 84.589 48.1486C84.2987 47.594 84.1535 46.9591 84.1535 46.2441C84.1535 45.4858 84.2965 44.8228 84.5825 44.2551C84.8685 43.6875 85.2715 43.2498 85.7915 42.9421C86.3115 42.6345 86.9117 42.4806 87.592 42.4806C88.2637 42.4806 88.8443 42.6301 89.334 42.9291C89.8237 43.2281 90.1985 43.6571 90.4585 44.2161C90.7228 44.7708 90.855 45.4273 90.855 46.1856C90.855 46.268 90.8507 46.3958 90.842 46.5691H85.6095ZM87.644 43.6831C87.0677 43.6831 86.6105 43.8391 86.2725 44.1511C85.9388 44.4588 85.7287 44.9116 85.642 45.5096H89.451C89.3773 44.89 89.191 44.4306 88.892 44.1316C88.5973 43.8326 88.1813 43.6831 87.644 43.6831Z" fill="white"/>
<path d="M41.4958 57.3356C41.7558 57.3356 41.9963 57.353 42.2173 57.3876C42.7286 57.4656 43.1598 57.6411 43.5108 57.9141C43.8618 58.1828 44.1239 58.5251 44.2973 58.9411C44.4749 59.3571 44.5638 59.8208 44.5638 60.3321C44.5638 60.8478 44.4749 61.3136 44.2973 61.7296C44.1196 62.1413 43.8553 62.4836 43.5043 62.7566C43.1533 63.0253 42.7243 63.2008 42.2173 63.2831C41.9963 63.3178 41.7558 63.3351 41.4958 63.3351H39.0713V66.6956H37.7128V57.3356H41.4958ZM41.4438 62.0481C41.6691 62.0481 41.8663 62.0286 42.0353 61.9896C42.4209 61.8943 42.7069 61.6906 42.8933 61.3786C43.0839 61.0666 43.1793 60.7178 43.1793 60.3321C43.1793 59.9465 43.0839 59.5976 42.8933 59.2856C42.7069 58.9736 42.4209 58.7721 42.0353 58.6811C41.8749 58.6378 41.6778 58.6161 41.4438 58.6161H39.0713V62.0481H41.4438Z" fill="white"/>
<path d="M50.9462 66.6956L49.3147 63.3351H46.8317V66.6956H45.4732V57.3356H49.2562C49.5162 57.3356 49.7567 57.353 49.9777 57.3876C50.489 57.4656 50.9202 57.6411 51.2712 57.9141C51.6222 58.1828 51.8843 58.5251 52.0577 58.9411C52.2353 59.3571 52.3242 59.8208 52.3242 60.3321C52.3242 60.9691 52.1877 61.5281 51.9147 62.0091C51.646 62.4901 51.2517 62.8433 50.7317 63.0686L52.4997 66.6956H50.9462ZM46.8317 62.0481H49.2042C49.4295 62.0481 49.6267 62.0286 49.7957 61.9896C50.1813 61.8943 50.4673 61.6906 50.6537 61.3786C50.8443 61.0666 50.9397 60.7178 50.9397 60.3321C50.9397 59.9465 50.8443 59.5976 50.6537 59.2856C50.4673 58.9736 50.1813 58.7721 49.7957 58.6811C49.6353 58.6378 49.4382 58.6161 49.2042 58.6161H46.8317V62.0481Z" fill="white"/>
<path d="M57.4447 66.8906C56.5261 66.8906 55.7331 66.687 55.0657 66.2796C54.3984 65.8723 53.8892 65.3025 53.5382 64.5701C53.1916 63.8335 53.0182 62.982 53.0182 62.0156C53.0182 61.0493 53.1916 60.2 53.5382 59.4676C53.8892 58.731 54.3984 58.159 55.0657 57.7516C55.7331 57.3443 56.5261 57.1406 57.4447 57.1406C58.3634 57.1406 59.1542 57.3443 59.8172 57.7516C60.4846 58.159 60.9916 58.731 61.3382 59.4676C61.6892 60.2 61.8647 61.0493 61.8647 62.0156C61.8647 62.982 61.6892 63.8335 61.3382 64.5701C60.9916 65.3025 60.4846 65.8723 59.8172 66.2796C59.1542 66.687 58.3634 66.8906 57.4447 66.8906ZM57.4447 65.5971C58.0947 65.6015 58.6407 65.4563 59.0827 65.1616C59.5291 64.867 59.8627 64.451 60.0837 63.9136C60.3091 63.372 60.4217 62.7393 60.4217 62.0156C60.4217 61.292 60.3091 60.6636 60.0837 60.1306C59.8627 59.5933 59.5291 59.1773 59.0827 58.8826C58.6407 58.588 58.0947 58.4385 57.4447 58.4341C56.7947 58.4298 56.2466 58.575 55.8002 58.8696C55.3582 59.1643 55.0246 59.5825 54.7992 60.1241C54.5782 60.6615 54.4656 61.292 54.4612 62.0156C54.4569 62.7393 54.5674 63.3698 54.7927 63.9071C55.0181 64.4401 55.3539 64.854 55.8002 65.1486C56.2466 65.4433 56.7947 65.5928 57.4447 65.5971Z" fill="white"/>
<defs>
<filter id="filter0_b_335_8428" x="-5.21927" y="-5.21927" width="110.439" height="110.439" filterUnits="userSpaceOnUse" color-interpolation-filters="sRGB">
<feFlood flood-opacity="0" result="BackgroundImageFix"/>
<feGaussianBlur in="BackgroundImageFix" stdDeviation="3.10963"/>
<feComposite in2="SourceAlpha" operator="in" result="effect1_backgroundBlur_335_8428"/>
<feBlend mode="normal" in="SourceGraphic" in2="effect1_backgroundBlur_335_8428" result="shape"/>
</filter>
</defs>
</svg>
