<svg width="100" height="100" viewBox="0 0 100 100" fill="none" xmlns="http://www.w3.org/2000/svg">
<g clip-path="url(#clip0_335_8549)">
<g filter="url(#filter0_b_335_8549)">
<rect x="1.34692" y="1.34692" width="98" height="98" rx="10" fill="#FF4178"/>
</g>
<path d="M21.0344 55.8395C20.8294 55.8745 20.6119 55.892 20.3819 55.892C19.7219 55.892 19.1194 55.727 18.5744 55.397C18.0294 55.062 17.5969 54.5745 17.2769 53.9345C16.9569 53.2895 16.7969 52.522 16.7969 51.632C16.7969 50.742 16.9569 49.972 17.2769 49.322C17.6019 48.667 18.0369 48.1695 18.5819 47.8295C19.1319 47.4895 19.7369 47.3195 20.3969 47.3195C20.6169 47.3195 20.8294 47.337 21.0344 47.372V46.547H22.5944V47.372C22.7994 47.337 23.0119 47.3195 23.2319 47.3195C23.8919 47.3195 24.4969 47.4895 25.0469 47.8295C25.5969 48.1695 26.0319 48.667 26.3519 49.322C26.6769 49.972 26.8394 50.742 26.8394 51.632C26.8394 52.522 26.6769 53.2895 26.3519 53.9345C26.0319 54.5745 25.5994 55.062 25.0544 55.397C24.5094 55.727 23.9069 55.892 23.2469 55.892C23.0169 55.892 22.7994 55.8745 22.5944 55.8395V57.347H21.0344V55.8395ZM21.0344 48.8045C20.8994 48.7845 20.7569 48.7745 20.6069 48.7745C20.1219 48.7745 19.7144 48.9045 19.3844 49.1645C19.0544 49.4195 18.8069 49.7645 18.6419 50.1995C18.4819 50.6295 18.4019 51.107 18.4019 51.632C18.4019 52.152 18.4819 52.622 18.6419 53.042C18.8019 53.462 19.0444 53.797 19.3694 54.047C19.6994 54.297 20.1069 54.422 20.5919 54.422C20.7119 54.422 20.8594 54.4095 21.0344 54.3845V48.8045ZM22.5944 54.3845C22.7594 54.4095 22.9044 54.422 23.0294 54.422C23.5094 54.422 23.9144 54.2995 24.2444 54.0545C24.5794 53.8045 24.8269 53.472 24.9869 53.057C25.1519 52.637 25.2344 52.1745 25.2344 51.6695C25.2344 51.1595 25.1519 50.6845 24.9869 50.2445C24.8219 49.8045 24.5694 49.4495 24.2294 49.1795C23.8944 48.9095 23.4844 48.7745 22.9994 48.7745C22.8544 48.7745 22.7194 48.7845 22.5944 48.8045V54.3845Z" fill="white"/>
<path d="M32.3968 57.572C31.3368 57.572 30.4218 57.337 29.6518 56.867C28.8818 56.397 28.2943 55.7395 27.8893 54.8945C27.4893 54.0445 27.2893 53.062 27.2893 51.947C27.2893 50.832 27.4893 49.852 27.8893 49.007C28.2943 48.157 28.8818 47.497 29.6518 47.027C30.4218 46.557 31.3368 46.322 32.3968 46.322C33.4568 46.322 34.3693 46.557 35.1343 47.027C35.9043 47.497 36.4893 48.157 36.8893 49.007C37.2943 49.852 37.4968 50.832 37.4968 51.947C37.4968 53.062 37.2943 54.0445 36.8893 54.8945C36.4893 55.7395 35.9043 56.397 35.1343 56.867C34.3693 57.337 33.4568 57.572 32.3968 57.572ZM32.3968 56.0795C33.1468 56.0845 33.7768 55.917 34.2868 55.577C34.8018 55.237 35.1868 54.757 35.4418 54.137C35.7018 53.512 35.8318 52.782 35.8318 51.947C35.8318 51.112 35.7018 50.387 35.4418 49.772C35.1868 49.152 34.8018 48.672 34.2868 48.332C33.7768 47.992 33.1468 47.8195 32.3968 47.8145C31.6468 47.8095 31.0143 47.977 30.4993 48.317C29.9893 48.657 29.6043 49.1395 29.3443 49.7645C29.0893 50.3845 28.9593 51.112 28.9543 51.947C28.9493 52.782 29.0768 53.5095 29.3368 54.1295C29.5968 54.7445 29.9843 55.222 30.4993 55.562C31.0143 55.902 31.6468 56.0745 32.3968 56.0795Z" fill="white"/>
<path d="M42.9078 46.547C43.2078 46.547 43.4853 46.567 43.7403 46.607C44.3303 46.697 44.8278 46.8995 45.2328 47.2145C45.6378 47.5245 45.9403 47.9195 46.1403 48.3995C46.3453 48.8795 46.4478 49.4145 46.4478 50.0045C46.4478 50.5995 46.3453 51.137 46.1403 51.617C45.9353 52.092 45.6303 52.487 45.2253 52.802C44.8203 53.112 44.3253 53.3145 43.7403 53.4095C43.4853 53.4495 43.2078 53.4695 42.9078 53.4695H40.1103V57.347H38.5428V46.547H42.9078ZM42.8478 51.9845C43.1078 51.9845 43.3353 51.962 43.5303 51.917C43.9753 51.807 44.3053 51.572 44.5203 51.212C44.7403 50.852 44.8503 50.4495 44.8503 50.0045C44.8503 49.5595 44.7403 49.157 44.5203 48.797C44.3053 48.437 43.9753 48.2045 43.5303 48.0995C43.3453 48.0495 43.1178 48.0245 42.8478 48.0245H40.1103V51.9845H42.8478Z" fill="white"/>
<path d="M52.0046 57.572C50.9446 57.572 50.0296 57.337 49.2596 56.867C48.4896 56.397 47.9021 55.7395 47.4971 54.8945C47.0971 54.0445 46.8971 53.062 46.8971 51.947C46.8971 50.832 47.0971 49.852 47.4971 49.007C47.9021 48.157 48.4896 47.497 49.2596 47.027C50.0296 46.557 50.9446 46.322 52.0046 46.322C52.8196 46.322 53.5496 46.4645 54.1946 46.7495C54.8446 47.0295 55.3871 47.432 55.8221 47.957C56.2621 48.477 56.5896 49.0945 56.8046 49.8095L55.2146 50.237C54.9946 49.467 54.6146 48.872 54.0746 48.452C53.5346 48.027 52.8446 47.8145 52.0046 47.8145C51.2546 47.8145 50.6221 47.9845 50.1071 48.3245C49.5921 48.6645 49.2046 49.1445 48.9446 49.7645C48.6896 50.3845 48.5596 51.112 48.5546 51.947C48.5496 52.782 48.6771 53.5095 48.9371 54.1295C49.1971 54.7495 49.5846 55.2295 50.0996 55.5695C50.6196 55.9095 51.2546 56.0795 52.0046 56.0795C52.8446 56.0795 53.5346 55.8695 54.0746 55.4495C54.6146 55.0245 54.9946 54.427 55.2146 53.657L56.8046 54.0845C56.5896 54.7995 56.2621 55.4195 55.8221 55.9445C55.3871 56.4645 54.8446 56.867 54.1946 57.152C53.5496 57.432 52.8196 57.572 52.0046 57.572Z" fill="white"/>
<path d="M64.6112 57.347L63.8087 54.9095H59.3762L58.5887 57.347H56.9612L60.4712 46.547H62.7287L66.2387 57.347H64.6112ZM59.8562 53.4395H63.3287L61.5812 48.1145L59.8562 53.4395Z" fill="white"/>
<path d="M71.4092 45.617C71.0192 45.617 70.6592 45.5195 70.3292 45.3245C69.9992 45.1295 69.7367 44.867 69.5417 44.537C69.3467 44.207 69.2492 43.847 69.2492 43.457H70.4942C70.4942 43.707 70.5842 43.922 70.7642 44.102C70.9442 44.282 71.1592 44.372 71.4092 44.372C71.6642 44.372 71.8792 44.282 72.0542 44.102C72.2342 43.922 72.3242 43.707 72.3242 43.457H73.5692C73.5692 43.847 73.4717 44.207 73.2767 44.537C73.0817 44.867 72.8192 45.1295 72.4892 45.3245C72.1592 45.5195 71.7992 45.617 71.4092 45.617ZM67.1342 46.547H68.7242V54.572L74.0417 46.547H75.6317V57.347H74.0417V49.3145L68.7242 57.347H67.1342V46.547Z" fill="white"/>
<path d="M79.9675 48.0245H76.375V46.547H85.1275V48.0245H81.535V57.347H79.9675V48.0245Z" fill="white"/>
</g>
<defs>
<filter id="filter0_b_335_8549" x="-4.87234" y="-4.87234" width="110.439" height="110.439" filterUnits="userSpaceOnUse" color-interpolation-filters="sRGB">
<feFlood flood-opacity="0" result="BackgroundImageFix"/>
<feGaussianBlur in="BackgroundImageFix" stdDeviation="3.10963"/>
<feComposite in2="SourceAlpha" operator="in" result="effect1_backgroundBlur_335_8549"/>
<feBlend mode="normal" in="SourceGraphic" in2="effect1_backgroundBlur_335_8549" result="shape"/>
</filter>
<clipPath id="clip0_335_8549">
<rect width="100" height="100" fill="white"/>
</clipPath>
</defs>
</svg>
