<svg width="100" height="100" viewBox="0 0 100 100" fill="none" xmlns="http://www.w3.org/2000/svg">
<g filter="url(#filter0_b_335_8552)">
<rect x="1" y="1" width="98" height="98" rx="10" fill="white"/>
</g>
<path d="M41.8051 37H43.1636V46.36H41.8051V37Z" fill="black"/>
<path d="M43.8805 37H45.291L47.8845 44.9885L50.5105 37H51.921L48.879 46.36H46.9225L43.8805 37Z" fill="black"/>
<path d="M57.5772 46.36L56.8817 44.2475H53.0402L52.3577 46.36H50.9472L53.9892 37H55.9457L58.9877 46.36H57.5772ZM53.4562 42.9735H56.4657L54.9512 38.3585L53.4562 42.9735Z" fill="black"/>
<path d="M11.1135 55.2805H8V54H15.5855V55.2805H12.472L12.472 63.36H11.1135L11.1135 55.2805Z" fill="black"/>
<path d="M16.2357 54H22.2157V55.2805H17.5942V57.9065H21.4357V59.187H17.5942V62.0795H22.2157V63.36H16.2357V54Z" fill="black"/>
<path d="M26.9631 63.555C26.0445 63.555 25.2515 63.3513 24.5841 62.944C23.9168 62.5367 23.4076 61.9668 23.0566 61.2345C22.71 60.4978 22.5366 59.6463 22.5366 58.68C22.5366 57.7137 22.71 56.8643 23.0566 56.132C23.4076 55.3953 23.9168 54.8233 24.5841 54.416C25.2515 54.0087 26.0445 53.805 26.9631 53.805C27.6695 53.805 28.3021 53.9285 28.8611 54.1755C29.4245 54.4182 29.8946 54.767 30.2716 55.222C30.653 55.6727 30.9368 56.2078 31.1231 56.8275L29.7451 57.198C29.5545 56.5307 29.2251 56.015 28.7571 55.651C28.2891 55.2827 27.6911 55.0985 26.9631 55.0985C26.3131 55.0985 25.765 55.2458 25.3186 55.5405C24.8723 55.8352 24.5365 56.2512 24.3111 56.7885C24.0901 57.3258 23.9775 57.9563 23.9731 58.68C23.9688 59.4037 24.0793 60.0342 24.3046 60.5715C24.53 61.1088 24.8658 61.5248 25.3121 61.8195C25.7628 62.1142 26.3131 62.2615 26.9631 62.2615C27.6911 62.2615 28.2891 62.0795 28.7571 61.7155C29.2251 61.3472 29.5545 60.8293 29.7451 60.162L31.1231 60.5325C30.9368 61.1522 30.653 61.6895 30.2716 62.1445C29.8946 62.5952 29.4245 62.944 28.8611 63.191C28.3021 63.4337 27.6695 63.555 26.9631 63.555Z" fill="black"/>
<path d="M32.1627 54H33.5212V58.0365H38.2012V54H39.5662V63.36H38.2012V59.317H33.5212V63.36H32.1627V54Z" fill="black"/>
<path d="M44.9087 63.555C43.9901 63.555 43.1971 63.3513 42.5297 62.944C41.8624 62.5367 41.3532 61.9668 41.0022 61.2345C40.6556 60.4978 40.4822 59.6463 40.4822 58.68C40.4822 57.7137 40.6556 56.8643 41.0022 56.132C41.3532 55.3953 41.8624 54.8233 42.5297 54.416C43.1971 54.0087 43.9901 53.805 44.9087 53.805C45.8274 53.805 46.6182 54.0087 47.2812 54.416C47.9486 54.8233 48.4556 55.3953 48.8022 56.132C49.1532 56.8643 49.3287 57.7137 49.3287 58.68C49.3287 59.6463 49.1532 60.4978 48.8022 61.2345C48.4556 61.9668 47.9486 62.5367 47.2812 62.944C46.6182 63.3513 45.8274 63.555 44.9087 63.555ZM44.9087 62.2615C45.5587 62.2658 46.1047 62.1207 46.5467 61.826C46.9931 61.5313 47.3267 61.1153 47.5477 60.578C47.7731 60.0363 47.8857 59.4037 47.8857 58.68C47.8857 57.9563 47.7731 57.328 47.5477 56.795C47.3267 56.2577 46.9931 55.8417 46.5467 55.547C46.1047 55.2523 45.5587 55.1028 44.9087 55.0985C44.2587 55.0942 43.7106 55.2393 43.2642 55.534C42.8222 55.8287 42.4886 56.2468 42.2632 56.7885C42.0422 57.3258 41.9296 57.9563 41.9252 58.68C41.9209 59.4037 42.0314 60.0342 42.2567 60.5715C42.4821 61.1045 42.8179 61.5183 43.2642 61.813C43.7106 62.1077 44.2587 62.2572 44.9087 62.2615Z" fill="black"/>
<path d="M50.3653 54H51.7238V62.0795H55.9618V63.36H50.3653V54Z" fill="black"/>
<path d="M60.3279 63.555C59.4093 63.555 58.6163 63.3513 57.9489 62.944C57.2816 62.5367 56.7724 61.9668 56.4214 61.2345C56.0748 60.4978 55.9014 59.6463 55.9014 58.68C55.9014 57.7137 56.0748 56.8643 56.4214 56.132C56.7724 55.3953 57.2816 54.8233 57.9489 54.416C58.6163 54.0087 59.4093 53.805 60.3279 53.805C61.2466 53.805 62.0374 54.0087 62.7004 54.416C63.3678 54.8233 63.8748 55.3953 64.2214 56.132C64.5724 56.8643 64.7479 57.7137 64.7479 58.68C64.7479 59.6463 64.5724 60.4978 64.2214 61.2345C63.8748 61.9668 63.3678 62.5367 62.7004 62.944C62.0374 63.3513 61.2466 63.555 60.3279 63.555ZM60.3279 62.2615C60.9779 62.2658 61.5239 62.1207 61.9659 61.826C62.4123 61.5313 62.7459 61.1153 62.9669 60.578C63.1923 60.0363 63.3049 59.4037 63.3049 58.68C63.3049 57.9563 63.1923 57.328 62.9669 56.795C62.7459 56.2577 62.4123 55.8417 61.9659 55.547C61.5239 55.2523 60.9779 55.1028 60.3279 55.0985C59.6779 55.0942 59.1298 55.2393 58.6834 55.534C58.2414 55.8287 57.9078 56.2468 57.6824 56.7885C57.4614 57.3258 57.3488 57.9563 57.3444 58.68C57.3401 59.4037 57.4506 60.0342 57.6759 60.5715C57.9013 61.1045 58.2371 61.5183 58.6834 61.813C59.1298 62.1077 59.6779 62.2572 60.3279 62.2615Z" fill="black"/>
<path d="M69.483 63.555C68.6423 63.555 67.8927 63.36 67.234 62.97C66.5797 62.58 66.0662 62.0188 65.6935 61.2865C65.3208 60.5498 65.1345 59.681 65.1345 58.68C65.1345 57.6877 65.3165 56.8253 65.6805 56.093C66.0488 55.3563 66.5602 54.793 67.2145 54.403C67.8732 54.0087 68.6293 53.8115 69.483 53.8115C70.5577 53.8115 71.4265 54.0628 72.0895 54.5655C72.7568 55.0638 73.214 55.7745 73.461 56.6975L72.083 56.9445C71.888 56.3725 71.576 55.924 71.147 55.599C70.718 55.2697 70.1893 55.1028 69.561 55.0985C68.911 55.0942 68.3628 55.2393 67.9165 55.534C67.4745 55.8287 67.1408 56.2468 66.9155 56.7885C66.6945 57.3258 66.5818 57.9563 66.5775 58.68C66.5732 59.408 66.6837 60.0407 66.909 60.578C67.1387 61.1153 67.4788 61.5313 67.9295 61.826C68.3845 62.1163 68.9435 62.2615 69.6065 62.2615C70.3908 62.2615 71.0083 62.034 71.459 61.579C71.914 61.1197 72.1892 60.4567 72.2845 59.59H70.4645V58.498H73.7275C73.7448 58.641 73.7535 58.8252 73.7535 59.0505C73.7535 59.9258 73.5845 60.7037 73.2465 61.384C72.9128 62.0643 72.4232 62.5973 71.7775 62.983C71.1362 63.3643 70.3713 63.555 69.483 63.555Z" fill="black"/>
<path d="M74.789 54H76.1475V63.36H74.789V54Z" fill="black"/>
<path d="M77.7095 54H83.6895V55.2805H79.068V57.9065H82.9095V59.187H79.068V62.0795H83.6895V63.36H77.7095V54Z" fill="black"/>
<path d="M88.0757 63.555C87.4041 63.555 86.7974 63.4402 86.2557 63.2105C85.7141 62.9765 85.2677 62.6428 84.9167 62.2095C84.5701 61.7718 84.3469 61.2605 84.2472 60.6755L85.6642 60.461C85.7596 60.838 85.9242 61.163 86.1582 61.436C86.3966 61.709 86.6869 61.917 87.0292 62.06C87.3716 62.203 87.7464 62.2745 88.1537 62.2745C88.5307 62.2745 88.8796 62.2138 89.2002 62.0925C89.5209 61.9712 89.7744 61.7978 89.9607 61.5725C90.1514 61.3472 90.2467 61.0828 90.2467 60.7795C90.2467 60.4588 90.1427 60.2032 89.9347 60.0125C89.7311 59.8175 89.4429 59.6637 89.0702 59.551L86.6717 58.8425C86.0781 58.6692 85.5862 58.4048 85.1962 58.0495C84.8062 57.6942 84.6112 57.1763 84.6112 56.496C84.6112 55.9327 84.7564 55.4495 85.0467 55.0465C85.3414 54.6392 85.7422 54.3315 86.2492 54.1235C86.7562 53.9112 87.3282 53.8072 87.9652 53.8115C88.5936 53.8158 89.1591 53.9285 89.6617 54.1495C90.1644 54.3662 90.5804 54.6803 90.9097 55.092C91.2434 55.4993 91.4731 55.9868 91.5987 56.5545L90.1427 56.8015C90.0734 56.4505 89.9304 56.1472 89.7137 55.8915C89.5014 55.6315 89.2371 55.4343 88.9207 55.3C88.6044 55.1657 88.2621 55.0985 87.8937 55.0985C87.5557 55.0985 87.2459 55.1548 86.9642 55.2675C86.6826 55.3802 86.4594 55.5383 86.2947 55.742C86.1301 55.9457 86.0477 56.1753 86.0477 56.431C86.0477 56.7777 86.1799 57.042 86.4442 57.224C86.7129 57.4017 87.0661 57.5512 87.5037 57.6725L89.2327 58.16C89.6574 58.277 90.0366 58.4157 90.3702 58.576C90.7082 58.7363 91.0072 58.9898 91.2672 59.3365C91.5316 59.6788 91.6637 60.1295 91.6637 60.6885C91.6637 61.2952 91.5012 61.8152 91.1762 62.2485C90.8556 62.6775 90.4222 63.0025 89.8762 63.2235C89.3346 63.4445 88.7344 63.555 88.0757 63.555Z" fill="black"/>
<defs>
<filter id="filter0_b_335_8552" x="-5.21927" y="-5.21927" width="110.439" height="110.439" filterUnits="userSpaceOnUse" color-interpolation-filters="sRGB">
<feFlood flood-opacity="0" result="BackgroundImageFix"/>
<feGaussianBlur in="BackgroundImageFix" stdDeviation="3.10963"/>
<feComposite in2="SourceAlpha" operator="in" result="effect1_backgroundBlur_335_8552"/>
<feBlend mode="normal" in="SourceGraphic" in2="effect1_backgroundBlur_335_8552" result="shape"/>
</filter>
</defs>
</svg>
