<svg width="100" height="100" viewBox="0 0 100 100" fill="none" xmlns="http://www.w3.org/2000/svg">
<g filter="url(#filter0_b_335_8340)">
<rect x="1" y="1" width="98" height="98" rx="10" fill="#FF0000"/>
</g>
<path d="M45.2705 45.273C46.4625 45.273 47.5025 45.569 48.3905 46.161C49.2865 46.745 49.9745 47.557 50.4545 48.597C50.9425 49.629 51.1865 50.797 51.1865 52.101C51.1865 53.397 50.9465 54.565 50.4665 55.605C49.9865 56.645 49.3025 57.465 48.4145 58.065C47.5265 58.657 46.4945 58.953 45.3185 58.953C43.8945 58.953 42.7025 58.529 41.7425 57.681V64.353H39.2225L39.2225 45.633H41.4545V46.797C41.9265 46.309 42.4825 45.933 43.1225 45.669C43.7625 45.405 44.4785 45.273 45.2705 45.273ZM44.9705 56.685C45.7465 56.685 46.3985 56.485 46.9265 56.085C47.4625 55.685 47.8625 55.141 48.1265 54.453C48.3905 53.765 48.5225 52.981 48.5225 52.101C48.5225 51.229 48.3905 50.449 48.1265 49.761C47.8625 49.073 47.4585 48.533 46.9145 48.141C46.3705 47.741 45.6945 47.541 44.8865 47.541C43.7425 47.541 42.8825 47.953 42.3065 48.777C41.7385 49.593 41.4545 50.701 41.4545 52.101C41.4545 53.517 41.7425 54.637 42.3185 55.461C42.9025 56.277 43.7865 56.685 44.9705 56.685Z" fill="white"/>
<path d="M56.68 53.373V54.057C56.68 54.465 56.696 54.797 56.728 55.053C56.76 55.301 56.832 55.517 56.944 55.701C57.136 56.021 57.404 56.253 57.748 56.397C58.1 56.533 58.528 56.601 59.032 56.601C59.464 56.601 59.964 56.557 60.532 56.469V58.593C59.788 58.737 59.104 58.809 58.48 58.809C57.584 58.809 56.8 58.665 56.128 58.377C55.464 58.089 54.968 57.637 54.64 57.021C54.44 56.645 54.308 56.261 54.244 55.869C54.188 55.469 54.16 54.985 54.16 54.417V53.493V47.649H51.676V45.633H54.16V42.033H56.68V45.633H60.532V47.649H56.68V53.373Z" fill="white"/>
<defs>
<filter id="filter0_b_335_8340" x="-5.21927" y="-5.21927" width="110.439" height="110.439" filterUnits="userSpaceOnUse" color-interpolation-filters="sRGB">
<feFlood flood-opacity="0" result="BackgroundImageFix"/>
<feGaussianBlur in="BackgroundImageFix" stdDeviation="3.10963"/>
<feComposite in2="SourceAlpha" operator="in" result="effect1_backgroundBlur_335_8340"/>
<feBlend mode="normal" in="SourceGraphic" in2="effect1_backgroundBlur_335_8340" result="shape"/>
</filter>
</defs>
</svg>
