<svg width="54" height="55" viewBox="0 0 54 55" fill="none" xmlns="http://www.w3.org/2000/svg">
<g filter="url(#filter0_d_179_2841)">
<g filter="url(#filter1_b_179_2841)">
<rect x="1" y="1" width="52" height="52" rx="26" fill="url(#paint0_linear_179_2841)"/>
<rect x="0.5" y="0.5" width="53" height="53" rx="26.5" stroke="#D2D2D2" stroke-opacity="0.42"/>
<rect x="0.5" y="0.5" width="53" height="53" rx="26.5" stroke="url(#paint1_radial_179_2841)" stroke-opacity="0.6"/>
</g>
<path fill-rule="evenodd" clip-rule="evenodd" d="M22.6382 18.0076C21.0153 18.7922 19.8624 20.4078 19.5811 22.1825C19.3276 23.8739 19.5478 25.6985 20.4508 27.179C21.2355 28.43 22.4106 29.3553 23.5691 30.2399C22.0553 32.4994 20.5156 34.7404 19 36.9981C20.2824 36.9981 21.5667 36.9963 22.851 36.9981C24.4684 34.5036 26.0692 31.9998 27.6755 29.4996C26.9334 28.9685 26.195 28.43 25.4363 27.9248C24.2316 27.0902 23.1508 25.8947 22.9491 24.3902C22.703 23.0319 22.9066 21.4404 24.0595 20.5373C25.4363 19.5047 27.2443 19.6435 28.8691 19.6509C28.8802 25.4339 28.8562 31.217 28.8802 37C30.0035 36.9944 31.1268 36.9981 32.2501 36.9963C32.2538 30.3324 32.252 23.6685 32.2501 17.0046C30.5439 17.0027 28.8376 16.9935 27.1333 17.0083C25.5954 17.0656 24.0021 17.2359 22.6382 18.0057V18.0076Z" fill="#FCFDFD"/>
</g>
<defs>
<filter id="filter0_d_179_2841" x="0" y="0" width="54" height="55" filterUnits="userSpaceOnUse" color-interpolation-filters="sRGB">
<feFlood flood-opacity="0" result="BackgroundImageFix"/>
<feColorMatrix in="SourceAlpha" type="matrix" values="0 0 0 0 0 0 0 0 0 0 0 0 0 0 0 0 0 0 127 0" result="hardAlpha"/>
<feOffset dy="1"/>
<feComposite in2="hardAlpha" operator="out"/>
<feColorMatrix type="matrix" values="0 0 0 0 0 0 0 0 0 0 0 0 0 0 0 0 0 0 0.25 0"/>
<feBlend mode="normal" in2="BackgroundImageFix" result="effect1_dropShadow_179_2841"/>
<feBlend mode="normal" in="SourceGraphic" in2="effect1_dropShadow_179_2841" result="shape"/>
</filter>
<filter id="filter1_b_179_2841" x="-6.21927" y="-6.21927" width="66.4385" height="66.4385" filterUnits="userSpaceOnUse" color-interpolation-filters="sRGB">
<feFlood flood-opacity="0" result="BackgroundImageFix"/>
<feGaussianBlur in="BackgroundImageFix" stdDeviation="3.10963"/>
<feComposite in2="SourceAlpha" operator="in" result="effect1_backgroundBlur_179_2841"/>
<feBlend mode="normal" in="SourceGraphic" in2="effect1_backgroundBlur_179_2841" result="shape"/>
</filter>
<linearGradient id="paint0_linear_179_2841" x1="11.4096" y1="9.25384" x2="40.5748" y2="60.9853" gradientUnits="userSpaceOnUse">
<stop stop-color="white" stop-opacity="0.45"/>
<stop offset="1" stop-color="white" stop-opacity="0"/>
<stop offset="1" stop-color="white" stop-opacity="0"/>
</linearGradient>
<radialGradient id="paint1_radial_179_2841" cx="0" cy="0" r="1" gradientUnits="userSpaceOnUse" gradientTransform="translate(34.9665 30.0432) rotate(-32.5165) scale(71.9983 65.4236)">
<stop stop-color="white"/>
<stop offset="1" stop-color="white" stop-opacity="0"/>
</radialGradient>
</defs>
</svg>
