<svg width="54" height="55" viewBox="0 0 54 55" fill="none" xmlns="http://www.w3.org/2000/svg">
<g filter="url(#filter0_d_179_2835)">
<g filter="url(#filter1_b_179_2835)">
<rect x="1" y="1" width="52" height="52" rx="26" fill="url(#paint0_linear_179_2835)"/>
<rect x="0.5" y="0.5" width="53" height="53" rx="26.5" stroke="#D2D2D2" stroke-opacity="0.42"/>
<rect x="0.5" y="0.5" width="53" height="53" rx="26.5" stroke="url(#paint1_radial_179_2835)" stroke-opacity="0.6"/>
</g>
<path d="M22 37H32M27 37V29.8571M27 29.8571C30.1559 29.8571 32.7143 27.2988 32.7143 24.1429V18.4286C32.7143 17.6396 32.0747 17 31.2857 17H22.7143C21.9253 17 21.2857 17.6396 21.2857 18.4286V24.1429C21.2857 27.2988 23.8441 29.8571 27 29.8571ZM21.2857 19.8571H19.8571C18.2792 19.8571 17 21.1363 17 22.7143C17 24.2922 18.2792 25.5714 19.8571 25.5714H21.2857M32.7143 19.8571H34.1429C35.7208 19.8571 37 21.1363 37 22.7143C37 24.2922 35.7208 25.5714 34.1429 25.5714H32.7143" stroke="#070B13" stroke-width="2"/>
</g>
<defs>
<filter id="filter0_d_179_2835" x="0" y="0" width="54" height="55" filterUnits="userSpaceOnUse" color-interpolation-filters="sRGB">
<feFlood flood-opacity="0" result="BackgroundImageFix"/>
<feColorMatrix in="SourceAlpha" type="matrix" values="0 0 0 0 0 0 0 0 0 0 0 0 0 0 0 0 0 0 127 0" result="hardAlpha"/>
<feOffset dy="1"/>
<feComposite in2="hardAlpha" operator="out"/>
<feColorMatrix type="matrix" values="0 0 0 0 0 0 0 0 0 0 0 0 0 0 0 0 0 0 0.25 0"/>
<feBlend mode="normal" in2="BackgroundImageFix" result="effect1_dropShadow_179_2835"/>
<feBlend mode="normal" in="SourceGraphic" in2="effect1_dropShadow_179_2835" result="shape"/>
</filter>
<filter id="filter1_b_179_2835" x="-6.21927" y="-6.21927" width="66.4385" height="66.4385" filterUnits="userSpaceOnUse" color-interpolation-filters="sRGB">
<feFlood flood-opacity="0" result="BackgroundImageFix"/>
<feGaussianBlur in="BackgroundImageFix" stdDeviation="3.10963"/>
<feComposite in2="SourceAlpha" operator="in" result="effect1_backgroundBlur_179_2835"/>
<feBlend mode="normal" in="SourceGraphic" in2="effect1_backgroundBlur_179_2835" result="shape"/>
</filter>
<linearGradient id="paint0_linear_179_2835" x1="11.4096" y1="9.25384" x2="40.5748" y2="60.9853" gradientUnits="userSpaceOnUse">
<stop stop-color="white" stop-opacity="0.45"/>
<stop offset="1" stop-color="white" stop-opacity="0"/>
<stop offset="1" stop-color="white" stop-opacity="0"/>
</linearGradient>
<radialGradient id="paint1_radial_179_2835" cx="0" cy="0" r="1" gradientUnits="userSpaceOnUse" gradientTransform="translate(34.9665 30.0432) rotate(-32.5165) scale(71.9983 65.4236)">
<stop stop-color="white"/>
<stop offset="1" stop-color="white" stop-opacity="0"/>
</radialGradient>
</defs>
</svg>
