<svg width="1820" height="527" viewBox="0 0 1820 527" fill="none" xmlns="http://www.w3.org/2000/svg">
<path d="M1644.19 145.748C1633.86 101.301 1594.71 14.0215 1519.74 19.2225C1426.19 25.8445 1390.4 183.328 1306.1 184.938C1220.91 186.561 1232.59 119.282 1146.4 108.638C1060.21 97.9955 1021.28 156.439 962.859 163.716C905.659 171.1 875.819 102.616 789.189 92.9255C702.556 83.2345 669.781 252.417 624.189 249.001C577.761 245.629 462.175 77.9125 373.246 75.3465C302.103 73.2935 242.417 201.427 221.467 265.75" stroke="#6616B1" stroke-width="1.07316"/>
<path d="M1646.15 150.317C1635.62 106.034 1596.38 19.2597 1521.71 23.9107C1428.69 29.9637 1392.66 185.093 1308.81 186.692C1223.22 188.319 1234.29 124.07 1147.84 113.664C1061.39 103.258 1020.95 155.16 960.769 162.132C903.039 169.316 873.249 102.964 787.469 94.7057C701.687 86.4477 669.191 254.867 623.323 251.538C575.785 248.296 459.384 78.5057 370.196 75.7197C298.846 73.4897 239.635 201.816 218.948 266.257" stroke="#6816B0" stroke-width="1.09694"/>
<path d="M1648.11 154.884C1637.37 110.766 1598.05 24.4967 1523.69 28.5967C1431.2 34.0817 1394.91 186.857 1311.53 188.445C1225.53 190.074 1235.98 128.856 1149.28 118.688C1062.57 108.52 1020.62 153.88 958.679 160.546C900.429 167.53 870.679 103.309 785.749 96.4847C700.819 89.6607 668.601 257.315 622.457 254.073C573.808 250.961 456.592 79.0977 367.146 76.0907C295.589 73.6857 236.853 202.202 216.429 266.761" stroke="#6917AE" stroke-width="1.12071"/>
<path d="M1650.07 159.453C1639.13 115.499 1599.73 29.7346 1525.66 33.2836C1433.7 38.2006 1397.16 188.622 1314.24 190.199C1227.83 191.831 1237.68 133.644 1150.71 123.713C1063.75 113.782 1020.29 152.602 956.599 158.962C897.809 165.747 868.099 103.656 784.029 98.2645C699.95 92.8735 668.011 259.764 621.591 256.609C571.832 253.628 453.801 79.6906 364.096 76.4636C292.331 73.8816 234.071 202.59 213.911 267.267" stroke="#6B17AC" stroke-width="1.14449"/>
<path d="M1652.03 164.02C1640.89 120.23 1601.4 34.9716 1527.63 37.9696C1436.21 42.3176 1399.41 190.386 1316.96 191.952C1230.14 193.586 1239.37 138.43 1152.15 128.737C1064.94 119.043 1019.97 151.322 954.509 157.376C895.199 163.961 865.529 104.001 782.309 100.044C699.082 96.0856 667.421 262.212 620.726 259.143C569.856 256.293 451.01 80.2826 361.046 76.8346C289.075 74.0766 231.289 202.977 211.393 267.771" stroke="#6D18AB" stroke-width="1.16827"/>
<path d="M1653.99 168.588C1642.64 124.963 1603.07 40.2096 1529.61 42.6576C1438.72 46.4376 1401.66 192.151 1319.68 193.706C1232.45 195.343 1241.06 143.218 1153.59 133.762C1066.12 124.306 1019.64 150.044 952.419 155.792C892.579 162.178 862.959 104.348 780.589 101.824C698.213 99.2996 666.831 264.661 619.86 261.68C567.879 258.96 448.219 80.8767 357.996 77.2077C285.818 74.2727 228.507 203.365 208.874 268.277" stroke="#6E18A9" stroke-width="1.19204"/>
<path d="M1655.95 173.156C1644.4 129.695 1604.75 45.4465 1531.58 47.3445C1441.22 50.5555 1403.92 193.915 1322.39 195.459C1234.76 197.098 1242.76 148.004 1155.03 138.785C1067.3 129.566 1019.31 148.764 950.339 154.207C889.969 160.393 860.389 104.693 778.869 103.603C697.345 102.513 666.241 267.109 618.995 264.215C565.903 261.626 445.428 81.4685 354.946 77.5795C282.561 74.4675 225.725 203.751 206.355 268.782" stroke="#7019A8" stroke-width="1.21582"/>
<path d="M1657.91 177.724C1646.15 134.428 1606.42 50.6847 1533.55 52.0317C1443.73 54.6747 1406.17 195.68 1325.11 197.213C1237.06 198.855 1244.45 152.792 1156.47 143.811C1068.48 134.829 1018.98 147.485 948.249 152.623C887.349 158.609 857.809 105.04 777.149 105.383C696.477 105.726 665.652 269.558 618.13 266.751C563.927 264.292 442.637 82.0617 351.897 77.9517C279.305 74.6647 222.944 204.139 203.838 269.288" stroke="#7119A6" stroke-width="1.2396"/>
<path d="M1659.87 182.293C1647.91 139.161 1608.09 55.9225 1535.53 56.7195C1446.24 58.7935 1408.42 197.445 1327.83 198.967C1239.37 200.611 1246.15 157.58 1157.91 148.836C1069.67 140.092 1018.65 146.207 946.169 151.039C884.739 156.825 855.239 105.386 775.419 107.163C695.608 108.94 665.062 272.007 617.264 269.286C561.951 266.959 439.846 82.6545 348.847 78.3245C276.048 74.8605 220.162 204.527 201.319 269.793" stroke="#731AA4" stroke-width="1.26337"/>
<path d="M1661.83 186.862C1649.67 143.894 1609.76 61.1615 1537.5 61.4065C1448.74 62.9125 1410.67 199.21 1330.54 200.721C1241.68 202.368 1247.84 162.368 1159.35 153.861C1070.85 145.354 1018.32 144.928 944.079 149.455C882.119 155.041 852.669 105.733 773.699 108.943C694.74 112.154 664.472 274.456 616.399 271.823C559.975 269.626 437.055 83.2476 345.798 78.6976C272.791 75.0566 217.38 204.915 198.801 270.299" stroke="#751AA3" stroke-width="1.28715"/>
<path d="M1663.78 191.43C1651.42 148.626 1611.44 66.3997 1539.47 66.0947C1451.25 67.0317 1412.93 200.975 1333.26 202.475C1243.98 204.125 1249.54 167.155 1160.78 158.886C1072.03 150.617 1017.99 143.65 941.989 147.87C879.509 153.257 850.099 106.08 771.979 110.723C693.872 115.367 663.882 276.905 615.533 274.359C557.998 272.292 434.264 83.8418 342.747 79.0698C269.534 75.2528 214.598 205.303 196.282 270.805" stroke="#761BA1" stroke-width="1.31093"/>
<path d="M1665.74 195.999C1653.18 153.36 1613.11 71.6377 1541.45 70.7827C1453.75 71.1517 1415.18 202.741 1335.98 204.23C1246.29 205.882 1251.23 171.943 1162.22 163.911C1073.21 155.879 1017.67 142.372 939.909 146.286C876.889 151.474 847.519 106.427 770.259 112.504C693.004 118.581 663.293 279.355 614.668 276.895C556.023 274.959 431.473 84.4347 339.698 79.4427C266.278 75.4497 211.817 205.691 193.764 271.311" stroke="#781BA0" stroke-width="1.3347"/>
<path d="M1667.7 200.568C1654.93 158.093 1614.78 76.8767 1543.42 75.4707C1456.26 75.2707 1417.43 204.506 1338.69 205.985C1248.6 207.639 1252.93 176.732 1163.66 168.937C1074.4 161.143 1017.34 141.094 937.819 144.703C874.279 149.69 844.949 106.774 768.539 114.285C692.135 121.796 662.703 281.805 613.803 279.432C554.046 277.627 428.682 85.0286 336.648 79.8166C263.021 75.6466 209.035 206.08 191.246 271.817" stroke="#7A1C9E" stroke-width="1.35848"/>
<path d="M1669.66 205.137C1656.69 162.826 1616.46 82.1145 1545.39 80.1575C1458.77 79.3905 1419.68 206.271 1341.41 207.739C1250.91 209.396 1254.62 181.519 1165.1 173.962C1075.58 166.405 1017.01 139.816 935.739 143.119C871.659 147.907 842.379 107.121 766.819 116.065C691.268 125.009 662.114 284.254 612.938 281.968C552.071 280.293 425.892 85.6216 333.6 80.1896C259.765 75.8426 206.255 206.468 188.728 272.323" stroke="#7B1C9C" stroke-width="1.38226"/>
<path d="M1671.62 209.705C1658.45 167.559 1618.13 87.3536 1547.37 84.8456C1461.27 83.5096 1421.94 208.037 1344.13 209.493C1253.21 211.152 1256.32 186.307 1166.54 178.987C1076.76 171.668 1016.68 138.537 933.649 141.535C869.049 146.123 839.809 107.467 765.103 117.845C690.4 128.223 661.525 286.703 612.073 284.504C550.095 282.96 423.102 86.2155 330.55 80.5615C256.509 76.0395 203.473 206.856 186.211 272.829" stroke="#7D1D9B" stroke-width="1.40604"/>
<path d="M1673.58 214.275C1660.2 172.294 1619.8 92.5926 1549.34 89.5346C1463.78 87.6296 1424.19 209.803 1346.84 211.248C1255.52 212.91 1258.01 191.096 1167.98 184.014C1077.94 176.931 1016.35 137.26 931.559 139.952C866.429 144.34 837.229 107.815 763.383 119.627C689.532 131.438 660.935 289.154 611.208 287.041C548.119 285.628 420.311 86.8106 327.5 80.9356C253.252 76.2366 200.691 207.245 183.692 273.336" stroke="#7E1D99" stroke-width="1.42981"/>
<path d="M1675.54 218.845C1661.96 177.028 1621.48 97.8316 1551.32 94.2226C1466.29 91.7506 1426.44 211.569 1349.56 213.003C1257.83 214.668 1259.71 195.885 1169.42 189.04C1079.13 182.195 1016.03 135.983 929.479 138.369C863.819 142.558 834.659 108.163 761.663 121.408C688.665 134.653 660.346 291.604 610.343 289.579C546.144 288.296 417.521 87.4047 324.452 81.3097C249.997 76.4347 197.911 207.634 181.175 273.843" stroke="#801E98" stroke-width="1.45359"/>
<path d="M1677.5 223.414C1663.72 181.761 1623.15 103.071 1553.29 98.9106C1468.79 95.8696 1428.7 213.334 1352.28 214.758C1260.14 216.425 1261.41 200.673 1170.86 194.065C1080.31 187.457 1015.7 134.704 927.389 136.785C861.199 140.774 832.089 108.51 759.943 123.188C687.797 137.867 659.757 294.053 609.479 292.115C544.169 290.963 414.73 87.9976 321.403 81.6826C246.74 76.6306 195.13 208.022 178.657 274.349" stroke="#821E96" stroke-width="1.47737"/>
<path d="M1679.46 227.984C1665.47 186.495 1624.82 108.311 1555.26 103.6C1471.3 99.9906 1430.95 215.101 1355 216.514C1262.44 218.183 1263.1 205.462 1172.3 199.092C1081.49 192.722 1015.37 133.428 925.309 135.202C858.589 138.992 829.519 108.858 758.223 124.97C686.929 141.082 659.167 296.504 608.613 294.653C542.192 293.631 411.94 88.5926 318.353 82.0576C243.484 76.8286 192.348 208.412 176.139 274.857" stroke="#831F94" stroke-width="1.50114"/>
<path d="M1681.42 232.553C1667.23 191.229 1626.5 113.549 1557.24 108.288C1473.81 104.11 1433.2 216.867 1357.71 218.268C1264.75 219.94 1264.8 210.25 1173.74 204.117C1082.68 197.984 1015.04 132.149 923.219 133.618C855.969 137.208 826.949 109.205 756.503 126.751C686.061 144.296 658.577 298.954 607.748 297.189C540.216 296.298 409.149 89.1866 315.303 82.4306C240.227 77.0256 189.566 208.8 173.621 275.363" stroke="#851F93" stroke-width="1.52492"/>
<path d="M1683.38 237.123C1668.99 195.963 1628.17 118.789 1559.21 112.977C1476.31 108.231 1435.46 218.633 1360.43 220.024C1267.06 221.698 1266.49 215.039 1175.18 209.144C1083.86 203.248 1014.71 130.872 921.139 132.036C853.359 135.426 824.369 109.553 754.784 128.532C685.194 147.511 657.989 301.404 606.884 299.727C538.242 298.966 406.359 89.7817 312.255 82.8047C236.972 77.2227 186.786 209.189 171.104 275.87" stroke="#872091" stroke-width="1.5487"/>
<path d="M1685.34 241.694C1670.74 200.698 1629.85 124.029 1561.19 117.667C1478.82 112.352 1437.71 220.4 1363.15 221.78C1269.37 223.457 1268.19 219.829 1176.61 214.171C1085.04 208.513 1014.39 129.596 919.049 130.454C850.749 133.644 821.799 109.902 753.064 130.315C684.326 150.727 657.4 303.856 606.019 302.265C536.266 301.635 403.569 90.3768 309.206 83.1798C233.715 77.4218 184.005 209.579 168.586 276.378" stroke="#882090" stroke-width="1.57247"/>
<path d="M1687.3 246.262C1672.5 205.431 1631.52 129.267 1563.16 122.355C1481.33 116.471 1439.96 222.165 1365.86 223.534C1271.68 225.214 1269.88 224.617 1178.05 219.196C1086.23 213.775 1014.06 128.318 916.969 128.869C848.129 131.86 819.229 110.25 751.344 132.096C683.458 153.942 656.81 306.305 605.154 304.801C534.29 304.302 400.778 90.9705 306.156 83.5535C230.459 77.6185 181.223 209.968 166.068 276.885" stroke="#8A218E" stroke-width="1.59625"/>
<path d="M1689.26 250.834C1674.26 210.167 1633.19 134.509 1565.14 127.045C1483.83 120.593 1442.22 223.933 1368.58 225.291C1273.98 226.973 1271.58 229.407 1179.49 224.224C1087.41 219.041 1013.73 127.042 914.879 127.288C845.519 130.079 816.659 110.598 749.625 133.878C682.591 157.157 656.222 308.757 604.29 307.34C532.316 306.971 397.989 91.5656 303.108 83.9276C227.204 77.8166 178.444 210.358 163.551 277.392" stroke="#8B218C" stroke-width="1.62003"/>
<path d="M1691.22 255.404C1676.01 214.901 1634.87 139.748 1567.11 131.734C1486.34 124.714 1444.47 225.7 1371.3 227.046C1276.29 228.731 1273.27 234.196 1180.93 229.25C1088.59 224.305 1013.4 125.765 912.799 125.705C842.899 128.297 814.089 110.947 747.905 135.659C681.723 160.372 655.632 311.207 603.425 309.877C530.34 309.64 395.198 92.1606 300.059 84.3016C223.947 78.0146 175.662 210.747 161.033 277.899" stroke="#8D228B" stroke-width="1.6438"/>
<path d="M1693.18 259.975C1677.77 219.636 1636.54 144.988 1569.08 136.424C1488.85 128.835 1446.72 227.467 1374.02 228.802C1278.6 230.49 1274.97 238.986 1182.37 234.278C1089.77 229.569 1013.08 124.489 910.709 124.123C840.289 126.515 811.519 111.295 746.185 137.442C680.855 163.588 655.043 313.658 602.56 312.415C528.364 312.308 392.407 92.7557 297.01 84.6767C220.691 78.2127 172.881 211.137 158.515 278.407" stroke="#8F2289" stroke-width="1.66758"/>
<path d="M1695.14 264.545C1679.53 224.371 1638.21 150.228 1571.06 141.113C1491.35 132.956 1448.97 229.234 1376.73 230.558C1280.91 232.248 1276.66 243.776 1183.81 239.304C1090.96 234.833 1012.75 123.212 908.619 122.541C837.669 124.733 808.939 111.644 744.465 139.224C679.988 166.804 654.454 316.109 601.695 314.953C526.388 314.977 389.617 93.3517 293.96 85.0517C217.435 78.4117 170.099 211.527 155.997 278.915" stroke="#902388" stroke-width="1.69136"/>
<path d="M1697.1 269.116C1681.28 229.106 1639.89 155.469 1573.03 145.803C1493.86 137.078 1451.23 231.001 1379.45 232.315C1283.21 234.008 1278.36 248.566 1185.25 244.332C1092.14 240.098 1012.42 121.936 906.539 120.959C835.059 122.952 806.369 111.993 742.745 141.006C679.12 170.02 653.865 318.561 600.83 317.492C524.413 317.646 386.826 93.9466 290.911 85.4266C214.179 78.6096 167.318 211.917 153.479 279.423" stroke="#922386" stroke-width="1.71513"/>
<path d="M1699.06 273.687C1683.04 233.842 1641.56 160.71 1575 150.493C1496.37 141.199 1453.48 232.769 1382.17 234.071C1285.52 235.766 1280.06 253.356 1186.69 249.359C1093.32 245.363 1012.09 120.66 904.449 119.377C832.449 121.17 803.799 112.342 741.026 142.789C678.253 173.236 653.276 321.012 599.966 320.03C522.438 320.315 384.037 94.5427 287.862 85.8017C210.923 78.8087 164.538 212.307 150.962 279.931" stroke="#942484" stroke-width="1.73891"/>
<path d="M1701.02 278.258C1684.8 238.577 1643.24 165.95 1576.98 155.183C1498.87 145.32 1455.73 234.536 1384.89 235.828C1287.83 237.525 1281.75 258.146 1188.13 254.387C1094.51 250.628 1011.76 119.383 902.369 117.795C829.829 119.389 801.229 112.691 739.306 144.571C677.385 176.452 652.687 323.464 599.101 322.569C520.462 322.984 381.246 95.1376 284.813 86.1766C207.667 79.0066 161.757 212.698 148.445 280.439" stroke="#952483" stroke-width="1.76269"/>
<path d="M1702.98 282.829C1686.55 243.312 1644.91 171.191 1578.95 159.873C1501.38 149.442 1457.99 236.304 1387.6 237.584C1290.14 239.285 1283.45 262.936 1189.57 259.414C1095.69 255.893 1011.44 118.108 900.279 116.214C827.219 117.607 798.649 113.04 737.585 146.354C676.516 179.668 652.097 325.916 598.235 325.107C518.485 325.653 378.455 95.7336 281.763 86.5516C204.41 79.2056 158.974 213.088 145.926 280.948" stroke="#972581" stroke-width="1.78647"/>
<path d="M1704.94 287.4C1688.31 248.048 1646.58 176.431 1580.93 164.563C1503.89 153.564 1460.24 238.071 1390.32 239.341C1292.45 241.044 1285.14 267.726 1191.01 264.442C1096.87 261.158 1011.11 116.832 898.199 114.632C824.599 115.826 796.079 113.389 735.866 148.136C675.65 182.884 651.509 328.367 597.371 327.646C516.511 328.322 375.666 96.3298 278.715 86.9268C201.155 79.4048 156.194 213.479 143.409 281.456" stroke="#992580" stroke-width="1.81024"/>
<path d="M1706.9 291.971C1690.06 252.783 1648.26 181.672 1582.9 169.253C1506.39 157.685 1462.49 239.839 1393.04 241.097C1294.75 242.803 1286.84 272.516 1192.45 269.469C1098.06 266.422 1010.78 115.556 896.109 113.05C821.989 114.044 793.509 113.738 734.146 149.919C674.781 186.1 650.919 330.819 596.506 330.184C514.535 330.991 372.875 96.9257 275.665 87.3017C197.898 79.6037 153.413 213.869 140.891 281.964" stroke="#9A267E" stroke-width="1.83402"/>
<path d="M1708.86 296.542C1691.82 257.519 1649.93 186.913 1584.87 173.943C1508.9 161.807 1464.74 241.606 1395.75 242.854C1297.06 244.562 1288.53 277.306 1193.88 274.497C1099.24 271.688 1010.45 114.28 894.029 111.469C819.369 112.263 790.939 114.087 732.426 151.702C673.913 189.317 650.329 333.271 595.641 332.723C512.559 333.661 370.084 97.5215 272.616 87.6775C194.642 79.8025 150.631 214.26 138.373 282.472" stroke="#9C267D" stroke-width="1.8578"/>
<path d="M1710.82 301.114C1693.58 262.255 1651.6 192.154 1586.85 178.634C1511.41 165.93 1467 243.375 1398.47 244.611C1299.37 246.322 1290.23 282.097 1195.32 279.525C1100.42 276.953 1010.13 113.005 891.939 109.888C816.759 110.483 788.369 114.437 730.706 153.485C673.046 192.533 649.74 335.723 594.776 335.262C510.584 336.331 367.294 98.1176 269.567 88.0536C191.386 80.0016 147.85 214.651 135.855 282.981" stroke="#9D277B" stroke-width="1.88157"/>
<path d="M1712.78 305.686C1695.33 266.99 1653.28 197.395 1588.82 183.324C1513.91 170.052 1469.25 245.143 1401.19 246.368C1301.68 248.081 1291.92 286.888 1196.76 284.553C1101.6 282.219 1009.8 111.729 889.849 108.307C814.139 108.702 785.799 114.787 728.986 155.268C672.178 195.75 649.151 338.175 593.911 337.801C508.608 339 364.503 98.7136 266.517 88.4286C188.129 80.2006 145.069 215.041 133.337 283.49" stroke="#9F2779" stroke-width="1.90535"/>
<path d="M1714.74 310.256C1697.09 271.726 1654.95 202.636 1590.8 188.014C1516.42 174.173 1471.5 246.911 1403.91 248.126C1303.98 249.841 1293.62 291.678 1198.2 289.581C1102.79 287.483 1009.47 110.453 887.769 106.725C811.529 106.92 783.219 115.137 727.266 157.052C671.31 198.967 648.562 340.627 593.046 340.341C506.632 341.67 361.713 99.3105 263.468 88.8055C184.873 80.4005 142.288 215.432 130.82 283.998" stroke="#A12878" stroke-width="1.92913"/>
<path d="M1716.7 314.829C1698.85 276.462 1656.62 207.879 1592.77 192.706C1518.93 178.297 1473.76 248.68 1406.62 249.883C1306.29 251.602 1295.31 296.47 1199.64 294.61C1103.97 292.75 1009.14 109.179 885.679 105.145C808.909 105.141 780.649 115.487 725.546 158.836C670.442 202.184 647.972 343.08 592.181 342.88C504.656 344.34 358.922 99.9076 260.419 89.1816C181.616 80.6006 139.506 215.824 128.301 284.508" stroke="#A22876" stroke-width="1.9529"/>
<path d="M1718.66 319.401C1700.6 281.199 1658.3 213.12 1594.74 197.397C1521.43 182.419 1476.01 250.448 1409.34 251.641C1308.6 253.362 1297.01 301.261 1201.08 299.639C1105.15 298.016 1008.81 107.904 883.599 103.564C806.299 103.36 778.079 115.837 723.826 160.619C669.574 205.401 647.383 345.533 591.316 345.42C502.681 347.01 356.131 100.504 257.37 89.5576C178.36 80.8006 136.725 216.215 125.784 285.017" stroke="#A42975" stroke-width="1.97668"/>
<path d="M1720.62 323.974C1702.36 285.936 1659.97 218.362 1596.72 202.088C1523.94 186.542 1478.26 252.217 1412.06 253.399C1310.91 255.122 1298.7 306.053 1202.52 304.668C1106.33 303.282 1008.48 106.629 881.509 101.984C803.679 101.58 775.509 116.187 722.105 162.403C668.705 208.619 646.792 347.986 590.45 347.96C500.704 349.681 353.34 101.102 254.319 89.9337C175.103 81.0007 133.942 216.607 123.264 285.527" stroke="#A62973" stroke-width="2.00046"/>
<path d="M1722.58 328.546C1704.11 290.673 1661.64 223.604 1598.69 206.78C1526.45 190.665 1480.51 253.986 1414.77 255.157C1313.21 256.883 1300.4 310.844 1203.96 309.696C1107.52 308.549 1008.16 105.354 879.419 100.403C801.069 99.7996 772.929 116.538 720.384 164.187C667.837 211.836 646.202 350.439 589.584 350.5C498.727 352.351 350.549 101.699 251.269 90.3106C171.846 81.2006 131.161 216.999 120.746 286.037" stroke="#A72A71" stroke-width="2.02423"/>
<path d="M1724.54 333.119C1705.87 295.41 1663.31 228.847 1600.66 211.471C1528.95 194.789 1482.77 255.755 1417.49 256.915C1315.52 258.643 1302.09 315.636 1205.4 314.726C1108.7 313.815 1007.83 104.08 877.339 98.8226C798.449 98.0206 770.359 116.889 718.664 165.971C666.969 215.054 645.613 352.892 588.719 353.04C496.752 355.022 347.758 102.296 248.22 90.6875C168.59 81.4006 128.379 217.391 118.228 286.547" stroke="#A92A70" stroke-width="2.04801"/>
<path d="M1726.5 337.692C1707.63 300.147 1664.99 234.089 1602.64 216.163C1531.46 198.912 1485.02 257.524 1420.2 258.673C1317.83 260.404 1303.79 320.428 1206.83 319.755C1109.88 319.082 1007.5 102.806 875.249 97.2426C795.839 96.2406 767.789 117.24 716.943 167.756C666.1 218.272 645.022 355.345 587.853 355.58C494.775 357.693 344.966 102.894 245.17 91.0646C165.332 81.6016 125.597 217.783 115.709 287.057" stroke="#AA2B6E" stroke-width="2.07179"/>
<path d="M1728.45 342.264C1709.38 304.884 1666.66 239.331 1604.61 220.854C1533.96 203.034 1487.27 259.293 1422.92 260.431C1320.13 262.164 1305.48 325.219 1208.27 324.783C1111.06 324.348 1007.17 101.531 873.169 95.6626C793.219 94.4606 765.214 117.59 715.223 169.539C665.231 221.489 644.432 357.798 586.987 358.12C492.798 360.363 342.175 103.49 242.119 91.4406C162.075 81.8006 122.815 218.174 113.19 287.566" stroke="#AC2B6D" stroke-width="2.09556"/>
<path d="M1730.41 346.838C1711.14 309.622 1668.33 244.574 1606.58 225.547C1536.47 207.159 1489.52 261.063 1425.64 262.19C1322.44 263.926 1307.17 330.012 1209.71 329.814C1112.25 329.615 1006.84 100.257 871.079 94.0837C790.609 92.6817 762.641 117.941 713.502 171.325C664.363 224.708 643.842 360.252 586.122 360.661C490.822 363.035 339.384 104.089 239.069 91.8187C158.818 82.0027 120.033 218.567 110.672 288.077" stroke="#AE2C6B" stroke-width="2.11934"/>
<path d="M1732.37 351.41C1712.89 314.358 1670 249.816 1608.55 230.238C1538.97 211.282 1491.77 262.832 1428.35 263.948C1324.75 265.686 1308.87 334.803 1211.15 334.842C1113.43 334.882 1006.51 98.9826 868.989 92.5026C787.989 90.9016 760.068 118.292 711.781 173.109C663.493 227.925 643.252 362.705 585.256 363.201C488.845 365.705 336.592 104.686 236.019 92.1946C155.56 82.2026 117.25 218.959 108.153 288.586" stroke="#AF2C69" stroke-width="2.14312"/>
<path d="M1734.33 355.983C1714.65 319.096 1671.68 255.058 1610.53 234.93C1541.48 215.405 1494.03 264.601 1431.07 265.706C1327.05 267.447 1310.56 339.596 1212.59 339.872C1114.61 340.149 1006.18 97.7085 866.909 90.9235C785.369 89.1225 757.494 118.644 710.059 174.894C662.624 231.144 642.661 365.159 584.389 365.742C486.868 368.377 333.8 105.284 232.968 92.5725C152.303 82.4035 114.468 219.352 105.633 289.097" stroke="#B12D68" stroke-width="2.1669"/>
<path d="M1736.29 360.557C1716.4 323.834 1673.35 260.302 1612.5 239.623C1543.98 219.53 1496.28 266.372 1433.78 267.466C1329.36 269.21 1312.26 344.388 1214.02 344.902C1115.79 345.416 1005.85 96.4356 864.819 89.3446C782.759 87.3436 754.921 118.995 708.338 176.679C661.755 234.362 642.07 367.613 583.523 368.283C484.891 371.049 331.008 105.882 229.918 92.9506C149.045 82.6046 111.685 219.745 103.114 289.608" stroke="#B32D66" stroke-width="2.19067"/>
<path d="M1738.25 365.131C1718.16 328.572 1675.02 265.546 1614.47 244.316C1546.49 223.654 1498.53 268.142 1436.5 269.225C1331.66 270.971 1313.95 349.181 1215.46 349.933C1116.97 350.684 1005.52 95.1616 862.729 87.7656C780.139 85.5646 752.346 119.347 706.616 178.464C660.885 237.581 641.478 370.068 582.656 370.824C482.913 373.721 328.215 106.481 226.866 93.3286C145.787 82.8066 108.901 220.138 100.594 290.119" stroke="#B42E65" stroke-width="2.21445"/>
<path d="M1740.2 369.705C1719.91 333.311 1676.69 270.79 1616.44 249.009C1548.99 227.779 1500.78 269.913 1439.21 270.985C1333.97 272.734 1315.64 353.975 1216.9 354.964C1118.15 355.952 1005.19 93.8896 860.639 86.1876C777.519 83.7876 749.772 119.7 704.894 180.25C660.015 240.801 640.887 372.523 581.789 373.366C480.935 376.393 325.423 107.08 223.815 93.7066C142.528 83.0086 106.118 220.532 98.0742 290.63" stroke="#B62E63" stroke-width="2.23823"/>
<path d="M1742.16 374.279C1721.66 338.049 1678.36 276.033 1618.41 253.702C1551.5 231.904 1503.03 271.683 1441.93 272.744C1336.28 274.496 1317.34 358.768 1218.33 359.994C1119.33 361.22 1004.86 92.6167 858.559 84.6087C774.909 82.0087 747.198 120.051 703.172 182.036C659.145 244.02 640.296 374.977 580.921 375.907C478.957 379.065 322.63 107.678 220.763 94.0847C139.27 83.2107 103.335 220.925 95.5537 291.141" stroke="#B72F61" stroke-width="2.262"/>
<path d="M1744.12 378.853C1723.42 342.787 1680.03 281.277 1620.39 258.395C1554 236.028 1505.28 273.454 1444.64 274.504C1338.58 276.258 1319.03 363.561 1219.77 365.024C1120.51 366.488 1004.53 91.3436 856.469 83.0296C772.289 80.2296 744.623 120.403 701.449 183.821C658.275 247.239 639.704 377.431 580.054 378.449C476.979 381.737 319.837 108.277 217.711 94.4626C136.011 83.4116 100.551 221.318 93.0332 291.652" stroke="#B92F60" stroke-width="2.28578"/>
<path d="M1746.08 383.427C1725.17 347.526 1681.7 286.52 1622.36 263.087C1556.51 240.152 1507.53 275.225 1447.36 276.264C1340.89 278.02 1320.72 368.354 1221.21 370.055C1121.69 371.756 1004.2 90.0705 854.379 81.4505C769.669 78.4515 742.048 120.756 699.726 185.607C657.404 250.458 639.112 379.886 579.186 380.99C475 384.409 317.044 108.876 214.659 94.8415C132.752 83.6135 97.7667 221.712 90.5127 292.164" stroke="#BB305E" stroke-width="2.30956"/>
<path d="M1748.03 388.003C1726.93 352.266 1683.37 291.765 1624.33 267.782C1559.01 244.279 1509.78 276.996 1450.07 278.024C1343.19 279.784 1322.41 373.149 1222.64 375.087C1122.87 377.025 1003.87 88.7985 852.289 79.8735C767.049 76.6745 739.473 121.109 698.003 187.394C656.533 253.679 638.519 382.342 578.318 383.533C473.021 387.083 314.25 109.476 211.607 95.2206C129.492 83.8166 94.9822 222.106 87.9912 292.676" stroke="#BC305D" stroke-width="2.33333"/>
<path d="M1749.99 392.577C1728.68 357.005 1685.04 297.01 1626.3 272.476C1561.51 248.404 1512.03 278.767 1452.79 279.784C1345.49 281.546 1324.1 377.942 1224.08 380.118C1124.05 382.294 1003.54 87.5257 850.199 78.2957C764.436 74.8967 736.897 121.462 696.279 189.18C655.661 256.898 637.926 384.797 577.449 386.075C471.042 389.756 311.456 110.075 208.554 95.5997C126.232 84.0197 92.1967 222.5 85.4697 293.188" stroke="#BE305B" stroke-width="2.35711"/>
<path d="M1751.94 397.152C1730.43 361.743 1686.71 302.255 1628.27 277.17C1564.01 252.53 1514.28 280.539 1455.5 281.545C1347.8 283.31 1325.8 382.737 1225.51 385.15C1125.23 387.563 1003.21 86.2545 848.109 76.7175C761.817 73.1195 734.321 121.815 694.555 190.967C654.789 260.119 637.332 387.253 576.58 388.618C469.062 392.429 308.661 110.675 205.5 95.9786C122.972 84.2226 89.4122 222.895 82.9482 293.701" stroke="#C03159" stroke-width="2.38089"/>
<path d="M1753.9 401.728C1732.18 366.484 1688.38 307.5 1630.24 281.865C1566.52 256.656 1516.53 282.312 1458.21 283.306C1350.1 285.073 1327.49 387.532 1226.95 390.182C1126.41 392.832 1002.87 84.9827 846.019 75.1407C759.198 71.3427 731.745 122.169 692.831 192.754C653.917 263.339 636.739 389.709 575.711 391.161C467.082 395.103 305.866 111.276 202.447 96.3587C119.711 84.4257 86.6258 223.29 80.4258 294.214" stroke="#C13158" stroke-width="2.40466"/>
<path d="M1755.85 406.304C1733.93 371.224 1690.05 312.745 1632.21 286.559C1569.02 260.782 1518.77 284.083 1460.92 285.067C1352.4 286.837 1329.18 392.326 1228.38 395.214C1127.59 398.102 1002.54 83.7117 843.929 73.5637C756.578 69.5657 729.167 122.522 691.106 194.541C653.044 266.56 636.144 392.165 574.841 393.704C465.101 397.776 303.071 111.876 199.392 96.7387C116.45 84.6287 83.8403 223.685 77.9033 294.726" stroke="#C33256" stroke-width="2.42844"/>
<path d="M1757.81 410.88C1735.68 375.965 1691.72 317.991 1634.17 291.255C1571.52 264.909 1521.02 285.856 1463.63 286.829C1354.7 288.601 1330.87 397.122 1229.81 400.247C1128.76 403.372 1002.21 82.4407 841.839 71.9867C753.958 67.7897 726.59 122.877 689.38 196.329C652.171 269.781 635.549 394.622 573.97 396.248C463.12 400.451 300.274 112.477 196.337 97.1186C113.188 84.8326 81.0529 224.08 75.3789 295.24" stroke="#C43255" stroke-width="2.45222"/>
<path d="M1759.76 415.456C1737.43 380.705 1693.39 323.236 1636.14 295.95C1574.02 269.036 1523.27 287.629 1466.34 288.591C1357.01 290.365 1332.55 401.917 1231.25 405.279C1129.94 408.642 1001.87 81.1697 839.749 70.4107C751.337 66.0137 724.011 123.231 687.653 198.117C651.296 273.003 634.953 397.079 573.098 398.792C461.137 403.125 297.477 113.078 193.281 97.4998C109.925 85.0368 78.265 224.476 72.854 295.753" stroke="#C63353" stroke-width="2.47599"/>
<path d="M1761.71 420.028C1739.18 385.445 1695.05 328.482 1638.11 300.645C1576.52 273.162 1525.51 289.401 1469.05 290.352C1359.31 292.129 1334.24 406.712 1232.68 410.312C1131.12 413.912 1001.54 79.8995 837.649 68.8345C748.715 64.2385 721.432 123.585 685.927 199.904C650.421 276.224 634.357 399.535 572.226 401.335C459.155 405.799 294.68 113.678 190.225 97.8805C106.662 85.2415 75.4771 224.871 70.3301 296.266" stroke="#C83352" stroke-width="2.49977"/>
<path d="M1763.67 424.609C1740.93 390.188 1696.72 333.73 1640.08 305.342C1579.02 277.291 1527.76 291.176 1471.76 292.116C1361.61 293.896 1335.93 411.509 1234.11 415.347C1132.29 419.179 1001.2 78.6296 835.559 67.2596C746.093 62.4626 718.853 123.942 684.2 201.694C649.546 279.447 633.761 401.994 571.354 403.881C457.172 408.475 291.882 114.281 187.169 98.2616C103.398 85.4466 72.6877 225.269 67.8047 296.782" stroke="#C93450" stroke-width="2.52355"/>
<path d="M1765.62 429.189C1742.68 394.93 1698.38 338.977 1642.04 310.038C1581.52 281.419 1530 292.95 1474.47 293.879C1363.91 295.661 1337.62 416.305 1235.54 420.379C1133.47 424.459 1000.87 77.3597 833.469 65.6837C743.47 60.6877 716.272 124.297 682.471 203.483C648.67 282.669 633.163 404.452 570.481 406.425C455.188 411.151 289.083 114.883 184.111 98.6427C100.134 85.6507 69.8993 225.665 65.2793 297.296" stroke="#CB344E" stroke-width="2.54733"/>
<path d="M1767.57 433.769C1744.43 399.673 1700.05 344.225 1644 314.736C1584.01 285.548 1532.25 294.725 1477.18 295.643C1366.2 297.428 1339.3 421.099 1236.97 425.419C1134.64 429.729 1000.53 76.0916 831.369 64.1096C740.846 58.9136 713.69 124.653 680.741 205.273C647.792 285.893 632.564 406.911 569.606 408.972C453.202 413.827 286.283 115.486 181.052 99.0256C96.868 85.8576 67.108 226.063 62.751 297.812" stroke="#CD354D" stroke-width="2.5711"/>
<path d="M1769.52 438.349C1746.17 404.415 1701.71 349.473 1645.97 319.432C1586.51 289.676 1534.49 296.499 1479.89 297.406C1368.5 299.194 1340.99 425.899 1238.4 430.449C1135.81 434.999 1000.19 74.8226 829.279 62.5346C738.221 57.1396 711.108 125.009 679.011 207.063C646.914 289.116 631.964 409.37 568.731 411.517C451.216 416.503 283.482 116.089 177.992 99.4076C93.6007 86.0636 64.3157 226.46 60.2217 298.327" stroke="#CE354B" stroke-width="2.59488"/>
<path d="M1771.46 442.919C1747.92 409.159 1703.37 354.721 1647.93 324.131C1589 293.806 1536.73 298.275 1482.59 299.171C1370.8 300.961 1342.67 430.699 1239.83 435.489C1136.98 440.269 999.849 73.5547 827.179 60.9607C735.594 55.3667 708.524 125.367 677.279 208.854C646.035 292.34 631.363 411.83 567.854 414.064C449.229 419.179 280.68 116.693 174.931 99.7917C90.3334 86.2707 61.5234 226.859 57.6934 298.843" stroke="#D0364A" stroke-width="2.61866"/>
<path d="M1773.41 447.499C1749.66 413.902 1705.03 359.97 1649.89 328.829C1591.5 297.936 1538.97 300.051 1485.3 300.936C1373.09 302.728 1344.35 435.499 1241.25 440.519C1138.15 445.549 999.509 72.2866 825.079 59.3876C732.967 53.5936 705.939 125.724 675.546 210.645C645.154 295.565 630.761 414.29 566.976 416.611C447.24 421.859 277.876 117.297 171.869 100.175C87.0631 86.4776 58.7291 227.258 55.1621 299.36" stroke="#D23648" stroke-width="2.64243"/>
<path d="M1775.36 452.088C1751.4 418.648 1706.69 365.22 1651.85 333.528C1593.99 302.067 1541.21 301.828 1488 302.702C1375.39 304.497 1346.04 440.298 1242.68 445.558C1139.32 450.818 999.169 71.0215 822.979 57.8155C730.338 51.8215 703.353 126.082 673.813 212.436C644.272 298.79 630.157 416.75 566.097 419.158C445.25 424.538 275.072 117.902 168.806 100.559C83.7929 86.6855 55.9339 227.657 52.6299 299.877" stroke="#D33746" stroke-width="2.66621"/>
<path d="M1777.3 456.669C1753.14 423.389 1708.35 370.471 1653.81 338.229C1596.48 306.199 1543.44 303.606 1490.7 304.469C1377.68 306.266 1347.71 445.099 1244.1 450.599C1140.49 456.099 998.819 69.7545 820.879 56.2435C727.707 50.0505 700.764 126.442 672.076 214.229C643.388 302.017 629.552 419.209 565.216 421.709C443.258 427.219 272.265 118.508 165.74 100.945C80.5207 86.8946 53.1357 228.058 50.0957 300.396" stroke="#D53745" stroke-width="2.68999"/>
<path d="M1779.24 461.249C1754.88 428.139 1710 375.723 1655.76 342.93C1598.97 310.332 1545.68 305.384 1493.4 306.236C1379.97 308.037 1349.39 449.899 1245.52 455.639C1141.65 461.369 998.479 68.4895 818.769 54.6735C725.074 48.2795 698.174 126.802 670.338 216.023C642.501 305.244 628.944 421.679 564.332 424.259C441.264 429.899 269.456 119.115 162.672 101.332C77.2461 87.1045 50.3361 228.46 47.5601 300.915" stroke="#D63843" stroke-width="2.71376"/>
<path d="M1781.18 465.828C1756.62 432.888 1711.66 380.975 1657.72 347.631C1601.46 314.465 1547.91 307.164 1496.1 308.005C1382.25 309.808 1351.07 454.698 1246.94 460.678C1142.81 466.648 998.129 67.2255 816.669 53.1035C722.439 46.5105 695.582 127.164 668.598 217.818C641.614 308.472 628.334 424.138 563.448 426.808C439.268 432.578 266.645 119.723 159.603 101.719C73.97 87.3155 47.535 228.862 45.022 301.436" stroke="#D83842" stroke-width="2.73754"/>
<path d="M1783.12 470.409C1758.35 437.639 1713.31 386.229 1659.67 352.335C1603.94 318.6 1550.14 308.944 1498.79 309.774C1384.54 311.58 1352.74 459.499 1248.36 465.719C1143.97 471.929 997.779 65.9626 814.559 51.5346C719.802 44.7416 692.987 127.526 666.855 219.613C640.723 311.701 627.722 426.599 562.56 429.359C437.27 435.259 263.832 120.332 156.531 102.107C70.69 87.5267 44.731 229.265 42.481 301.957" stroke="#DA3940" stroke-width="2.76132"/>
<path d="M1785.05 474.999C1760.08 442.389 1714.96 391.484 1661.62 357.039C1606.42 322.736 1552.37 310.726 1501.48 311.545C1386.82 313.353 1354.41 464.309 1249.77 470.759C1145.13 477.209 997.419 64.7016 812.449 49.9676C717.161 42.9756 690.389 127.889 665.109 221.41C639.829 314.932 627.107 429.069 561.669 431.909C435.268 437.939 261.016 120.942 153.456 102.497C67.408 87.7397 41.924 229.67 39.937 302.48" stroke="#DB393E" stroke-width="2.78509"/>
<path d="M1786.98 479.589C1761.81 447.139 1716.6 396.741 1663.56 361.745C1608.9 326.873 1554.59 312.509 1504.17 313.317C1389.1 315.128 1356.08 469.109 1251.18 475.799C1146.29 482.489 997.069 63.4407 810.329 48.4017C714.518 41.2097 687.788 128.254 663.361 223.208C638.933 318.163 626.489 431.539 560.775 434.469C433.264 440.629 258.196 121.553 150.378 102.887C64.1231 87.9547 39.1141 230.076 37.3911 303.003" stroke="#DD3A3D" stroke-width="2.80887"/>
<path d="M1788.91 484.179C1763.53 451.889 1718.24 401.999 1665.5 366.452C1611.37 331.012 1556.81 314.294 1506.85 315.091C1391.37 316.904 1357.74 473.919 1252.59 480.849C1147.44 487.769 996.709 62.1826 808.219 46.8366C711.871 39.4456 685.183 128.62 661.608 225.009C638.032 321.397 625.867 434.009 559.878 437.019C431.255 443.319 255.373 122.166 147.296 103.28C60.8338 88.1706 36.2998 230.484 34.8398 303.529" stroke="#DF3A3B" stroke-width="2.83265"/>
<path d="M1790.83 488.769C1765.25 456.639 1719.88 407.258 1667.44 371.161C1613.84 335.153 1559.03 316.08 1509.53 316.867C1393.64 318.682 1359.4 478.729 1253.99 485.889C1148.58 493.049 996.339 60.9247 806.089 45.2737C709.219 37.6827 682.574 128.988 659.851 226.81C637.127 324.632 625.24 436.479 558.975 439.579C429.243 445.999 252.545 122.781 144.21 103.674C57.5411 88.3876 33.4812 230.893 32.2852 304.056" stroke="#E03B3A" stroke-width="2.85642"/>
<path d="M1792.75 493.359C1766.97 461.399 1721.51 412.521 1669.37 375.873C1616.3 339.296 1561.24 317.87 1512.21 318.645C1395.91 320.463 1361.05 483.539 1255.39 490.939C1149.72 498.339 995.969 59.6706 803.959 43.7146C706.562 35.9236 679.96 129.359 658.088 228.615C636.217 327.87 624.609 438.949 558.068 442.139C427.224 448.689 249.713 123.398 141.118 104.071C54.2421 88.6086 30.6581 231.305 29.7251 304.586" stroke="#E23B38" stroke-width="2.8802"/>
<path d="M1794.66 497.949C1768.68 466.159 1723.13 417.789 1671.3 380.588C1618.76 343.443 1563.44 319.662 1514.88 320.426C1398.17 322.247 1362.7 488.359 1256.78 495.989C1150.86 503.629 995.589 58.4197 801.829 42.1577C703.898 34.1667 677.339 129.733 656.32 230.422C635.3 331.111 623.971 441.429 557.154 444.699C425.2 451.389 246.873 124.019 138.02 104.471C50.9372 88.8318 27.8272 231.72 27.1582 305.119" stroke="#E33C36" stroke-width="2.90398"/>
<path d="M1796.56 502.549C1770.37 470.919 1724.75 423.049 1673.21 385.305C1621.21 347.591 1565.64 321.457 1517.54 322.21C1400.42 324.033 1364.33 493.179 1258.16 501.049C1151.98 508.919 995.209 57.1706 799.689 40.6026C701.227 32.4116 674.71 130.109 654.543 232.231C634.376 334.354 623.324 443.909 556.232 447.269C423.167 454.079 244.026 124.641 134.914 104.873C47.624 89.0576 24.989 232.138 24.583 305.654" stroke="#E53C35" stroke-width="2.92775"/>
<path d="M1798.46 507.149C1772.07 475.689 1726.36 428.329 1675.12 390.025C1623.65 351.743 1567.83 323.255 1520.19 323.997C1402.66 325.823 1365.96 497.999 1259.53 506.109C1153.1 514.219 994.819 55.9247 797.539 39.0517C698.547 30.6617 672.073 130.489 652.758 234.045C633.443 337.601 622.67 446.389 555.302 449.839C421.127 456.779 241.17 125.268 131.799 105.279C44.302 89.2877 22.143 232.559 22 306.193" stroke="#E73D33" stroke-width="2.95153"/>
</svg>
