<svg width="106" height="100" viewBox="0 0 106 100" fill="none" xmlns="http://www.w3.org/2000/svg">
<mask id="mask0_348_8668" style="mask-type:alpha" maskUnits="userSpaceOnUse" x="3" y="0" width="103" height="100">
<path d="M27.037 11.9048C27.037 5.32995 44.6258 0 66.3227 0C88.0196 0 105.608 5.32995 105.608 11.9048C105.608 11.9128 105.608 11.9209 105.608 11.9289V88.0952C105.608 94.669 88.0202 100 66.3226 100C44.625 100 27.0369 94.669 27.0369 88.0952V78.3362H8.90769C6.03353 78.3362 3.70355 76.0062 3.70355 73.1321L3.70355 25.5745C3.70355 22.7003 6.03352 20.3704 8.90768 20.3704H27.0369L27.037 11.9048Z" fill="white"/>
</mask>
<g mask="url(#mask0_348_8668)">
<path d="M27.0368 64.286V88.0955C27.0368 94.6693 44.6249 100 66.3225 100C88.0201 100 105.608 94.6693 105.608 88.0955V64.286H27.0368V64.286Z" fill="#881421"/>
<path d="M27.0368 38.0952V64.2857C27.0368 70.8595 44.6249 76.1904 66.3225 76.1904C88.0201 76.1904 105.608 70.8595 105.608 64.2857V38.0952L27.0368 38.0952Z" fill="#AF2031"/>
<path d="M27.0368 11.9049V38.0954C27.0368 44.6692 44.6249 50.0001 66.3225 50.0001C88.0201 50.0001 105.608 44.6692 105.608 38.0954V11.9049L27.0368 11.9049Z" fill="#C94F60"/>
<path d="M66.3224 23.8094C88.0193 23.8094 105.608 18.4795 105.608 11.9046C105.608 5.32982 88.0193 -0.00012207 66.3224 -0.00012207C44.6256 -0.00012207 27.0367 5.32982 27.0367 11.9046C27.0367 18.4795 44.6256 23.8094 66.3224 23.8094Z" fill="#E08095"/>
<g filter="url(#filter0_dd_348_8668)">
<g filter="url(#filter1_b_348_8668)">
<path d="M4.07373 25.5746C4.07373 22.905 6.23788 20.7408 8.90749 20.7408L56.4651 20.7408C59.1347 20.7408 61.2988 22.905 61.2988 25.5746V73.1322C61.2988 75.8018 59.1347 77.9659 56.4651 77.9659H8.9075C6.23789 77.9659 4.07373 75.8018 4.07373 73.1322L4.07373 25.5746Z" fill="url(#paint0_linear_348_8668)"/>
<path d="M56.4651 20.5592L8.90749 20.5592C6.13755 20.5592 3.89208 22.8047 3.89208 25.5746L3.89208 73.1322C3.89208 75.9021 6.13757 78.1476 8.9075 78.1476H56.4651C59.235 78.1476 61.4805 75.9021 61.4805 73.1322V25.5746C61.4805 22.8047 59.235 20.5592 56.4651 20.5592Z" stroke="#D2D2D2" stroke-opacity="0.42" stroke-width="0.363303"/>
<path d="M56.4651 20.5592L8.90749 20.5592C6.13755 20.5592 3.89208 22.8047 3.89208 25.5746L3.89208 73.1322C3.89208 75.9021 6.13757 78.1476 8.9075 78.1476H56.4651C59.235 78.1476 61.4805 75.9021 61.4805 73.1322V25.5746C61.4805 22.8047 59.235 20.5592 56.4651 20.5592Z" stroke="url(#paint1_radial_348_8668)" stroke-opacity="0.6" stroke-width="0.363303"/>
</g>
<path d="M47.5349 65.2261H41.7302L38.8612 57.1084H26.3177L23.5599 65.2261H17.7774L29.7204 33.3335H35.6808L47.5349 65.2261ZM37.4601 52.7938L33.0343 40.0723C32.9008 39.6572 32.76 38.9899 32.6117 38.0707H32.5227C32.3893 38.9158 32.241 39.583 32.0779 40.0723L27.6966 52.7938H37.4601Z" fill="white"/>
</g>
</g>
<defs>
<filter id="filter0_dd_348_8668" x="-28.2602" y="-5.05362" width="121.893" height="121.893" filterUnits="userSpaceOnUse" color-interpolation-filters="sRGB">
<feFlood flood-opacity="0" result="BackgroundImageFix"/>
<feColorMatrix in="SourceAlpha" type="matrix" values="0 0 0 0 0 0 0 0 0 0 0 0 0 0 0 0 0 0 127 0" result="hardAlpha"/>
<feOffset dy="6.53945"/>
<feGaussianBlur stdDeviation="15.9853"/>
<feColorMatrix type="matrix" values="0 0 0 0 0 0 0 0 0 0 0 0 0 0 0 0 0 0 0.14 0"/>
<feBlend mode="normal" in2="BackgroundImageFix" result="effect1_dropShadow_348_8668"/>
<feColorMatrix in="SourceAlpha" type="matrix" values="0 0 0 0 0 0 0 0 0 0 0 0 0 0 0 0 0 0 127 0" result="hardAlpha"/>
<feOffset dy="1.45321"/>
<feGaussianBlur stdDeviation="5.08624"/>
<feColorMatrix type="matrix" values="0 0 0 0 0 0 0 0 0 0 0 0 0 0 0 0 0 0 0.25 0"/>
<feBlend mode="normal" in2="effect1_dropShadow_348_8668" result="effect2_dropShadow_348_8668"/>
<feBlend mode="normal" in="SourceGraphic" in2="effect2_dropShadow_348_8668" result="shape"/>
</filter>
<filter id="filter1_b_348_8668" x="-2.50882" y="14.1583" width="70.3902" height="70.3902" filterUnits="userSpaceOnUse" color-interpolation-filters="sRGB">
<feFlood flood-opacity="0" result="BackgroundImageFix"/>
<feGaussianBlur in="BackgroundImageFix" stdDeviation="3.10963"/>
<feComposite in2="SourceAlpha" operator="in" result="effect1_backgroundBlur_348_8668"/>
<feBlend mode="normal" in="SourceGraphic" in2="effect1_backgroundBlur_348_8668" result="shape"/>
</filter>
<linearGradient id="paint0_linear_348_8668" x1="15.5293" y1="29.824" x2="47.6251" y2="86.7537" gradientUnits="userSpaceOnUse">
<stop stop-color="white" stop-opacity="0.45"/>
<stop offset="1" stop-color="white" stop-opacity="0"/>
<stop offset="1" stop-color="white" stop-opacity="0"/>
</linearGradient>
<radialGradient id="paint1_radial_348_8668" cx="0" cy="0" r="1" gradientUnits="userSpaceOnUse" gradientTransform="translate(41.4533 52.7024) rotate(-32.5165) scale(79.2329 71.9975)">
<stop stop-color="white"/>
<stop offset="1" stop-color="white" stop-opacity="0"/>
</radialGradient>
</defs>
</svg>
