<svg width="112" height="100" viewBox="0 0 112 100" fill="none" xmlns="http://www.w3.org/2000/svg">
<mask id="mask0_348_8665" style="mask-type:alpha" maskUnits="userSpaceOnUse" x="3" y="0" width="109" height="101">
<path d="M111.472 25.0001V5.11189C111.472 2.28874 109.155 0.00012207 106.296 0.00012207H28.4033C25.5447 0.00012207 23.2273 2.28874 23.2273 5.11189V20.3705H9.17212C6.29795 20.3705 3.96799 22.7005 3.96799 25.5746V73.1322C3.96799 76.0064 6.29797 78.3363 9.17213 78.3363H23.2272V94.8883C23.2272 97.7115 25.5446 100 28.4033 100H106.296C109.155 100 111.472 97.7115 111.472 94.8883V50.0001H111.503V25.0001H111.472Z" fill="white"/>
</mask>
<g mask="url(#mask0_348_8665)">
<path d="M67.3342 100H106.296C109.155 100 111.472 97.7119 111.472 94.8887V75.0005H67.3342V100Z" fill="#185C37"/>
<path d="M67.3652 100H28.4034C25.5447 100 23.2273 97.7119 23.2273 94.8887V75.0005H67.3652V100Z" fill="#185C37"/>
<path d="M67.3342 75.0002H111.472V50.0002H67.3342V75.0002Z" fill="#107C41"/>
<path d="M67.3652 75.0002H23.2273V50.0002H67.3652V75.0002Z" fill="#185C37"/>
<path d="M67.3652 50.0006H111.503V25.0006H67.3652V50.0006Z" fill="#21A366"/>
<path d="M67.3652 50.0006H23.2273V25.0006H67.3652V50.0006Z" fill="#107C41"/>
<path d="M67.3342 25.0002H111.472V5.11201C111.472 2.28886 109.155 0.000244141 106.296 0.000244141H67.3342V25.0002Z" fill="#33C481"/>
<path d="M67.3653 25.0001H23.2274V5.11189C23.2274 2.28874 25.5448 0.00012207 28.4035 0.00012207H67.3653V25.0001Z" fill="#21A366"/>
<g filter="url(#filter0_dd_348_8665)">
<g filter="url(#filter1_b_348_8665)">
<path d="M4.33844 25.5746C4.33844 22.905 6.50259 20.7408 9.1722 20.7408H56.7298C59.3994 20.7408 61.5635 22.905 61.5635 25.5746V73.1322C61.5635 75.8018 59.3994 77.9659 56.7298 77.9659H9.17221C6.5026 77.9659 4.33844 75.8018 4.33844 73.1322V25.5746Z" fill="url(#paint0_linear_348_8665)"/>
<path d="M9.1722 20.5592C6.40226 20.5592 4.15679 22.8047 4.15679 25.5746V73.1322C4.15679 75.9021 6.40228 78.1476 9.17221 78.1476H56.7298C59.4997 78.1476 61.7452 75.9021 61.7452 73.1322V25.5746C61.7452 22.8047 59.4997 20.5592 56.7298 20.5592H9.1722Z" stroke="#D2D2D2" stroke-opacity="0.42" stroke-width="0.363303"/>
<path d="M9.1722 20.5592C6.40226 20.5592 4.15679 22.8047 4.15679 25.5746V73.1322C4.15679 75.9021 6.40228 78.1476 9.17221 78.1476H56.7298C59.4997 78.1476 61.7452 75.9021 61.7452 73.1322V25.5746C61.7452 22.8047 59.4997 20.5592 56.7298 20.5592H9.1722Z" stroke="url(#paint1_radial_348_8665)" stroke-opacity="0.6" stroke-width="0.363303"/>
</g>
<path d="M46.5094 65.2262H40.181L33.6529 53.5278C33.4604 53.172 33.2458 52.6679 33.0089 52.0155H32.9201C32.7869 52.3417 32.5648 52.8458 32.254 53.5278L25.526 65.2262H19.1532L29.5894 49.191L19.997 33.3336H26.4586L32.2096 44.0979C32.5796 44.8096 32.9127 45.5213 33.2088 46.233H33.2754C33.7047 45.2989 34.0748 44.5576 34.3856 44.009L40.3587 33.3336H46.3095L36.4951 49.1465L46.5094 65.2262Z" fill="white"/>
</g>
</g>
<defs>
<filter id="filter0_dd_348_8665" x="-27.9955" y="-5.05362" width="121.893" height="121.893" filterUnits="userSpaceOnUse" color-interpolation-filters="sRGB">
<feFlood flood-opacity="0" result="BackgroundImageFix"/>
<feColorMatrix in="SourceAlpha" type="matrix" values="0 0 0 0 0 0 0 0 0 0 0 0 0 0 0 0 0 0 127 0" result="hardAlpha"/>
<feOffset dy="6.53945"/>
<feGaussianBlur stdDeviation="15.9853"/>
<feColorMatrix type="matrix" values="0 0 0 0 0 0 0 0 0 0 0 0 0 0 0 0 0 0 0.14 0"/>
<feBlend mode="normal" in2="BackgroundImageFix" result="effect1_dropShadow_348_8665"/>
<feColorMatrix in="SourceAlpha" type="matrix" values="0 0 0 0 0 0 0 0 0 0 0 0 0 0 0 0 0 0 127 0" result="hardAlpha"/>
<feOffset dy="1.45321"/>
<feGaussianBlur stdDeviation="5.08624"/>
<feColorMatrix type="matrix" values="0 0 0 0 0 0 0 0 0 0 0 0 0 0 0 0 0 0 0.25 0"/>
<feBlend mode="normal" in2="effect1_dropShadow_348_8665" result="effect2_dropShadow_348_8665"/>
<feBlend mode="normal" in="SourceGraphic" in2="effect2_dropShadow_348_8665" result="shape"/>
</filter>
<filter id="filter1_b_348_8665" x="-2.24412" y="14.1583" width="70.3902" height="70.3902" filterUnits="userSpaceOnUse" color-interpolation-filters="sRGB">
<feFlood flood-opacity="0" result="BackgroundImageFix"/>
<feGaussianBlur in="BackgroundImageFix" stdDeviation="3.10963"/>
<feComposite in2="SourceAlpha" operator="in" result="effect1_backgroundBlur_348_8665"/>
<feBlend mode="normal" in="SourceGraphic" in2="effect1_backgroundBlur_348_8665" result="shape"/>
</filter>
<linearGradient id="paint0_linear_348_8665" x1="15.794" y1="29.824" x2="47.8898" y2="86.7537" gradientUnits="userSpaceOnUse">
<stop stop-color="white" stop-opacity="0.45"/>
<stop offset="1" stop-color="white" stop-opacity="0"/>
<stop offset="1" stop-color="white" stop-opacity="0"/>
</linearGradient>
<radialGradient id="paint1_radial_348_8665" cx="0" cy="0" r="1" gradientUnits="userSpaceOnUse" gradientTransform="translate(41.718 52.7024) rotate(-32.5165) scale(79.2329 71.9975)">
<stop stop-color="white"/>
<stop offset="1" stop-color="white" stop-opacity="0"/>
</radialGradient>
</defs>
</svg>
