<svg width="116" height="100" viewBox="0 0 116 100" fill="none" xmlns="http://www.w3.org/2000/svg">
<path d="M58.0852 69.6311L54.4075 54.3833C49.1535 49.3008 46.5266 42.6934 46.5266 36.086L36.5441 32.5282L29.1887 29.9869C-4.96178 29.9869 7.12223 54.8916 13.4269 62.0072L21.3078 69.1229C37.0695 84.8789 56.509 79.7963 58.0852 69.6311Z" fill="url(#paint0_linear_348_8670)"/>
<path d="M105.371 35.0697C103.795 33.5449 101.693 32.0201 99.5914 31.0036C95.3882 29.9871 91.7105 28.9706 87.5074 28.9706L80.1519 32.5284L74.3726 37.611C74.3726 44.7266 71.7456 51.334 66.4917 55.9083L58.0854 69.6313C47.5776 78.7799 31.8159 78.2716 21.308 69.123L50.2046 96.569C54.9331 101.143 62.2886 101.143 67.0171 96.569L102.744 62.0074C105.371 58.9578 111.15 52.3505 111.15 47.7761C111.15 43.2018 109.048 38.6275 105.371 35.0697Z" fill="url(#paint1_linear_348_8670)"/>
<path d="M79.6265 32.5283V38.1192C79.6265 45.2348 76.9996 51.8421 71.7457 56.4165L59.1363 68.6147L58.0855 69.6312L44.4253 56.4165C39.1714 51.3339 36.5444 44.7265 36.5444 37.6109V16.264H80.1519V32.5283H79.6265Z" fill="#2EE1CC"/>
<path d="M58.0296 16.264C58.0296 25.4127 68.012 32.5283 79.5706 32.5283H86.9261C97.4339 32.5283 106.366 40.6604 106.366 51.3339C106.366 55.3999 105.371 58.4235 102.744 61.9813L107.467 56.8602C114.188 48.2076 115.459 43.2632 115.823 34.5613C115.823 33.5448 115.823 32.02 115.823 30.4953C113.721 13.2145 97.9593 -0.000244141 80.096 -0.000244141C68.012 -0.000244141 58.0296 7.11538 58.0296 16.264Z" fill="#20C1AE"/>
<path d="M58.0856 16.2643C58.0856 25.4129 48.1031 32.5286 36.5445 32.5286H29.189C18.6812 32.5286 9.74953 40.6607 9.74953 51.3341C9.74953 55.4002 10.7444 58.4237 13.3714 61.9815L8.64844 56.8605C1.92734 48.2079 0.655783 43.2634 0.29248 34.5616C0.29248 33.5451 0.29248 32.0203 0.29248 30.4955C2.39405 13.2147 18.1558 0 36.0191 0C48.1031 0 58.0856 7.11562 58.0856 16.2643Z" fill="#20C1AE"/>
<defs>
<linearGradient id="paint0_linear_348_8670" x1="32.1718" y1="79.2225" x2="32.1718" y2="29.9768" gradientUnits="userSpaceOnUse">
<stop stop-color="#0C9D8C"/>
<stop offset="0.9858" stop-color="#047769"/>
</linearGradient>
<linearGradient id="paint1_linear_348_8670" x1="66.2238" y1="99.9845" x2="66.2238" y2="29.1637" gradientUnits="userSpaceOnUse">
<stop stop-color="#0B5B50"/>
<stop offset="1" stop-color="#0E4D44"/>
</linearGradient>
</defs>
</svg>
