<svg width="99" height="100" viewBox="0 0 99 100" fill="none" xmlns="http://www.w3.org/2000/svg">
<mask id="mask0_348_8659" style="mask-type:alpha" maskUnits="userSpaceOnUse" x="0" y="0" width="99" height="101">
<path d="M43.1232 78.3363H5.97281C3.1535 78.3363 0.867981 76.0064 0.867981 73.1322V25.5746C0.867981 22.7005 3.15348 20.3705 5.9728 20.3705H44.3943L63.5802 0.781366C63.8291 0.527479 64.1257 0.327456 64.4523 0.193298C64.7789 0.0591391 65.1287 -0.00639454 65.4808 0.000632977C65.8328 0.00765767 66.1798 0.0870966 66.501 0.234183C66.8222 0.381269 67.1109 0.592973 67.3499 0.856597C75.1944 9.50515 80.8471 19.9769 83.816 31.3607L83.8157 31.3613L93.4123 28.7481C93.7494 28.6557 94.1014 28.6332 94.4472 28.682C94.7931 28.7308 95.1258 28.8499 95.4257 29.0322C95.7255 29.2145 95.9864 29.4564 96.1929 29.7434C96.3994 30.0304 96.5472 30.3568 96.6276 30.7031C99.5239 43.4582 99.5206 56.7195 96.6181 69.4731C96.5375 69.8196 96.3893 70.1461 96.1825 70.4332C95.9757 70.7202 95.7144 70.962 95.4141 71.1441C95.1139 71.3262 94.7808 71.445 94.4347 71.4934C94.0885 71.5417 93.7364 71.5187 93.3991 71.4257L83.8625 68.8124C80.8789 80.1394 75.2286 90.5528 67.4021 99.1488C67.1632 99.4111 66.8749 99.6217 66.5544 99.7679C66.2338 99.9141 65.8877 99.9929 65.5366 99.9996C65.1855 100.006 64.8367 99.9409 64.511 99.8072C64.1853 99.6734 63.8894 99.4741 63.6409 99.2211L43.1232 78.3363Z" fill="white"/>
</mask>
<g mask="url(#mask0_348_8659)">
<path d="M36.8252 29.9206C36.6332 29.7121 36.5122 29.4461 36.4801 29.162C36.448 28.878 36.5066 28.5909 36.6471 28.3435C36.7018 28.2467 36.7685 28.1575 36.8454 28.078L63.5801 0.781368C63.829 0.52748 64.1257 0.327458 64.4523 0.193299C64.7788 0.0591395 65.1286 -0.00639264 65.4807 0.000632683C65.8327 0.00765801 66.1797 0.0870961 66.5009 0.234182C66.8221 0.381269 67.1108 0.592973 67.3498 0.856596C75.1943 9.50515 80.847 19.9769 83.816 31.3607V31.3609L67.6336 50.0001L43.5675 42.3174C42.3386 37.6893 40.0247 33.4349 36.8252 29.9206H36.8252Z" fill="#28A8EA"/>
<path d="M96.6277 30.703C96.5472 30.3566 96.3994 30.0303 96.1929 29.7432C95.9864 29.4562 95.7255 29.2144 95.4257 29.0321C95.1258 28.8497 94.7931 28.7306 94.4472 28.6818C94.1014 28.633 93.7495 28.6555 93.4123 28.748L43.5632 42.322C44.8908 47.3826 44.8941 52.7096 43.5729 57.772L60.1982 78.8857L83.8622 68.8122L93.3991 71.4255C93.7364 71.5186 94.0885 71.5416 94.4347 71.4932C94.7808 71.4449 95.1139 71.3261 95.4141 71.144C95.7144 70.9618 95.9757 70.7201 96.1825 70.433C96.3893 70.146 96.5375 69.8195 96.6182 69.4729C99.5206 56.7194 99.5239 43.458 96.6277 30.703Z" fill="#0078D4"/>
<path d="M43.5731 57.7715C42.361 62.3877 40.0705 66.6361 36.8975 70.1536C36.6607 70.4052 36.53 70.7415 36.5336 71.0902C36.5372 71.4389 36.6748 71.7723 36.9167 72.0188L63.6409 99.2211C63.8894 99.474 64.1853 99.6734 64.511 99.8071C64.8367 99.9409 65.1855 100.006 65.5366 99.9996C65.8877 99.9929 66.2338 99.914 66.5544 99.7679C66.8749 99.6217 67.1632 99.4111 67.4022 99.1488C75.2288 90.5526 80.8792 80.139 83.8627 68.8118L43.5731 57.7715Z" fill="#0358A7"/>
<g filter="url(#filter0_d_348_8659)">
<g filter="url(#filter1_b_348_8659)">
<path d="M1.23126 25.5746C1.23126 22.905 3.35411 20.7408 5.97278 20.7408H52.6228C55.2415 20.7408 57.3643 22.905 57.3643 25.5746V73.1322C57.3643 75.8018 55.2415 77.9659 52.6228 77.9659H5.97279C3.35412 77.9659 1.23126 75.8018 1.23126 73.1322V25.5746Z" fill="url(#paint0_linear_348_8659)"/>
<path d="M5.97278 20.5592C3.2505 20.5592 1.04961 22.808 1.04961 25.5746V73.1322C1.04961 75.8988 3.25052 78.1476 5.97279 78.1476H52.6228C55.3451 78.1476 57.546 75.8988 57.546 73.1322V25.5746C57.546 22.808 55.3451 20.5592 52.6228 20.5592H5.97278Z" stroke="#D2D2D2" stroke-opacity="0.42" stroke-width="0.363303"/>
<path d="M5.97278 20.5592C3.2505 20.5592 1.04961 22.808 1.04961 25.5746V73.1322C1.04961 75.8988 3.25052 78.1476 5.97279 78.1476H52.6228C55.3451 78.1476 57.546 75.8988 57.546 73.1322V25.5746C57.546 22.808 55.3451 20.5592 52.6228 20.5592H5.97278Z" stroke="url(#paint1_radial_348_8659)" stroke-opacity="0.6" stroke-width="0.363303"/>
</g>
<path d="M28.7702 46.9447C29.0621 47.5581 29.2959 48.1986 29.4684 48.8573H29.5339C29.6914 48.2112 29.9182 47.5847 30.2102 46.9892L36.5378 34.8397C36.7747 34.3849 37.1285 34.0045 37.5613 33.7392C37.9942 33.4738 38.4897 33.3336 38.9947 33.3336C39.4826 33.3336 39.9618 33.4644 40.3844 33.7129C40.807 33.9613 41.158 34.3187 41.4024 34.7491C41.6467 35.1795 41.7757 35.6679 41.7765 36.1652C41.7773 36.6625 41.6498 37.1512 41.4067 37.5824L32.6524 53.1163C32.4101 53.5462 32.2826 54.0334 32.2826 54.5292V62.3902C32.2826 63.1424 31.9895 63.8637 31.4678 64.3956C30.9461 64.9274 30.2385 65.2262 29.5007 65.2262H28.9342C28.5689 65.2262 28.2072 65.1528 27.8696 65.0103C27.5321 64.8678 27.2255 64.6589 26.9671 64.3956C26.7088 64.1322 26.5039 63.8196 26.3641 63.4755C26.2243 63.1314 26.1523 62.7626 26.1523 62.3902V54.6219C26.1523 54.1378 26.0308 53.6618 25.7993 53.2392L17.2063 37.5524C16.9699 37.1207 16.8482 36.6336 16.8534 36.1392C16.8586 35.6449 16.9905 35.1605 17.236 34.7341C17.4815 34.3077 17.832 33.9542 18.2528 33.7085C18.6737 33.4629 19.1502 33.3336 19.6352 33.3336H20.182C20.6925 33.3336 21.1931 33.4768 21.6291 33.7475C22.0651 34.0183 22.4196 34.4061 22.6538 34.8685L28.7702 46.9447Z" fill="white"/>
</g>
</g>
<defs>
<filter id="filter0_d_348_8659" x="-9.30449" y="11.6583" width="77.2046" height="78.2966" filterUnits="userSpaceOnUse" color-interpolation-filters="sRGB">
<feFlood flood-opacity="0" result="BackgroundImageFix"/>
<feColorMatrix in="SourceAlpha" type="matrix" values="0 0 0 0 0 0 0 0 0 0 0 0 0 0 0 0 0 0 127 0" result="hardAlpha"/>
<feOffset dy="1.45321"/>
<feGaussianBlur stdDeviation="5.08624"/>
<feColorMatrix type="matrix" values="0 0 0 0 0 0 0 0 0 0 0 0 0 0 0 0 0 0 0.25 0"/>
<feBlend mode="normal" in2="BackgroundImageFix" result="effect1_dropShadow_348_8659"/>
<feBlend mode="normal" in="SourceGraphic" in2="effect1_dropShadow_348_8659" result="shape"/>
</filter>
<filter id="filter1_b_348_8659" x="-5.35129" y="14.1583" width="69.2982" height="70.3902" filterUnits="userSpaceOnUse" color-interpolation-filters="sRGB">
<feFlood flood-opacity="0" result="BackgroundImageFix"/>
<feGaussianBlur in="BackgroundImageFix" stdDeviation="3.10963"/>
<feComposite in2="SourceAlpha" operator="in" result="effect1_backgroundBlur_348_8659"/>
<feBlend mode="normal" in="SourceGraphic" in2="effect1_backgroundBlur_348_8659" result="shape"/>
</filter>
<linearGradient id="paint0_linear_348_8659" x1="12.4683" y1="29.824" x2="44.8813" y2="86.2193" gradientUnits="userSpaceOnUse">
<stop stop-color="white" stop-opacity="0.45"/>
<stop offset="1" stop-color="white" stop-opacity="0"/>
<stop offset="1" stop-color="white" stop-opacity="0"/>
</linearGradient>
<radialGradient id="paint1_radial_348_8659" cx="0" cy="0" r="1" gradientUnits="userSpaceOnUse" gradientTransform="translate(37.8975 52.7024) rotate(-33.0189) scale(78.1608 71.5923)">
<stop stop-color="white"/>
<stop offset="1" stop-color="white" stop-opacity="0"/>
</radialGradient>
</defs>
</svg>
