<svg width="114" height="100" viewBox="0 0 114 100" fill="none" xmlns="http://www.w3.org/2000/svg">
<mask id="mask0_348_8662" style="mask-type:alpha" maskUnits="userSpaceOnUse" x="0" y="0" width="114" height="101">
<path d="M76.2542 33.3943L90.1228 33.3943C92.8601 33.3943 95.0499 35.5841 95.0499 38.3213L95.0499 66.6059H108.918C111.656 66.6059 113.845 68.7957 113.845 71.533V95.0731C113.845 97.8103 111.656 100 108.918 100L43.7724 100C41.0352 100 38.8454 97.8103 38.8454 95.0731V78.3363H5.71626C2.8421 78.3363 0.512115 76.0064 0.512115 73.1322L0.512115 25.5746C0.512115 22.7005 2.84208 20.3705 5.71625 20.3705H13.8455L13.8455 4.92713C13.8455 2.1899 16.0352 0.00012207 18.7725 0.00012207L71.5097 0.00012207C74.2469 0.00012207 76.4367 2.1899 76.4367 4.92713L76.2542 33.3943Z" fill="white"/>
</mask>
<g mask="url(#mask0_348_8662)">
<path d="M108.918 100.001H43.7724C41.0352 100.001 38.8454 97.811 38.8454 95.0738L38.8454 66.6066L63.8454 54.1979L95.0498 66.6066H108.918C111.656 66.6066 113.845 68.7964 113.845 71.5336V95.0738C113.845 97.811 111.656 100.001 108.918 100.001Z" fill="#185C37"/>
<path d="M76.2543 33.3943L47.0572 43.7957L13.8455 33.3943L13.8455 4.92713C13.8455 2.1899 16.0353 0.00012207 18.7725 0.00012207L71.5098 0.00012207C74.247 0.00012207 76.4368 2.1899 76.4368 4.92713L76.2543 33.3943Z" fill="#33C481"/>
<path d="M13.8456 33.3948L90.1229 33.3948C92.8602 33.3948 95.0499 35.5846 95.0499 38.3218V66.7889H18.7726C16.0353 66.7889 13.8456 64.5992 13.8456 61.8619L13.8456 33.3948Z" fill="#21A366"/>
<g filter="url(#filter0_dd_348_8662)">
<g filter="url(#filter1_b_348_8662)">
<path d="M0.882568 25.5746C0.882568 22.905 3.04672 20.7408 5.71633 20.7408L53.2739 20.7408C55.9435 20.7408 58.1077 22.905 58.1077 25.5746L58.1077 73.1322C58.1077 75.8018 55.9435 77.966 53.2739 77.966H5.71634C3.04673 77.966 0.882568 75.8018 0.882568 73.1322L0.882568 25.5746Z" fill="url(#paint0_linear_348_8662)"/>
<path d="M5.71633 20.5592C2.94639 20.5592 0.700917 22.8047 0.700917 25.5746L0.700917 73.1322C0.700917 75.9021 2.9464 78.1476 5.71634 78.1476H53.2739C56.0439 78.1476 58.2893 75.9021 58.2893 73.1322L58.2893 25.5746C58.2893 22.8047 56.0438 20.5592 53.2739 20.5592L5.71633 20.5592Z" stroke="#D2D2D2" stroke-opacity="0.42" stroke-width="0.363303"/>
<path d="M5.71633 20.5592C2.94639 20.5592 0.700917 22.8047 0.700917 25.5746L0.700917 73.1322C0.700917 75.9021 2.9464 78.1476 5.71634 78.1476H53.2739C56.0439 78.1476 58.2893 75.9021 58.2893 73.1322L58.2893 25.5746C58.2893 22.8047 56.0438 20.5592 53.2739 20.5592L5.71633 20.5592Z" stroke="url(#paint1_radial_348_8662)" stroke-opacity="0.6" stroke-width="0.363303"/>
</g>
<path d="M24.3262 54.032V65.5969H19.0307L19.0307 33.7043H28.7503C32.4296 33.7043 35.2821 34.5569 37.3079 36.262C39.3338 37.9671 40.3467 40.369 40.3467 43.4678C40.3467 46.5667 39.2891 49.102 37.1739 51.074C35.0587 53.046 32.1987 54.032 28.5939 54.032H24.3262ZM24.3262 38.0634V49.7174H27.7672C30.0462 49.7174 31.7816 49.191 32.9733 48.1383C34.1649 47.0856 34.7608 45.6029 34.7608 43.6902C34.7608 39.939 32.5711 38.0634 28.1917 38.0634H24.3262Z" fill="white"/>
</g>
</g>
<defs>
<filter id="filter0_dd_348_8662" x="-31.4514" y="-5.05362" width="121.893" height="121.893" filterUnits="userSpaceOnUse" color-interpolation-filters="sRGB">
<feFlood flood-opacity="0" result="BackgroundImageFix"/>
<feColorMatrix in="SourceAlpha" type="matrix" values="0 0 0 0 0 0 0 0 0 0 0 0 0 0 0 0 0 0 127 0" result="hardAlpha"/>
<feOffset dy="6.53945"/>
<feGaussianBlur stdDeviation="15.9853"/>
<feColorMatrix type="matrix" values="0 0 0 0 0 0 0 0 0 0 0 0 0 0 0 0 0 0 0.14 0"/>
<feBlend mode="normal" in2="BackgroundImageFix" result="effect1_dropShadow_348_8662"/>
<feColorMatrix in="SourceAlpha" type="matrix" values="0 0 0 0 0 0 0 0 0 0 0 0 0 0 0 0 0 0 127 0" result="hardAlpha"/>
<feOffset dy="1.45321"/>
<feGaussianBlur stdDeviation="5.08624"/>
<feColorMatrix type="matrix" values="0 0 0 0 0 0 0 0 0 0 0 0 0 0 0 0 0 0 0.25 0"/>
<feBlend mode="normal" in2="effect1_dropShadow_348_8662" result="effect2_dropShadow_348_8662"/>
<feBlend mode="normal" in="SourceGraphic" in2="effect2_dropShadow_348_8662" result="shape"/>
</filter>
<filter id="filter1_b_348_8662" x="-5.7" y="14.1583" width="70.3902" height="70.3902" filterUnits="userSpaceOnUse" color-interpolation-filters="sRGB">
<feFlood flood-opacity="0" result="BackgroundImageFix"/>
<feGaussianBlur in="BackgroundImageFix" stdDeviation="3.10963"/>
<feComposite in2="SourceAlpha" operator="in" result="effect1_backgroundBlur_348_8662"/>
<feBlend mode="normal" in="SourceGraphic" in2="effect1_backgroundBlur_348_8662" result="shape"/>
</filter>
<linearGradient id="paint0_linear_348_8662" x1="12.3382" y1="29.8241" x2="44.434" y2="86.7537" gradientUnits="userSpaceOnUse">
<stop stop-color="white" stop-opacity="0.45"/>
<stop offset="1" stop-color="white" stop-opacity="0"/>
<stop offset="1" stop-color="white" stop-opacity="0"/>
</linearGradient>
<radialGradient id="paint1_radial_348_8662" cx="0" cy="0" r="1" gradientUnits="userSpaceOnUse" gradientTransform="translate(38.2621 52.7024) rotate(-32.5165) scale(79.233 71.9976)">
<stop stop-color="white"/>
<stop offset="1" stop-color="white" stop-opacity="0"/>
</radialGradient>
</defs>
</svg>
