<svg width="100" height="100" viewBox="0 0 100 100" fill="none" xmlns="http://www.w3.org/2000/svg">
<mask id="mask0_348_8661" style="mask-type:alpha" maskUnits="userSpaceOnUse" x="0" y="0" width="100" height="101">
<path d="M0.658356 29.0951C0.658356 33.7637 1.7804 38.3166 3.87516 42.3932C3.46575 44.8801 3.25281 47.4332 3.25281 50.0361C3.25281 75.8279 24.1612 96.7363 49.953 96.7363C52.0985 96.7363 54.2102 96.5916 56.2788 96.3115C60.5754 98.7091 65.45 100 70.4577 100C74.2785 100 78.0619 99.2476 81.5919 97.7854C85.1218 96.3232 88.3292 94.1801 91.0309 91.4784C93.7327 88.7767 95.8758 85.5693 97.3379 82.0393C98.8001 78.5094 99.5527 74.726 99.5527 70.9052C99.5527 67.0843 98.8001 63.301 97.3379 59.771C96.9711 58.8853 96.5613 58.0199 96.1106 57.1777C96.4679 54.8493 96.6533 52.4643 96.6533 50.0361C96.6533 24.2443 75.7449 3.33585 49.953 3.33585C47.9288 3.33585 45.9346 3.46465 43.9782 3.71449C39.6704 1.30034 34.7789 0.00012207 29.7533 0.00012207C22.0369 0.00012207 14.6364 3.06548 9.18008 8.52184C3.72371 13.9782 0.658356 21.3786 0.658356 29.0951Z" fill="white"/>
</mask>
<g mask="url(#mask0_348_8661)">
<path d="M58.8483 29.0951C58.8483 36.8116 55.783 44.212 50.3266 49.6684C44.8702 55.1247 37.4698 58.1901 29.7533 58.1901C22.0369 58.1901 14.6364 55.1247 9.18008 49.6684C3.72371 44.212 0.658356 36.8116 0.658356 29.0951C0.658356 21.3786 3.72371 13.9782 9.18008 8.52184C14.6364 3.06548 22.0369 0.00012207 29.7533 0.00012207C37.4698 0.00012207 44.8702 3.06548 50.3266 8.52184C55.783 13.9782 58.8483 21.3786 58.8483 29.0951Z" fill="url(#paint0_linear_348_8661)"/>
<path d="M99.5525 70.9054C99.5525 74.7262 98.8 78.5096 97.3378 82.0396C95.8756 85.5695 93.7325 88.7769 91.0308 91.4787C88.3291 94.1804 85.1217 96.3235 81.5917 97.7856C78.0617 99.2478 74.2784 100 70.4575 100C62.7411 100 55.3407 96.935 49.8843 91.4787C44.4279 86.0223 41.3626 78.6219 41.3626 70.9054C41.3626 63.1889 44.4279 55.7885 49.8843 50.3321C55.3407 44.8758 62.7411 41.8104 70.4575 41.8104C74.2784 41.8104 78.0617 42.563 81.5917 44.0251C85.1217 45.4873 88.3291 47.6304 91.0308 50.3321C93.7325 53.0339 95.8756 56.2413 97.3378 59.7712C98.8 63.3012 99.5525 67.0846 99.5525 70.9054Z" fill="url(#paint1_linear_348_8661)"/>
<g filter="url(#filter0_b_348_8661)">
<ellipse cx="49.953" cy="50.0362" rx="46.3296" ry="46.3296" fill="url(#paint2_linear_348_8661)"/>
<path d="M49.953 96.5475C75.6405 96.5475 96.4642 75.7237 96.4642 50.0362C96.4642 24.3488 75.6405 3.52501 49.953 3.52501C24.2656 3.52501 3.44178 24.3488 3.44178 50.0362C3.44178 75.7237 24.2656 96.5475 49.953 96.5475Z" stroke="#D2D2D2" stroke-opacity="0.42" stroke-width="0.363303"/>
<path d="M49.953 96.5475C75.6405 96.5475 96.4642 75.7237 96.4642 50.0362C96.4642 24.3488 75.6405 3.52501 49.953 3.52501C24.2656 3.52501 3.44178 24.3488 3.44178 50.0362C3.44178 75.7237 24.2656 96.5475 49.953 96.5475Z" stroke="url(#paint3_radial_348_8661)" stroke-opacity="0.6" stroke-width="0.363303"/>
</g>
<path fill-rule="evenodd" clip-rule="evenodd" d="M37.5485 49.0068C35.6782 47.7759 34.1175 46.1298 32.988 44.1966C31.8976 42.1543 31.3594 39.8627 31.4267 37.5485C31.344 34.6117 32.3465 31.7473 34.2424 29.5028C36.2128 27.2487 38.7452 25.5568 41.5819 24.5992C44.6672 23.5094 47.9179 22.962 51.19 22.9814C53.3308 22.9612 55.4694 23.1252 57.5821 23.4718C59.0943 23.7052 60.5795 24.0885 62.0158 24.6159C63.3347 25.0623 64.5254 25.8224 65.4854 26.8308C66.1927 27.6605 66.5734 28.7195 66.5563 29.8096C66.5815 30.376 66.4949 30.9417 66.3014 31.4746C66.1079 32.0074 65.8114 32.497 65.4287 32.9152C65.0665 33.3006 64.627 33.6051 64.1388 33.8086C63.6507 34.0121 63.125 34.1101 62.5963 34.0961C61.8688 34.0901 61.1511 33.9286 60.4912 33.6224C58.8647 32.8945 57.1892 32.2814 55.477 31.7877C53.9009 31.3722 52.2761 31.1702 50.6462 31.1873C48.5219 31.1091 46.4203 31.6466 44.5945 32.7351C43.824 33.2032 43.1933 33.8696 42.7684 34.6647C42.3436 35.4598 42.14 36.3544 42.1791 37.255C42.1679 38.4374 42.6178 39.5777 43.4335 40.4339C44.4027 41.4398 45.5481 42.2595 46.813 42.8523C48.2297 43.5551 50.3426 44.4869 53.1517 45.6477C53.4627 45.7462 53.7661 45.8677 54.0591 46.0113C56.8004 47.0955 59.4285 48.4463 61.9057 50.0442C63.8622 51.3197 65.5119 53.0125 66.7364 55.0011C67.9422 57.0911 68.5461 59.474 68.4812 61.886C68.5824 64.8393 67.7361 67.7475 66.0659 70.1853C64.3651 72.4935 62.0122 74.2396 59.3102 75.1989C56.0536 76.3623 52.6124 76.923 49.155 76.8534C44.4038 77.0197 39.6753 76.1252 35.3133 74.2349C34.1982 73.7383 33.2204 72.9782 32.4642 72.02C31.8364 71.1419 31.5109 70.0836 31.5368 69.0045C31.5056 68.4353 31.5984 67.8662 31.8086 67.3363C32.0188 66.8065 32.3416 66.3286 32.7545 65.9356C33.6202 65.1776 34.744 64.7811 35.8938 64.8281C37.1748 64.8456 38.4331 65.1693 39.5636 65.7721C40.9692 66.4749 42.0779 67.0019 42.8897 67.3533C43.8168 67.7414 44.7771 68.0451 45.7588 68.2606C46.9693 68.5261 48.206 68.6537 49.4452 68.6409C51.6367 68.7974 53.8176 68.2161 55.6404 66.9897C56.3228 66.4558 56.8682 65.767 57.2314 64.9804C57.5945 64.1938 57.7651 63.3321 57.7289 62.4664C57.7309 61.239 57.263 60.0574 56.4211 59.1641C55.3085 58.0156 54.0061 57.0677 52.5712 56.3621C50.8742 55.4681 48.4877 54.3784 45.4118 53.093C42.6608 51.9969 40.0266 50.628 37.5485 49.0068Z" fill="white"/>
</g>
<defs>
<filter id="filter0_b_348_8661" x="-2.95914" y="-2.87588" width="105.824" height="105.824" filterUnits="userSpaceOnUse" color-interpolation-filters="sRGB">
<feFlood flood-opacity="0" result="BackgroundImageFix"/>
<feGaussianBlur in="BackgroundImageFix" stdDeviation="3.10963"/>
<feComposite in2="SourceAlpha" operator="in" result="effect1_backgroundBlur_348_8661"/>
<feBlend mode="normal" in="SourceGraphic" in2="effect1_backgroundBlur_348_8661" result="shape"/>
</filter>
<linearGradient id="paint0_linear_348_8661" x1="25.2159" y1="0.353394" x2="34.3497" y2="57.8274" gradientUnits="userSpaceOnUse">
<stop offset="0.012" stop-color="#00B7F0"/>
<stop offset="0.339" stop-color="#009DE5"/>
<stop offset="0.755" stop-color="#0082D9"/>
<stop offset="1" stop-color="#0078D4"/>
</linearGradient>
<linearGradient id="paint1_linear_348_8661" x1="45.2742" y1="85.4912" x2="95.7209" y2="56.4644" gradientUnits="userSpaceOnUse">
<stop stop-color="#0078D4"/>
<stop offset="0.37" stop-color="#007AD5"/>
<stop offset="0.573" stop-color="#0082D9"/>
<stop offset="0.735" stop-color="#0090DF"/>
<stop offset="0.875" stop-color="#00A3E7"/>
<stop offset="1" stop-color="#00BCF2"/>
</linearGradient>
<linearGradient id="paint2_linear_348_8661" x1="22.1724" y1="18.4142" x2="74.142" y2="110.595" gradientUnits="userSpaceOnUse">
<stop stop-color="white" stop-opacity="0.45"/>
<stop offset="1" stop-color="white" stop-opacity="0"/>
<stop offset="1" stop-color="white" stop-opacity="0"/>
</linearGradient>
<radialGradient id="paint3_radial_348_8661" cx="0" cy="0" r="1" gradientUnits="userSpaceOnUse" gradientTransform="translate(64.1486 55.4589) rotate(-32.5165) scale(128.294 116.579)">
<stop stop-color="white"/>
<stop offset="1" stop-color="white" stop-opacity="0"/>
</radialGradient>
</defs>
</svg>
