<svg width="111" height="100" viewBox="0 0 111 100" fill="none" xmlns="http://www.w3.org/2000/svg">
<mask id="mask0_348_8671" style="mask-type:alpha" maskUnits="userSpaceOnUse" x="4" y="-1" width="107" height="101">
<path d="M22.9009 5.12784C22.9009 2.29561 25.1969 -0.000366211 28.0291 -0.000366211H105.233C108.065 -0.000366211 110.361 2.29561 110.361 5.12784V94.8714C110.361 97.7037 108.065 99.9996 105.233 99.9996H28.0291C25.1969 99.9996 22.9009 97.7037 22.9009 94.8714V78.7062H9.58654C6.71238 78.7062 4.3824 76.3762 4.3824 73.5021V25.9445C4.3824 23.0703 6.71237 20.7404 9.58653 20.7404H22.9009V5.12784Z" fill="white"/>
</mask>
<g mask="url(#mask0_348_8671)">
<path d="M110.361 49.9993H22.9009V94.871C22.9009 97.7033 25.1969 99.9992 28.0291 99.9992H105.233C108.065 99.9992 110.361 97.7033 110.361 94.871V49.9993Z" fill="#036C70"/>
<path d="M28.0291 -0.000366211C25.1969 -0.000366211 22.9009 2.29561 22.9009 5.12784V49.9997H110.361V5.12784C110.361 2.29561 108.065 -0.000366211 105.233 -0.000366211H28.0291Z" fill="#37C6D0"/>
<path d="M75.5623 62.511H100.567V87.5157H75.5623V62.511Z" fill="#1A9BA1"/>
<path d="M85.6399 40.234C93.9258 40.234 100.643 33.517 100.643 25.2312C100.643 16.9454 93.9258 10.2284 85.6399 10.2284C77.3541 10.2284 70.6371 16.9454 70.6371 25.2312C70.6371 33.517 77.3541 40.234 85.6399 40.234Z" fill="#1A9BA1"/>
<path d="M85.6399 32.7329C89.7828 32.7329 93.1413 29.3744 93.1413 25.2315C93.1413 21.0886 89.7828 17.7301 85.6399 17.7301C81.497 17.7301 78.1385 21.0886 78.1385 25.2315C78.1385 29.3744 81.497 32.7329 85.6399 32.7329Z" fill="#036C70"/>
<g filter="url(#filter0_d_348_8671)">
<g filter="url(#filter1_b_348_8671)">
<path d="M4.75269 25.9444C4.75269 23.2748 6.91683 21.1106 9.58644 21.1106H57.144C59.8136 21.1106 61.9778 23.2747 61.9778 25.9444V73.5019C61.9778 76.1715 59.8136 78.3357 57.144 78.3357H9.58645C6.91684 78.3357 4.75269 76.1715 4.75269 73.5019V25.9444Z" fill="url(#paint0_linear_348_8671)"/>
<path d="M9.58644 20.9289C6.81651 20.9289 4.57103 23.1744 4.57103 25.9444V73.5019C4.57103 76.2719 6.81652 78.5173 9.58645 78.5173H57.144C59.914 78.5173 62.1594 76.2719 62.1594 73.5019V25.9444C62.1594 23.1744 59.9139 20.9289 57.144 20.9289H9.58644Z" stroke="#D2D2D2" stroke-opacity="0.42" stroke-width="0.363303"/>
<path d="M9.58644 20.9289C6.81651 20.9289 4.57103 23.1744 4.57103 25.9444V73.5019C4.57103 76.2719 6.81652 78.5173 9.58645 78.5173H57.144C59.914 78.5173 62.1594 76.2719 62.1594 73.5019V25.9444C62.1594 23.1744 59.9139 20.9289 57.144 20.9289H9.58644Z" stroke="url(#paint1_radial_348_8671)" stroke-opacity="0.6" stroke-width="0.363303"/>
</g>
<path d="M41.9667 38.1959H30.0459V47.7815H41.0326V52.2518H30.0459V65.596H24.7527V33.7034H41.9667V38.1959Z" fill="white"/>
</g>
</g>
<defs>
<filter id="filter0_d_348_8671" x="-5.78308" y="12.0281" width="78.2967" height="78.2966" filterUnits="userSpaceOnUse" color-interpolation-filters="sRGB">
<feFlood flood-opacity="0" result="BackgroundImageFix"/>
<feColorMatrix in="SourceAlpha" type="matrix" values="0 0 0 0 0 0 0 0 0 0 0 0 0 0 0 0 0 0 127 0" result="hardAlpha"/>
<feOffset dy="1.45321"/>
<feGaussianBlur stdDeviation="5.08624"/>
<feColorMatrix type="matrix" values="0 0 0 0 0 0 0 0 0 0 0 0 0 0 0 0 0 0 0.25 0"/>
<feBlend mode="normal" in2="BackgroundImageFix" result="effect1_dropShadow_348_8671"/>
<feBlend mode="normal" in="SourceGraphic" in2="effect1_dropShadow_348_8671" result="shape"/>
</filter>
<filter id="filter1_b_348_8671" x="-1.82988" y="14.528" width="70.3902" height="70.3902" filterUnits="userSpaceOnUse" color-interpolation-filters="sRGB">
<feFlood flood-opacity="0" result="BackgroundImageFix"/>
<feGaussianBlur in="BackgroundImageFix" stdDeviation="3.10963"/>
<feComposite in2="SourceAlpha" operator="in" result="effect1_backgroundBlur_348_8671"/>
<feBlend mode="normal" in="SourceGraphic" in2="effect1_backgroundBlur_348_8671" result="shape"/>
</filter>
<linearGradient id="paint0_linear_348_8671" x1="16.2083" y1="30.1938" x2="48.3041" y2="87.1234" gradientUnits="userSpaceOnUse">
<stop stop-color="white" stop-opacity="0.45"/>
<stop offset="1" stop-color="white" stop-opacity="0"/>
<stop offset="1" stop-color="white" stop-opacity="0"/>
</linearGradient>
<radialGradient id="paint1_radial_348_8671" cx="0" cy="0" r="1" gradientUnits="userSpaceOnUse" gradientTransform="translate(42.1322 53.0721) rotate(-32.5165) scale(79.2329 71.9975)">
<stop stop-color="white"/>
<stop offset="1" stop-color="white" stop-opacity="0"/>
</radialGradient>
</defs>
</svg>
