<svg width="90" height="101" viewBox="0 0 90 101" fill="none" xmlns="http://www.w3.org/2000/svg">
<mask id="mask0_348_8673" style="mask-type:alpha" maskUnits="userSpaceOnUse" x="0" y="0" width="90" height="101">
<path d="M1.00002 46.4801L1.00002 4.66037C1.00002 3.42446 1.48151 2.23917 2.33856 1.36525C3.19561 0.491329 4.35802 0.000366211 5.57007 0.000366211L84.6926 0.000366211C85.9046 0.000366211 87.0671 0.491329 87.9241 1.36525C88.7812 2.23917 89.2626 3.42446 89.2626 4.66037V59.3404C89.2626 60.5763 88.7812 61.7616 87.9241 62.6355C87.0671 63.5094 85.9046 64.0004 84.6926 64.0004H59.8419V77.3404C59.8419 78.5763 59.3604 79.7616 58.5033 80.6355C57.6463 81.5094 56.4839 82.0004 55.2718 82.0004H30.7842V95.4883C30.7842 96.1295 30.6604 96.7644 30.4198 97.3567C30.1792 97.9491 29.8265 98.4873 29.3818 98.9407C28.9372 99.3941 28.4094 99.7537 27.8284 99.9991C27.2475 100.244 26.6248 100.371 25.996 100.371H5.42493C4.79612 100.371 4.17347 100.244 3.59253 99.9991C3.01159 99.7537 2.48375 99.3941 2.03912 98.9407C1.5945 98.4873 1.24181 97.9491 1.00119 97.3567C0.760566 96.7644 0.636719 96.1295 0.636719 95.4883L0.636719 48.3456C0.636719 47.7055 0.760165 47.0717 1.00002 46.4801Z" fill="white"/>
</mask>
<g mask="url(#mask0_348_8673)">
<path d="M57.8802 0.000366211L84.6924 0.000366211C85.9045 0.000366211 87.0669 0.491329 87.924 1.36525C88.781 2.23917 89.2625 3.42446 89.2625 4.66037V59.3404C89.2625 60.5763 88.781 61.7616 87.924 62.6355C87.0669 63.5094 85.9045 64.0004 84.6924 64.0004H57.8802L52.6498 29.8337L57.8802 0.000366211Z" fill="#33C481"/>
<path d="M1 4.66L1 50H30.4209V82H55.2718C56.4838 82 57.6463 81.5091 58.5033 80.6351C59.3604 79.7612 59.8418 78.5759 59.8418 77.34L59.8418 0L5.57005 0C4.358 0 3.19559 0.490963 2.33854 1.36488C1.48149 2.2388 1 3.42409 1 4.66Z" fill="#107C41"/>
<path d="M30.4208 72.8733L30.4208 32.5737H0.999916L0.999916 68.2133C0.999916 69.4492 1.4814 70.6345 2.33845 71.5085C3.1955 72.3824 4.35792 72.8733 5.56997 72.8733H30.4208Z" fill="#107C41"/>
<path d="M30.4208 0.000366211L59.8418 0.000366211V34.0004H30.4208L30.4208 0.000366211Z" fill="#21A366"/>
<g filter="url(#filter0_d_348_8673)">
<g filter="url(#filter1_b_348_8673)">
<path d="M5.42484 43.8337H25.996C26.577 43.8337 27.1524 43.9504 27.6893 44.1772C28.2261 44.4039 28.7139 44.7363 29.1248 45.1553C29.5357 45.5743 29.8617 46.0717 30.084 46.6191C30.3064 47.1665 30.4209 47.7532 30.4209 48.3457L30.4209 95.4885C30.4209 96.081 30.3064 96.6677 30.084 97.2151C29.8617 97.7626 29.5357 98.26 29.1248 98.6789C28.7139 99.0979 28.2261 99.4303 27.6893 99.657C27.1524 99.8838 26.577 100 25.996 100H5.42484C4.84376 100 4.26836 99.8838 3.73151 99.657C3.19465 99.4303 2.70686 99.0979 2.29597 98.6789C1.88507 98.26 1.55914 97.7626 1.33677 97.2151C1.11439 96.6677 0.999939 96.081 0.999939 95.4885L0.999939 48.3457C0.999939 47.7532 1.11439 47.1665 1.33677 46.6191C1.55914 46.0717 1.88507 45.5743 2.29597 45.1553C2.70686 44.7363 3.19465 44.4039 3.73151 44.1772C4.26836 43.9504 4.84376 43.8337 5.42484 43.8337Z" fill="url(#paint0_linear_348_8673)"/>
<path d="M3.66083 99.8244L3.73151 99.657L3.66083 99.8244C4.21998 100.061 4.81941 100.182 5.42484 100.182H25.996C26.6014 100.182 27.2008 100.061 27.76 99.8244C28.3191 99.5882 28.8269 99.2421 29.2545 98.8061C29.6821 98.3701 30.0211 97.8527 30.2523 97.2835C30.4835 96.7143 30.6025 96.1044 30.6025 95.4885L30.6025 48.3457C30.6025 47.7299 30.4835 47.1199 30.2523 46.5507C30.0211 45.9815 29.6821 45.4641 29.2545 45.0281C28.8269 44.5921 28.3191 44.246 27.76 44.0099C27.2008 43.7737 26.6014 43.6521 25.996 43.6521H5.42484C4.81941 43.6521 4.21998 43.7737 3.66083 44.0099C3.10168 44.246 2.59387 44.5921 2.16627 45.0281C1.73869 45.4641 1.39969 45.9815 1.16847 46.5507C0.937252 47.1199 0.818288 47.7299 0.818288 48.3457L0.818288 95.4885C0.818288 96.1044 0.937252 96.7143 1.16847 97.2835C1.39969 97.8527 1.73869 98.3701 2.16627 98.8061C2.59387 99.2421 3.10168 99.5882 3.66083 99.8244Z" stroke="#D2D2D2" stroke-opacity="0.42" stroke-width="0.363303"/>
<path d="M3.66083 99.8244L3.73151 99.657L3.66083 99.8244C4.21998 100.061 4.81941 100.182 5.42484 100.182H25.996C26.6014 100.182 27.2008 100.061 27.76 99.8244C28.3191 99.5882 28.8269 99.2421 29.2545 98.8061C29.6821 98.3701 30.0211 97.8527 30.2523 97.2835C30.4835 96.7143 30.6025 96.1044 30.6025 95.4885L30.6025 48.3457C30.6025 47.7299 30.4835 47.1199 30.2523 46.5507C30.0211 45.9815 29.6821 45.4641 29.2545 45.0281C28.8269 44.5921 28.3191 44.246 27.76 44.0099C27.2008 43.7737 26.6014 43.6521 25.996 43.6521H5.42484C4.81941 43.6521 4.21998 43.7737 3.66083 44.0099C3.10168 44.246 2.59387 44.5921 2.16627 45.0281C1.73869 45.4641 1.39969 45.9815 1.16847 46.5507C0.937252 47.1199 0.818288 47.7299 0.818288 48.3457L0.818288 95.4885C0.818288 96.1044 0.937252 96.7143 1.16847 97.2835C1.39969 97.8527 1.73869 98.3701 2.16627 98.8061C2.59387 99.2421 3.10168 99.5882 3.66083 99.8244Z" stroke="url(#paint1_radial_348_8673)" stroke-opacity="0.6" stroke-width="0.363303"/>
</g>
</g>
</g>
<defs>
<filter id="filter0_d_348_8673" x="-9.53582" y="34.7512" width="50.4925" height="77.2383" filterUnits="userSpaceOnUse" color-interpolation-filters="sRGB">
<feFlood flood-opacity="0" result="BackgroundImageFix"/>
<feColorMatrix in="SourceAlpha" type="matrix" values="0 0 0 0 0 0 0 0 0 0 0 0 0 0 0 0 0 0 127 0" result="hardAlpha"/>
<feOffset dy="1.45321"/>
<feGaussianBlur stdDeviation="5.08624"/>
<feColorMatrix type="matrix" values="0 0 0 0 0 0 0 0 0 0 0 0 0 0 0 0 0 0 0.25 0"/>
<feBlend mode="normal" in2="BackgroundImageFix" result="effect1_dropShadow_348_8673"/>
<feBlend mode="normal" in="SourceGraphic" in2="effect1_dropShadow_348_8673" result="shape"/>
</filter>
<filter id="filter1_b_348_8673" x="-5.58261" y="37.2512" width="42.5861" height="69.3318" filterUnits="userSpaceOnUse" color-interpolation-filters="sRGB">
<feFlood flood-opacity="0" result="BackgroundImageFix"/>
<feGaussianBlur in="BackgroundImageFix" stdDeviation="3.10963"/>
<feComposite in2="SourceAlpha" operator="in" result="effect1_backgroundBlur_348_8673"/>
<feBlend mode="normal" in="SourceGraphic" in2="effect1_backgroundBlur_348_8673" result="shape"/>
</filter>
<linearGradient id="paint0_linear_348_8673" x1="6.88956" y1="52.749" x2="43.6088" y2="86.8652" gradientUnits="userSpaceOnUse">
<stop stop-color="white" stop-opacity="0.45"/>
<stop offset="1" stop-color="white" stop-opacity="0"/>
<stop offset="1" stop-color="white" stop-opacity="0"/>
</linearGradient>
<radialGradient id="paint1_radial_348_8673" cx="0" cy="0" r="1" gradientUnits="userSpaceOnUse" gradientTransform="translate(20.2177 75.2041) rotate(-50.5901) scale(54.1058 53.2037)">
<stop stop-color="white"/>
<stop offset="1" stop-color="white" stop-opacity="0"/>
</radialGradient>
</defs>
</svg>
