<svg width="100" height="100" viewBox="0 0 100 100" fill="none" xmlns="http://www.w3.org/2000/svg">
<g filter="url(#filter0_b_335_8348)">
<rect x="1" y="1" width="98" height="98" rx="10" fill="#02235E"/>
</g>
<path d="M31.1503 59.0758L28.1383 52.8718H23.5543V59.0758H21.0463V41.7958H28.0303C28.5103 41.7958 28.9543 41.8278 29.3623 41.8918C30.3063 42.0358 31.1023 42.3598 31.7503 42.8638C32.3983 43.3598 32.8823 43.9918 33.2023 44.7598C33.5303 45.5278 33.6943 46.3838 33.6943 47.3278C33.6943 48.5038 33.4423 49.5358 32.9383 50.4238C32.4423 51.3118 31.7143 51.9638 30.7543 52.3798L34.0183 59.0758H31.1503ZM23.5543 50.4958H27.9343C28.3503 50.4958 28.7143 50.4598 29.0263 50.3878C29.7383 50.2118 30.2663 49.8358 30.6103 49.2598C30.9623 48.6838 31.1383 48.0398 31.1383 47.3278C31.1383 46.6158 30.9623 45.9718 30.6103 45.3958C30.2663 44.8198 29.7383 44.4478 29.0263 44.2798C28.7303 44.1998 28.3663 44.1598 27.9343 44.1598H23.5543V50.4958Z" fill="white"/>
<path d="M43.1476 59.4358C41.4516 59.4358 39.9876 59.0598 38.7556 58.3078C37.5236 57.5558 36.5836 56.5038 35.9356 55.1518C35.2956 53.7918 34.9756 52.2198 34.9756 50.4358C34.9756 48.6518 35.2956 47.0838 35.9356 45.7318C36.5836 44.3718 37.5236 43.3158 38.7556 42.5638C39.9876 41.8118 41.4516 41.4358 43.1476 41.4358C44.8436 41.4358 46.3036 41.8118 47.5276 42.5638C48.7596 43.3158 49.6956 44.3718 50.3356 45.7318C50.9836 47.0838 51.3076 48.6518 51.3076 50.4358C51.3076 52.2198 50.9836 53.7918 50.3356 55.1518C49.6956 56.5038 48.7596 57.5558 47.5276 58.3078C46.3036 59.0598 44.8436 59.4358 43.1476 59.4358ZM43.1476 57.0478C44.3476 57.0558 45.3556 56.7878 46.1716 56.2438C46.9956 55.6998 47.6116 54.9318 48.0196 53.9398C48.4356 52.9398 48.6436 51.7718 48.6436 50.4358C48.6436 49.0998 48.4356 47.9398 48.0196 46.9558C47.6116 45.9638 46.9956 45.1958 46.1716 44.6518C45.3556 44.1078 44.3476 43.8318 43.1476 43.8238C41.9476 43.8158 40.9356 44.0838 40.1116 44.6278C39.2956 45.1718 38.6796 45.9438 38.2636 46.9438C37.8556 47.9358 37.6476 49.0998 37.6396 50.4358C37.6316 51.7718 37.8356 52.9358 38.2516 53.9278C38.6676 54.9118 39.2876 55.6758 40.1116 56.2198C40.9356 56.7638 41.9476 57.0398 43.1476 57.0478Z" fill="white"/>
<path d="M59.2453 59.4358C58.0053 59.4358 56.8853 59.2238 55.8853 58.7998C54.8853 58.3678 54.0613 57.7518 53.4133 56.9518C52.7733 56.1438 52.3613 55.1998 52.1773 54.1198L54.7933 53.7238C54.9693 54.4198 55.2733 55.0198 55.7053 55.5238C56.1453 56.0278 56.6813 56.4118 57.3133 56.6758C57.9453 56.9398 58.6373 57.0718 59.3893 57.0718C60.0853 57.0718 60.7293 56.9598 61.3213 56.7358C61.9133 56.5118 62.3813 56.1918 62.7253 55.7758C63.0773 55.3598 63.2533 54.8718 63.2533 54.3118C63.2533 53.7198 63.0613 53.2478 62.6773 52.8958C62.3013 52.5358 61.7693 52.2518 61.0813 52.0438L56.6533 50.7358C55.5573 50.4158 54.6493 49.9278 53.9293 49.2718C53.2093 48.6158 52.8493 47.6598 52.8493 46.4038C52.8493 45.3638 53.1173 44.4718 53.6533 43.7278C54.1973 42.9758 54.9373 42.4078 55.8733 42.0238C56.8093 41.6318 57.8653 41.4398 59.0413 41.4478C60.2013 41.4558 61.2453 41.6638 62.1733 42.0718C63.1013 42.4718 63.8693 43.0518 64.4773 43.8118C65.0933 44.5638 65.5173 45.4638 65.7493 46.5118L63.0613 46.9678C62.9333 46.3198 62.6693 45.7598 62.2693 45.2878C61.8773 44.8078 61.3893 44.4438 60.8053 44.1958C60.2213 43.9478 59.5893 43.8238 58.9093 43.8238C58.2853 43.8238 57.7133 43.9278 57.1933 44.1358C56.6733 44.3438 56.2613 44.6358 55.9573 45.0118C55.6533 45.3878 55.5013 45.8118 55.5013 46.2838C55.5013 46.9238 55.7453 47.4118 56.2333 47.7478C56.7293 48.0758 57.3813 48.3518 58.1893 48.5758L61.3813 49.4758C62.1653 49.6918 62.8653 49.9478 63.4813 50.2438C64.1053 50.5398 64.6573 51.0078 65.1373 51.6478C65.6253 52.2798 65.8693 53.1118 65.8693 54.1438C65.8693 55.2638 65.5693 56.2238 64.9693 57.0238C64.3773 57.8158 63.5773 58.4158 62.5693 58.8238C61.5693 59.2318 60.4613 59.4358 59.2453 59.4358Z" fill="white"/>
<path d="M78.7466 59.0758L77.4626 55.1758H70.3706L69.1106 59.0758H66.5066L72.1226 41.7958H75.7346L81.3506 59.0758H78.7466ZM71.1386 52.8238H76.6946L73.8986 44.3038L71.1386 52.8238Z" fill="white"/>
<defs>
<filter id="filter0_b_335_8348" x="-5.21927" y="-5.21927" width="110.439" height="110.439" filterUnits="userSpaceOnUse" color-interpolation-filters="sRGB">
<feFlood flood-opacity="0" result="BackgroundImageFix"/>
<feGaussianBlur in="BackgroundImageFix" stdDeviation="3.10963"/>
<feComposite in2="SourceAlpha" operator="in" result="effect1_backgroundBlur_335_8348"/>
<feBlend mode="normal" in="SourceGraphic" in2="effect1_backgroundBlur_335_8348" result="shape"/>
</filter>
</defs>
</svg>
