<svg width="101" height="101" viewBox="0 0 101 101" fill="none" xmlns="http://www.w3.org/2000/svg">
<g filter="url(#filter0_b_335_8352)">
<rect x="2" y="2" width="98" height="98" rx="10" fill="#FC3F1D"/>
</g>
<path d="M36.1878 43.6464V60.9264H33.6798V54.7224H29.0958L26.0838 60.9264H23.2158L26.4798 54.2304C25.5198 53.8144 24.7878 53.1624 24.2838 52.2744C23.7878 51.3864 23.5398 50.3544 23.5398 49.1784C23.5398 48.2344 23.6998 47.3784 24.0198 46.6104C24.3478 45.8424 24.8358 45.2104 25.4838 44.7144C26.1318 44.2104 26.9278 43.8864 27.8718 43.7424C28.2798 43.6784 28.7238 43.6464 29.2038 43.6464H36.1878ZM33.6798 46.0104H29.2998C28.8758 46.0104 28.5118 46.0504 28.2078 46.1304C27.4958 46.2984 26.9638 46.6704 26.6118 47.2464C26.2678 47.8224 26.0958 48.4664 26.0958 49.1784C26.0958 49.8904 26.2678 50.5344 26.6118 51.1104C26.9638 51.6864 27.4958 52.0624 28.2078 52.2384C28.5198 52.3104 28.8838 52.3464 29.2998 52.3464H33.6798V46.0104Z" fill="white"/>
<path d="M44.9092 50.1384C45.8212 50.2584 46.6172 50.5704 47.2972 51.0744C47.9852 51.5704 48.5132 52.2104 48.8812 52.9944C49.2492 53.7704 49.4332 54.6264 49.4332 55.5624C49.4332 56.6424 49.1772 57.6144 48.6652 58.4784C48.1532 59.3424 47.4572 60.0224 46.5772 60.5184C45.6972 61.0064 44.7252 61.2504 43.6612 61.2504C42.8052 61.2504 41.9972 61.0904 41.2372 60.7704C40.4852 60.4424 39.8332 59.9784 39.2812 59.3784C38.7372 58.7704 38.3452 58.0624 38.1052 57.2544L40.5292 56.5824C40.7532 57.3184 41.1492 57.8864 41.7172 58.2864C42.2852 58.6864 42.9332 58.8824 43.6612 58.8744C44.2852 58.8664 44.8372 58.7224 45.3172 58.4424C45.8052 58.1544 46.1852 57.7624 46.4572 57.2664C46.7292 56.7624 46.8652 56.1944 46.8652 55.5624C46.8652 54.9304 46.7292 54.3624 46.4572 53.8584C46.1852 53.3544 45.8052 52.9624 45.3172 52.6824C44.8292 52.3944 44.2692 52.2504 43.6372 52.2504C43.0852 52.2504 42.5412 52.3944 42.0052 52.6824L40.8292 50.7024L46.1092 46.0344H38.7892V43.6464H49.1812V46.0344L44.9092 50.1384Z" fill="white"/>
<path d="M58.1155 49.8144C59.1715 49.8144 60.1235 50.0624 60.9715 50.5584C61.8275 51.0544 62.4955 51.7344 62.9755 52.5984C63.4635 53.4624 63.7075 54.4264 63.7075 55.4904C63.7075 56.5464 63.4395 57.5184 62.9035 58.4064C62.3675 59.2944 61.6435 59.9984 60.7315 60.5184C59.8275 61.0304 58.8435 61.2864 57.7795 61.2864C56.6755 61.2864 55.6715 61.0224 54.7675 60.4944C53.8635 59.9584 53.1475 59.2224 52.6195 58.2864C52.0995 57.3504 51.8395 56.2984 51.8395 55.1304V49.6224C51.8395 48.3744 52.0995 47.2744 52.6195 46.3224C53.1395 45.3624 53.8675 44.6184 54.8035 44.0904C55.7475 43.5624 56.8235 43.2984 58.0315 43.2984C58.9515 43.2984 59.8075 43.4744 60.5995 43.8264C61.3995 44.1704 62.0915 44.6784 62.6755 45.3504L60.8395 47.0664C60.5035 46.6344 60.0875 46.2944 59.5915 46.0464C59.1035 45.7984 58.5835 45.6744 58.0315 45.6744C57.3355 45.6744 56.7115 45.8424 56.1595 46.1784C55.6075 46.5144 55.1755 46.9624 54.8635 47.5224C54.5515 48.0744 54.3955 48.6664 54.3955 49.2984V51.3624C54.8835 50.8744 55.4475 50.4944 56.0875 50.2224C56.7355 49.9504 57.4115 49.8144 58.1155 49.8144ZM57.7795 58.8744C58.3955 58.8744 58.9595 58.7224 59.4715 58.4184C59.9915 58.1144 60.4035 57.7064 60.7075 57.1944C61.0115 56.6744 61.1635 56.1064 61.1635 55.4904C61.1635 54.8744 61.0115 54.3104 60.7075 53.7984C60.4115 53.2784 60.0035 52.8664 59.4835 52.5624C58.9715 52.2584 58.4075 52.1064 57.7915 52.1064C57.1755 52.1064 56.6075 52.2584 56.0875 52.5624C55.5675 52.8664 55.1555 53.2784 54.8515 53.7984C54.5475 54.3104 54.3955 54.8744 54.3955 55.4904C54.3955 56.0984 54.5475 56.6624 54.8515 57.1824C55.1555 57.7024 55.5635 58.1144 56.0755 58.4184C56.5955 58.7224 57.1635 58.8744 57.7795 58.8744Z" fill="white"/>
<path d="M72.0498 61.2864C70.8898 61.2864 69.8538 61.0304 68.9418 60.5184C68.0298 59.9984 67.3138 59.2824 66.7938 58.3704C66.2818 57.4584 66.0258 56.4224 66.0258 55.2624V49.3104C66.0258 48.1504 66.2818 47.1144 66.7938 46.2024C67.3138 45.2904 68.0298 44.5784 68.9418 44.0664C69.8538 43.5464 70.8898 43.2864 72.0498 43.2864C73.2098 43.2864 74.2458 43.5464 75.1578 44.0664C76.0698 44.5784 76.7818 45.2904 77.2938 46.2024C77.8138 47.1144 78.0738 48.1504 78.0738 49.3104V55.2624C78.0738 56.4224 77.8138 57.4584 77.2938 58.3704C76.7818 59.2824 76.0698 59.9984 75.1578 60.5184C74.2458 61.0304 73.2098 61.2864 72.0498 61.2864ZM72.0498 58.8864C72.6818 58.8864 73.2618 58.7344 73.7898 58.4304C74.3258 58.1184 74.7458 57.6984 75.0498 57.1704C75.3618 56.6344 75.5178 56.0504 75.5178 55.4184V49.1304C75.5178 48.4984 75.3618 47.9184 75.0498 47.3904C74.7458 46.8624 74.3258 46.4464 73.7898 46.1424C73.2618 45.8304 72.6818 45.6744 72.0498 45.6744C71.4178 45.6744 70.8338 45.8304 70.2978 46.1424C69.7698 46.4464 69.3498 46.8624 69.0378 47.3904C68.7338 47.9184 68.5818 48.4984 68.5818 49.1304V55.4184C68.5818 56.0504 68.7338 56.6344 69.0378 57.1704C69.3498 57.6984 69.7698 58.1184 70.2978 58.4304C70.8338 58.7344 71.4178 58.8864 72.0498 58.8864Z" fill="white"/>
<defs>
<filter id="filter0_b_335_8352" x="-4.21927" y="-4.21927" width="110.439" height="110.439" filterUnits="userSpaceOnUse" color-interpolation-filters="sRGB">
<feFlood flood-opacity="0" result="BackgroundImageFix"/>
<feGaussianBlur in="BackgroundImageFix" stdDeviation="3.10963"/>
<feComposite in2="SourceAlpha" operator="in" result="effect1_backgroundBlur_335_8352"/>
<feBlend mode="normal" in="SourceGraphic" in2="effect1_backgroundBlur_335_8352" result="shape"/>
</filter>
</defs>
</svg>
