<svg width="101" height="101" viewBox="0 0 101 101" fill="none" xmlns="http://www.w3.org/2000/svg">
<g filter="url(#filter0_b_335_8360)">
<rect x="2" y="2" width="98" height="98" rx="10" fill="#0264D4"/>
</g>
<path d="M34.0632 38.1382V48.9382H32.4957V45.0607H29.6307L27.7482 48.9382H25.9557L27.9957 44.7532C27.3957 44.4932 26.9382 44.0857 26.6232 43.5307C26.3132 42.9757 26.1582 42.3307 26.1582 41.5957C26.1582 41.0057 26.2582 40.4707 26.4582 39.9907C26.6632 39.5107 26.9682 39.1157 27.3732 38.8057C27.7782 38.4907 28.2757 38.2882 28.8657 38.1982C29.1207 38.1582 29.3982 38.1382 29.6982 38.1382H34.0632ZM32.4957 39.6157H29.7582C29.4932 39.6157 29.2657 39.6407 29.0757 39.6907C28.6307 39.7957 28.2982 40.0282 28.0782 40.3882C27.8632 40.7482 27.7557 41.1507 27.7557 41.5957C27.7557 42.0407 27.8632 42.4432 28.0782 42.8032C28.2982 43.1632 28.6307 43.3982 29.0757 43.5082C29.2707 43.5532 29.4982 43.5757 29.7582 43.5757H32.4957V39.6157Z" fill="white"/>
<path d="M35.704 40.8382H37.2715V44.1457H41.224V40.8382H42.7915V48.9382H41.224V45.6232H37.2715V48.9382H35.704V40.8382Z" fill="white"/>
<path d="M43.8461 47.6782C44.1411 47.6782 44.3761 47.6157 44.5511 47.4907C44.7311 47.3607 44.8736 47.1582 44.9786 46.8832C45.0886 46.6032 45.1836 46.2132 45.2636 45.7132C45.3636 45.1032 45.4411 44.4257 45.4961 43.6807C45.5561 42.9307 45.6136 41.9832 45.6686 40.8382H51.4736V47.6782H52.2686V50.7382H50.7836V48.9382H45.3386V50.7382H43.8461V47.6782ZM49.8986 42.0982H47.0636C46.9586 43.9332 46.8411 45.2357 46.7111 46.0057C46.6461 46.4407 46.5686 46.7857 46.4786 47.0407C46.3936 47.2907 46.2636 47.5032 46.0886 47.6782H49.8986V42.0982Z" fill="white"/>
<path d="M54.5425 45.3307C54.6075 46.0857 54.835 46.6682 55.225 47.0782C55.615 47.4832 56.15 47.6857 56.83 47.6857C57.315 47.6857 57.7375 47.5757 58.0975 47.3557C58.4575 47.1357 58.7375 46.8157 58.9375 46.3957L60.475 46.8832C60.165 47.5982 59.69 48.1582 59.05 48.5632C58.41 48.9632 57.695 49.1632 56.905 49.1632C56.105 49.1632 55.4 48.9882 54.79 48.6382C54.18 48.2832 53.705 47.7882 53.365 47.1532C53.03 46.5132 52.8625 45.7807 52.8625 44.9557C52.8625 44.0807 53.0275 43.3157 53.3575 42.6607C53.6875 42.0057 54.1525 41.5007 54.7525 41.1457C55.3525 40.7907 56.045 40.6132 56.83 40.6132C57.605 40.6132 58.275 40.7857 58.84 41.1307C59.405 41.4757 59.8375 41.9707 60.1375 42.6157C60.4425 43.2557 60.595 44.0132 60.595 44.8882C60.595 44.9832 60.59 45.1307 60.58 45.3307H54.5425ZM56.89 42.0007C56.225 42.0007 55.6975 42.1807 55.3075 42.5407C54.9225 42.8957 54.68 43.4182 54.58 44.1082H58.975C58.89 43.3932 58.675 42.8632 58.33 42.5182C57.99 42.1732 57.51 42.0007 56.89 42.0007Z" fill="white"/>
<path d="M61.8127 40.8382H63.4027V44.7382L66.5827 40.8382H68.5777L65.2177 44.8882L68.9227 48.9382H66.7927L63.4027 45.0382V48.9382H61.8052L61.8127 40.8382Z" fill="white"/>
<path d="M72.5474 49.1632C71.7374 49.1632 71.0374 48.9807 70.4474 48.6157C69.8624 48.2507 69.4149 47.7457 69.1049 47.1007C68.7949 46.4557 68.6374 45.7182 68.6324 44.8882C68.6374 44.0532 68.7975 43.3132 69.1124 42.6682C69.4324 42.0182 69.8874 41.5132 70.4774 41.1532C71.0724 40.7932 71.7699 40.6132 72.5699 40.6132C73.1549 40.6132 73.6874 40.7132 74.1674 40.9132C74.6524 41.1132 75.0574 41.3982 75.3824 41.7682C75.7124 42.1382 75.9449 42.5757 76.0799 43.0807L74.5199 43.5307C74.3649 43.0807 74.1099 42.7282 73.7549 42.4732C73.4049 42.2182 73.0024 42.0907 72.5474 42.0907C71.8074 42.0907 71.2474 42.3457 70.8674 42.8557C70.4924 43.3607 70.3024 44.0382 70.2974 44.8882C70.3024 45.7482 70.4974 46.4307 70.8824 46.9357C71.2674 47.4357 71.8224 47.6857 72.5474 47.6857C73.0374 47.6857 73.4399 47.5732 73.7549 47.3482C74.0749 47.1182 74.3199 46.7807 74.4899 46.3357L76.0799 46.7107C75.8149 47.5057 75.3774 48.1132 74.7674 48.5332C74.1574 48.9532 73.4174 49.1632 72.5474 49.1632Z" fill="white"/>
<path d="M33.875 63.4607C34.34 63.4607 34.7075 63.3082 34.9775 63.0032C35.2525 62.6932 35.4525 62.2907 35.5775 61.7957C35.7025 61.3007 35.8 60.6882 35.87 59.9582C35.93 59.3232 35.985 58.6457 36.035 57.9257C36.085 57.2007 36.13 56.4732 36.17 55.7432L36.2675 54.1307L43.1825 54.1382V63.4607H43.985V66.7382H42.41V64.9382H35.4425V66.7382H33.875V63.4607ZM41.615 55.6157L37.715 55.6082L37.64 56.9132C37.63 57.0682 37.605 57.4907 37.565 58.1807C37.525 58.8707 37.4675 59.5732 37.3925 60.2882C37.3325 60.9032 37.27 61.3907 37.205 61.7507C37.145 62.1057 37.0575 62.4207 36.9425 62.6957C36.8275 62.9707 36.6625 63.2257 36.4475 63.4607H41.615V55.6157Z" fill="white"/>
<path d="M52.0035 64.9382H50.496V59.3057L46.446 64.9382H45.171V56.8382H46.6785V62.3582L50.736 56.8382H52.0035V64.9382Z" fill="white"/>
<path d="M57.1144 65.1632C56.3044 65.1632 55.6044 64.9807 55.0144 64.6157C54.4294 64.2507 53.9819 63.7457 53.6719 63.1007C53.3619 62.4557 53.2044 61.7182 53.1994 60.8882C53.2044 60.0532 53.3644 59.3132 53.6794 58.6682C53.9994 58.0182 54.4544 57.5132 55.0444 57.1532C55.6394 56.7932 56.3369 56.6132 57.1369 56.6132C57.7219 56.6132 58.2544 56.7132 58.7344 56.9132C59.2194 57.1132 59.6244 57.3982 59.9494 57.7682C60.2794 58.1382 60.5119 58.5757 60.6469 59.0807L59.0869 59.5307C58.9319 59.0807 58.6769 58.7282 58.3219 58.4732C57.9719 58.2182 57.5694 58.0907 57.1144 58.0907C56.3744 58.0907 55.8144 58.3457 55.4344 58.8557C55.0594 59.3607 54.8694 60.0382 54.8644 60.8882C54.8694 61.7482 55.0644 62.4307 55.4494 62.9357C55.8344 63.4357 56.3894 63.6857 57.1144 63.6857C57.6044 63.6857 58.0069 63.5732 58.3219 63.3482C58.6419 63.1182 58.8869 62.7807 59.0569 62.3357L60.6469 62.7107C60.3819 63.5057 59.9444 64.1132 59.3344 64.5332C58.7244 64.9532 57.9844 65.1632 57.1144 65.1632Z" fill="white"/>
<path d="M61.7248 56.8382H63.3148V60.7382L66.4948 56.8382H68.4898L65.1298 60.8882L68.8348 64.9382H66.7048L63.3148 61.0382V64.9382H61.7173L61.7248 56.8382Z" fill="white"/>
<defs>
<filter id="filter0_b_335_8360" x="-4.21927" y="-4.21927" width="110.439" height="110.439" filterUnits="userSpaceOnUse" color-interpolation-filters="sRGB">
<feFlood flood-opacity="0" result="BackgroundImageFix"/>
<feGaussianBlur in="BackgroundImageFix" stdDeviation="3.10963"/>
<feComposite in2="SourceAlpha" operator="in" result="effect1_backgroundBlur_335_8360"/>
<feBlend mode="normal" in="SourceGraphic" in2="effect1_backgroundBlur_335_8360" result="shape"/>
</filter>
</defs>
</svg>
