<svg width="101" height="101" viewBox="0 0 101 101" fill="none" xmlns="http://www.w3.org/2000/svg">
<g filter="url(#filter0_b_335_8332)">
<rect x="1" y="1" width="98" height="98" rx="10" fill="#EC4323"/>
</g>
<path d="M27.7149 43.5116L24.0624 37.1741H25.8924L28.5099 41.7116L31.1274 37.1741H32.9574L29.3049 43.5116V47.9741H27.7149V43.5116Z" fill="white"/>
<path d="M38.6603 41.1941C38.7753 41.4391 38.8503 41.7016 38.8853 41.9816C38.9253 42.2566 38.9453 42.5916 38.9453 42.9866V47.9741H37.5578V46.7966C37.2228 47.2716 36.8153 47.6241 36.3353 47.8541C35.8603 48.0841 35.2953 48.1991 34.6403 48.1991C34.0603 48.1991 33.5653 48.0916 33.1553 47.8766C32.7453 47.6566 32.4328 47.3641 32.2178 46.9991C32.0078 46.6291 31.9028 46.2191 31.9028 45.7691C31.9028 44.5741 32.5403 43.7741 33.8153 43.3691C34.2003 43.2541 34.6353 43.1566 35.1203 43.0766C35.6103 42.9916 36.2878 42.8891 37.1528 42.7691L37.4003 42.7391C37.3753 42.1691 37.2203 41.7541 36.9353 41.4941C36.6503 41.2291 36.1953 41.0966 35.5703 41.0966C35.1153 41.0966 34.7153 41.2016 34.3703 41.4116C34.0253 41.6216 33.7878 41.9416 33.6578 42.3716L32.1953 41.9216C32.3953 41.2066 32.7803 40.6491 33.3503 40.2491C33.9253 39.8491 34.6703 39.6491 35.5853 39.6491C36.3303 39.6491 36.9678 39.7766 37.4978 40.0316C38.0278 40.2866 38.4153 40.6741 38.6603 41.1941ZM34.9178 46.9166C35.3428 46.9166 35.7178 46.8416 36.0428 46.6916C36.3678 46.5366 36.6278 46.3366 36.8228 46.0916C37.0228 45.8466 37.1553 45.5866 37.2203 45.3116C37.3203 45.0216 37.3753 44.5991 37.3853 44.0441L37.1903 44.0741C36.4603 44.1791 35.9128 44.2641 35.5478 44.3291C35.1878 44.3941 34.8628 44.4691 34.5728 44.5541C34.2228 44.6741 33.9478 44.8291 33.7478 45.0191C33.5528 45.2091 33.4553 45.4541 33.4553 45.7541C33.4553 46.0891 33.5778 46.3666 33.8228 46.5866C34.0728 46.8066 34.4378 46.9166 34.9178 46.9166Z" fill="white"/>
<path d="M44.5154 39.6566C45.3654 39.6566 46.0279 39.8716 46.5029 40.3016C46.9829 40.7266 47.3054 41.2241 47.4704 41.7941C47.6354 42.3641 47.7179 42.9241 47.7179 43.4741V47.9741H46.1279V43.9916C46.1279 43.1966 45.9804 42.5241 45.6854 41.9741C45.3904 41.4191 44.8554 41.1416 44.0804 41.1416C43.4654 41.1416 42.9679 41.3516 42.5879 41.7716C42.2129 42.1916 42.0254 42.8541 42.0254 43.7591V47.9741H40.4354V39.8741H41.8379V40.8416C42.1429 40.4616 42.5204 40.1691 42.9704 39.9641C43.4204 39.7591 43.9354 39.6566 44.5154 39.6566Z" fill="white"/>
<path d="M56.1463 37.1741V47.9741H54.7513V47.2316C54.4513 47.5416 54.0988 47.7816 53.6938 47.9516C53.2888 48.1166 52.8363 48.1991 52.3363 48.1991C51.6013 48.1991 50.9563 48.0141 50.4013 47.6441C49.8463 47.2691 49.4188 46.7566 49.1188 46.1066C48.8188 45.4566 48.6688 44.7266 48.6688 43.9166C48.6688 43.1016 48.8188 42.3716 49.1188 41.7266C49.4238 41.0766 49.8538 40.5691 50.4088 40.2041C50.9688 39.8341 51.6213 39.6491 52.3663 39.6491C53.2463 39.6491 53.9813 39.9091 54.5713 40.4291V37.1741H56.1463ZM52.5538 46.7816C53.2938 46.7816 53.8438 46.5266 54.2038 46.0166C54.5688 45.5016 54.7513 44.8016 54.7513 43.9166C54.7513 43.0416 54.5713 42.3491 54.2113 41.8391C53.8563 41.3241 53.3213 41.0666 52.6063 41.0666C52.1013 41.0666 51.6788 41.1916 51.3388 41.4416C50.9988 41.6866 50.7463 42.0241 50.5813 42.4541C50.4163 42.8841 50.3338 43.3716 50.3338 43.9166C50.3338 44.4666 50.4163 44.9566 50.5813 45.3866C50.7463 45.8166 50.9938 46.1566 51.3238 46.4066C51.6588 46.6566 52.0688 46.7816 52.5538 46.7816Z" fill="white"/>
<path d="M59.0248 44.3666C59.0898 45.1216 59.3173 45.7041 59.7073 46.1141C60.0973 46.5191 60.6323 46.7216 61.3123 46.7216C61.7973 46.7216 62.2198 46.6116 62.5798 46.3916C62.9398 46.1716 63.2198 45.8516 63.4198 45.4316L64.9573 45.9191C64.6473 46.6341 64.1723 47.1941 63.5323 47.5991C62.8923 47.9991 62.1773 48.1991 61.3873 48.1991C60.5873 48.1991 59.8823 48.0241 59.2723 47.6741C58.6623 47.3191 58.1873 46.8241 57.8473 46.1891C57.5123 45.5491 57.3448 44.8166 57.3448 43.9916C57.3448 43.1166 57.5098 42.3516 57.8398 41.6966C58.1698 41.0416 58.6348 40.5366 59.2348 40.1816C59.8348 39.8266 60.5273 39.6491 61.3123 39.6491C62.0873 39.6491 62.7573 39.8216 63.3223 40.1666C63.8873 40.5116 64.3198 41.0066 64.6198 41.6516C64.9248 42.2916 65.0773 43.0491 65.0773 43.9241C65.0773 44.0191 65.0723 44.1666 65.0623 44.3666H59.0248ZM61.3723 41.0366C60.7073 41.0366 60.1798 41.2166 59.7898 41.5766C59.4048 41.9316 59.1623 42.4541 59.0623 43.1441H63.4573C63.3723 42.4291 63.1573 41.8991 62.8123 41.5541C62.4723 41.2091 61.9923 41.0366 61.3723 41.0366Z" fill="white"/>
<path d="M68.132 43.8791L65.1695 39.8741H67.0295L69.047 42.6566L71.042 39.8741H72.902L69.9395 43.8791L72.977 47.9741H71.1095L69.047 45.1016L66.9695 47.9741H65.102L68.132 43.8791Z" fill="white"/>
<path d="M25.6428 64.1991C24.5828 64.1991 23.6678 63.9641 22.8978 63.4941C22.1278 63.0241 21.5403 62.3666 21.1353 61.5216C20.7353 60.6716 20.5353 59.6891 20.5353 58.5741C20.5353 57.4591 20.7353 56.4791 21.1353 55.6341C21.5403 54.7841 22.1278 54.1241 22.8978 53.6541C23.6678 53.1841 24.5828 52.9491 25.6428 52.9491C26.4578 52.9491 27.1878 53.0916 27.8328 53.3766C28.4828 53.6566 29.0253 54.0591 29.4603 54.5841C29.9003 55.1041 30.2278 55.7216 30.4428 56.4366L28.8528 56.8641C28.6328 56.0941 28.2528 55.4991 27.7128 55.0791C27.1728 54.6541 26.4828 54.4416 25.6428 54.4416C24.8928 54.4416 24.2603 54.6116 23.7453 54.9516C23.2303 55.2916 22.8428 55.7716 22.5828 56.3916C22.3278 57.0116 22.1978 57.7391 22.1928 58.5741C22.1878 59.4091 22.3153 60.1366 22.5753 60.7566C22.8353 61.3766 23.2228 61.8566 23.7378 62.1966C24.2578 62.5366 24.8928 62.7066 25.6428 62.7066C26.4828 62.7066 27.1728 62.4966 27.7128 62.0766C28.2528 61.6516 28.6328 61.0541 28.8528 60.2841L30.4428 60.7116C30.2278 61.4266 29.9003 62.0466 29.4603 62.5716C29.0253 63.0916 28.4828 63.4941 27.8328 63.7791C27.1878 64.0591 26.4578 64.1991 25.6428 64.1991Z" fill="white"/>
<path d="M35.1599 64.1991C34.3649 64.1991 33.6674 64.0191 33.0674 63.6591C32.4674 63.2941 32.0049 62.7891 31.6799 62.1441C31.3549 61.4941 31.1924 60.7516 31.1924 59.9166C31.1924 59.0766 31.3574 58.3341 31.6874 57.6891C32.0174 57.0441 32.4824 56.5441 33.0824 56.1891C33.6824 55.8291 34.3749 55.6491 35.1599 55.6491C35.9549 55.6491 36.6524 55.8291 37.2524 56.1891C37.8574 56.5491 38.3224 57.0541 38.6474 57.7041C38.9724 58.3491 39.1349 59.0866 39.1349 59.9166C39.1349 60.7566 38.9699 61.5016 38.6399 62.1516C38.3149 62.7966 37.8524 63.2991 37.2524 63.6591C36.6524 64.0191 35.9549 64.1991 35.1599 64.1991ZM35.1599 62.7216C35.9099 62.7216 36.4824 62.4691 36.8774 61.9641C37.2724 61.4541 37.4699 60.7716 37.4699 59.9166C37.4699 59.0516 37.2724 58.3716 36.8774 57.8766C36.4824 57.3766 35.9099 57.1266 35.1599 57.1266C34.3999 57.1266 33.8249 57.3766 33.4349 57.8766C33.0499 58.3766 32.8574 59.0566 32.8574 59.9166C32.8574 60.7866 33.0549 61.4716 33.4499 61.9716C33.8449 62.4716 34.4149 62.7216 35.1599 62.7216Z" fill="white"/>
<path d="M44.4055 55.6566C45.2555 55.6566 45.918 55.8716 46.393 56.3016C46.873 56.7266 47.1955 57.2241 47.3605 57.7941C47.5255 58.3641 47.608 58.9241 47.608 59.4741V63.9741H46.018V59.9916C46.018 59.1966 45.8705 58.5241 45.5755 57.9741C45.2805 57.4191 44.7455 57.1416 43.9705 57.1416C43.3555 57.1416 42.858 57.3516 42.478 57.7716C42.103 58.1916 41.9155 58.8541 41.9155 59.7591V63.9741H40.3255V55.8741H41.728V56.8416C42.033 56.4616 42.4105 56.1691 42.8605 55.9641C43.3105 55.7591 43.8255 55.6566 44.4055 55.6566Z" fill="white"/>
<path d="M53.184 55.6566C54.034 55.6566 54.6965 55.8716 55.1715 56.3016C55.6515 56.7266 55.974 57.2241 56.139 57.7941C56.304 58.3641 56.3865 58.9241 56.3865 59.4741V63.9741H54.7965V59.9916C54.7965 59.1966 54.649 58.5241 54.354 57.9741C54.059 57.4191 53.524 57.1416 52.749 57.1416C52.134 57.1416 51.6365 57.3516 51.2565 57.7716C50.8815 58.1916 50.694 58.8541 50.694 59.7591V63.9741H49.104V55.8741H50.5065V56.8416C50.8115 56.4616 51.189 56.1691 51.639 55.9641C52.089 55.7591 52.604 55.6566 53.184 55.6566Z" fill="white"/>
<path d="M59.0175 60.3666C59.0825 61.1216 59.31 61.7041 59.7 62.1141C60.09 62.5191 60.625 62.7216 61.305 62.7216C61.79 62.7216 62.2125 62.6116 62.5725 62.3916C62.9325 62.1716 63.2125 61.8516 63.4125 61.4316L64.95 61.9191C64.64 62.6341 64.165 63.1941 63.525 63.5991C62.885 63.9991 62.17 64.1991 61.38 64.1991C60.58 64.1991 59.875 64.0241 59.265 63.6741C58.655 63.3191 58.18 62.8241 57.84 62.1891C57.505 61.5491 57.3375 60.8166 57.3375 59.9916C57.3375 59.1166 57.5025 58.3516 57.8325 57.6966C58.1625 57.0416 58.6275 56.5366 59.2275 56.1816C59.8275 55.8266 60.52 55.6491 61.305 55.6491C62.08 55.6491 62.75 55.8216 63.315 56.1666C63.88 56.5116 64.3125 57.0066 64.6125 57.6516C64.9175 58.2916 65.07 59.0491 65.07 59.9241C65.07 60.0191 65.065 60.1666 65.055 60.3666H59.0175ZM61.365 57.0366C60.7 57.0366 60.1725 57.2166 59.7825 57.5766C59.3975 57.9316 59.155 58.4541 59.055 59.1441H63.45C63.365 58.4291 63.15 57.8991 62.805 57.5541C62.465 57.2091 61.985 57.0366 61.365 57.0366Z" fill="white"/>
<path d="M69.7527 64.1991C68.9427 64.1991 68.2427 64.0166 67.6527 63.6516C67.0677 63.2866 66.6202 62.7816 66.3102 62.1366C66.0002 61.4916 65.8427 60.7541 65.8377 59.9241C65.8427 59.0891 66.0027 58.3491 66.3177 57.7041C66.6377 57.0541 67.0927 56.5491 67.6827 56.1891C68.2777 55.8291 68.9752 55.6491 69.7752 55.6491C70.3602 55.6491 70.8927 55.7491 71.3727 55.9491C71.8577 56.1491 72.2627 56.4341 72.5877 56.8041C72.9177 57.1741 73.1502 57.6116 73.2852 58.1166L71.7252 58.5666C71.5702 58.1166 71.3152 57.7641 70.9602 57.5091C70.6102 57.2541 70.2077 57.1266 69.7527 57.1266C69.0127 57.1266 68.4527 57.3816 68.0727 57.8916C67.6977 58.3966 67.5077 59.0741 67.5027 59.9241C67.5077 60.7841 67.7027 61.4666 68.0877 61.9716C68.4727 62.4716 69.0277 62.7216 69.7527 62.7216C70.2427 62.7216 70.6452 62.6091 70.9602 62.3841C71.2802 62.1541 71.5252 61.8166 71.6952 61.3716L73.2852 61.7466C73.0202 62.5416 72.5827 63.1491 71.9727 63.5691C71.3627 63.9891 70.6227 64.1991 69.7527 64.1991Z" fill="white"/>
<path d="M76.5906 60.7116V61.1391C76.5906 61.3941 76.6006 61.6016 76.6206 61.7616C76.6406 61.9166 76.6856 62.0516 76.7556 62.1666C76.8756 62.3666 77.0431 62.5116 77.2581 62.6016C77.4781 62.6866 77.7456 62.7291 78.0606 62.7291C78.3306 62.7291 78.6431 62.7016 78.9981 62.6466V63.9741C78.5331 64.0641 78.1056 64.1091 77.7156 64.1091C77.1556 64.1091 76.6656 64.0191 76.2456 63.8391C75.8306 63.6591 75.5206 63.3766 75.3156 62.9916C75.1906 62.7566 75.1081 62.5166 75.0681 62.2716C75.0331 62.0216 75.0156 61.7191 75.0156 61.3641V60.7866V57.1341H73.4631V55.8741H75.0156V53.6241H76.5906V55.8741H78.9981V57.1341H76.5906V60.7116Z" fill="white"/>
<defs>
<filter id="filter0_b_335_8332" x="-5.21927" y="-5.21927" width="110.439" height="110.439" filterUnits="userSpaceOnUse" color-interpolation-filters="sRGB">
<feFlood flood-opacity="0" result="BackgroundImageFix"/>
<feGaussianBlur in="BackgroundImageFix" stdDeviation="3.10963"/>
<feComposite in2="SourceAlpha" operator="in" result="effect1_backgroundBlur_335_8332"/>
<feBlend mode="normal" in="SourceGraphic" in2="effect1_backgroundBlur_335_8332" result="shape"/>
</filter>
</defs>
</svg>
