<svg width="100" height="100" viewBox="0 0 100 100" fill="none" xmlns="http://www.w3.org/2000/svg">
<g filter="url(#filter0_b_335_8336)">
<rect x="1" y="1" width="98" height="98" rx="10" fill="#1D84E2"/>
</g>
<path d="M21.5803 29.7985H24.1843L28.9723 44.5465L33.8203 29.7985H36.4243L30.8083 47.0785H27.1963L21.5803 29.7985Z" fill="white"/>
<path d="M46.8665 47.0785L45.5825 43.1785H38.4905L37.2305 47.0785H34.6265L40.2425 29.7985H43.8545L49.4705 47.0785H46.8665ZM39.2585 40.8265H44.8145L42.0185 32.3065L39.2585 40.8265Z" fill="white"/>
<path d="M51.1434 29.7985H53.6514V44.7145H61.4754V47.0785H51.1434V29.7985Z" fill="white"/>
<path d="M69.536 47.4385C67.84 47.4385 66.376 47.0625 65.144 46.3105C63.912 45.5585 62.972 44.5065 62.324 43.1545C61.684 41.7945 61.364 40.2225 61.364 38.4385C61.364 36.6545 61.684 35.0865 62.324 33.7345C62.972 32.3745 63.912 31.3185 65.144 30.5665C66.376 29.8145 67.84 29.4385 69.536 29.4385C71.232 29.4385 72.692 29.8145 73.916 30.5665C75.148 31.3185 76.084 32.3745 76.724 33.7345C77.372 35.0865 77.696 36.6545 77.696 38.4385C77.696 40.2225 77.372 41.7945 76.724 43.1545C76.084 44.5065 75.148 45.5585 73.916 46.3105C72.692 47.0625 71.232 47.4385 69.536 47.4385ZM69.536 45.0505C70.736 45.0585 71.744 44.7905 72.56 44.2465C73.384 43.7025 74 42.9345 74.408 41.9425C74.824 40.9425 75.032 39.7745 75.032 38.4385C75.032 37.1025 74.824 35.9425 74.408 34.9585C74 33.9665 73.384 33.1985 72.56 32.6545C71.744 32.1105 70.736 31.8345 69.536 31.8265C68.336 31.8185 67.324 32.0865 66.5 32.6305C65.684 33.1745 65.068 33.9465 64.652 34.9465C64.244 35.9385 64.036 37.1025 64.028 38.4385C64.02 39.7745 64.224 40.9385 64.64 41.9305C65.056 42.9145 65.676 43.6785 66.5 44.2225C67.324 44.7665 68.336 45.0425 69.536 45.0505Z" fill="white"/>
<path d="M19.6967 70.4385C18.0007 70.4385 16.5367 70.0625 15.3047 69.3105C14.0727 68.5585 13.1327 67.5065 12.4847 66.1545C11.8447 64.7945 11.5247 63.2225 11.5247 61.4385C11.5247 59.6545 11.8447 58.0865 12.4847 56.7345C13.1327 55.3745 14.0727 54.3185 15.3047 53.5665C16.5367 52.8145 18.0007 52.4385 19.6967 52.4385C21.0007 52.4385 22.1687 52.6665 23.2007 53.1225C24.2407 53.5705 25.1087 54.2145 25.8047 55.0545C26.5087 55.8865 27.0327 56.8745 27.3767 58.0185L24.8327 58.7025C24.4807 57.4705 23.8727 56.5185 23.0087 55.8465C22.1447 55.1665 21.0407 54.8265 19.6967 54.8265C18.4967 54.8265 17.4847 55.0985 16.6607 55.6425C15.8367 56.1865 15.2167 56.9545 14.8007 57.9465C14.3927 58.9385 14.1847 60.1025 14.1767 61.4385C14.1687 62.7745 14.3727 63.9385 14.7887 64.9305C15.2047 65.9225 15.8247 66.6905 16.6487 67.2345C17.4807 67.7785 18.4967 68.0505 19.6967 68.0505C21.0407 68.0505 22.1447 67.7145 23.0087 67.0425C23.8727 66.3625 24.4807 65.4065 24.8327 64.1745L27.3767 64.8585C27.0327 66.0025 26.5087 66.9945 25.8047 67.8345C25.1087 68.6665 24.2407 69.3105 23.2007 69.7665C22.1687 70.2145 21.0007 70.4385 19.6967 70.4385Z" fill="white"/>
<path d="M29.5359 52.7985H32.0439V67.7145H39.8679V70.0785H29.5359V52.7985Z" fill="white"/>
<path d="M47.9285 70.4385C46.2325 70.4385 44.7685 70.0625 43.5365 69.3105C42.3045 68.5585 41.3645 67.5065 40.7165 66.1545C40.0765 64.7945 39.7565 63.2225 39.7565 61.4385C39.7565 59.6545 40.0765 58.0865 40.7165 56.7345C41.3645 55.3745 42.3045 54.3185 43.5365 53.5665C44.7685 52.8145 46.2325 52.4385 47.9285 52.4385C49.6245 52.4385 51.0845 52.8145 52.3085 53.5665C53.5405 54.3185 54.4765 55.3745 55.1165 56.7345C55.7645 58.0865 56.0885 59.6545 56.0885 61.4385C56.0885 63.2225 55.7645 64.7945 55.1165 66.1545C54.4765 67.5065 53.5405 68.5585 52.3085 69.3105C51.0845 70.0625 49.6245 70.4385 47.9285 70.4385ZM47.9285 68.0505C49.1285 68.0585 50.1365 67.7905 50.9525 67.2465C51.7765 66.7025 52.3925 65.9345 52.8005 64.9425C53.2165 63.9425 53.4245 62.7745 53.4245 61.4385C53.4245 60.1025 53.2165 58.9425 52.8005 57.9585C52.3925 56.9665 51.7765 56.1985 50.9525 55.6545C50.1365 55.1105 49.1285 54.8345 47.9285 54.8265C46.7285 54.8185 45.7165 55.0865 44.8925 55.6305C44.0765 56.1745 43.4605 56.9465 43.0445 57.9465C42.6365 58.9385 42.4285 60.1025 42.4205 61.4385C42.4125 62.7745 42.6165 63.9385 43.0325 64.9305C43.4485 65.9145 44.0685 66.6785 44.8925 67.2225C45.7165 67.7665 46.7285 68.0425 47.9285 68.0505Z" fill="white"/>
<path d="M64.6502 70.4385C63.3062 70.4385 62.1102 70.1625 61.0622 69.6105C60.0222 69.0505 59.2102 68.2625 58.6262 67.2465C58.0502 66.2305 57.7622 65.0545 57.7622 63.7185V52.8105L60.3062 52.7985V63.5865C60.3062 64.5225 60.5102 65.3305 60.9182 66.0105C61.3342 66.6905 61.8742 67.2065 62.5382 67.5585C63.2022 67.9025 63.9062 68.0745 64.6502 68.0745C65.3942 68.0745 66.0982 67.8985 66.7622 67.5465C67.4262 67.1945 67.9622 66.6785 68.3702 65.9985C68.7862 65.3185 68.9942 64.5145 68.9942 63.5865V52.7985H71.5382V63.7185C71.5382 65.0545 71.2462 66.2305 70.6622 67.2465C70.0862 68.2625 69.2742 69.0505 68.2262 69.6105C67.1862 70.1625 65.9942 70.4385 64.6502 70.4385Z" fill="white"/>
<path d="M79.587 52.7985C80.483 52.7985 81.199 52.8345 81.735 52.9065C83.055 53.0745 84.179 53.5505 85.107 54.3345C86.043 55.1185 86.751 56.1265 87.231 57.3585C87.711 58.5905 87.951 59.9505 87.951 61.4385C87.951 62.9265 87.711 64.2865 87.231 65.5185C86.751 66.7505 86.043 67.7585 85.107 68.5425C84.179 69.3265 83.055 69.8025 81.735 69.9705C81.199 70.0425 80.483 70.0785 79.587 70.0785H74.175V52.7985H79.587ZM79.587 67.6905C80.475 67.6905 81.131 67.6505 81.555 67.5705C82.403 67.4105 83.103 67.0385 83.655 66.4545C84.215 65.8705 84.627 65.1465 84.891 64.2825C85.155 63.4185 85.287 62.4705 85.287 61.4385C85.287 60.3905 85.151 59.4345 84.879 58.5705C84.615 57.6985 84.203 56.9745 83.643 56.3985C83.083 55.8225 82.387 55.4585 81.555 55.3065C81.131 55.2265 80.475 55.1865 79.587 55.1865H76.743V67.6905H79.587Z" fill="white"/>
<defs>
<filter id="filter0_b_335_8336" x="-5.21927" y="-5.21927" width="110.439" height="110.439" filterUnits="userSpaceOnUse" color-interpolation-filters="sRGB">
<feFlood flood-opacity="0" result="BackgroundImageFix"/>
<feGaussianBlur in="BackgroundImageFix" stdDeviation="3.10963"/>
<feComposite in2="SourceAlpha" operator="in" result="effect1_backgroundBlur_335_8336"/>
<feBlend mode="normal" in="SourceGraphic" in2="effect1_backgroundBlur_335_8336" result="shape"/>
</filter>
</defs>
</svg>
