<svg width="100" height="100" viewBox="0 0 100 100" fill="none" xmlns="http://www.w3.org/2000/svg">
<g filter="url(#filter0_b_335_8327)">
<rect x="1" y="1" width="98" height="98" rx="10" fill="white"/>
</g>
<path d="M17.1471 44.6399H18.3756L21.7686 51.6794L25.1421 44.6399H26.3836V53.9934H25.0966V47.5909L22.0741 53.9999H21.4566L18.4276 47.5909V53.9999H17.1471V44.6399Z" fill="black"/>
<path d="M31.7212 54.1949C30.8025 54.1949 30.0095 53.9912 29.3422 53.5839C28.6748 53.1766 28.1657 52.6067 27.8147 51.8744C27.468 51.1377 27.2947 50.2862 27.2947 49.3199C27.2947 48.3536 27.468 47.5042 27.8147 46.7719C28.1657 46.0352 28.6748 45.4632 29.3422 45.0559C30.0095 44.6486 30.8025 44.4449 31.7212 44.4449C32.6398 44.4449 33.4307 44.6486 34.0937 45.0559C34.761 45.4632 35.268 46.0352 35.6147 46.7719C35.9657 47.5042 36.1412 48.3536 36.1412 49.3199C36.1412 50.2862 35.9657 51.1377 35.6147 51.8744C35.268 52.6067 34.761 53.1766 34.0937 53.5839C33.4307 53.9912 32.6398 54.1949 31.7212 54.1949ZM31.7212 52.9014C32.3712 52.9057 32.9172 52.7606 33.3592 52.4659C33.8055 52.1712 34.1392 51.7552 34.3602 51.2179C34.5855 50.6762 34.6982 50.0436 34.6982 49.3199C34.6982 48.5962 34.5855 47.9679 34.3602 47.4349C34.1392 46.8976 33.8055 46.4816 33.3592 46.1869C32.9172 45.8922 32.3712 45.7427 31.7212 45.7384C31.0712 45.7341 30.523 45.8792 30.0767 46.1739C29.6347 46.4686 29.301 46.8867 29.0757 47.4284C28.8547 47.9657 28.742 48.5962 28.7377 49.3199C28.7333 50.0436 28.8438 50.6741 29.0692 51.2114C29.2945 51.7444 29.6303 52.1582 30.0767 52.4529C30.523 52.7476 31.0712 52.8971 31.7212 52.9014Z" fill="black"/>
<path d="M40.7527 43.8339C40.4147 43.8339 40.1027 43.7494 39.8167 43.5804C39.5307 43.4114 39.3032 43.1839 39.1342 42.8979C38.9652 42.6119 38.8807 42.2999 38.8807 41.9619H39.9597C39.9597 42.1786 40.0377 42.3649 40.1937 42.5209C40.3497 42.6769 40.5361 42.7549 40.7527 42.7549C40.9737 42.7549 41.1601 42.6769 41.3117 42.5209C41.4677 42.3649 41.5457 42.1786 41.5457 41.9619H42.6247C42.6247 42.2999 42.5402 42.6119 42.3712 42.8979C42.2022 43.1839 41.9747 43.4114 41.6887 43.5804C41.4027 43.7494 41.0907 43.8339 40.7527 43.8339ZM37.0477 44.6399H38.4257V51.5949L43.0342 44.6399H44.4122V53.9999H43.0342V47.0384L38.4257 53.9999H37.0477V44.6399Z" fill="black"/>
<path d="M51.9555 54.1949C51.0368 54.1949 50.2438 53.9912 49.5765 53.5839C48.9091 53.1766 48.4 52.6067 48.049 51.8744C47.7023 51.1377 47.529 50.2862 47.529 49.3199C47.529 48.3536 47.7023 47.5042 48.049 46.7719C48.4 46.0352 48.9091 45.4632 49.5765 45.0559C50.2438 44.6486 51.0368 44.4449 51.9555 44.4449C52.8741 44.4449 53.665 44.6486 54.328 45.0559C54.9953 45.4632 55.5023 46.0352 55.849 46.7719C56.2 47.5042 56.3755 48.3536 56.3755 49.3199C56.3755 50.2862 56.2 51.1377 55.849 51.8744C55.5023 52.6067 54.9953 53.1766 54.328 53.5839C53.665 53.9912 52.8741 54.1949 51.9555 54.1949ZM51.9555 52.9014C52.6055 52.9057 53.1515 52.7606 53.5935 52.4659C54.0398 52.1712 54.3735 51.7552 54.5945 51.2179C54.8198 50.6762 54.9325 50.0436 54.9325 49.3199C54.9325 48.5962 54.8198 47.9679 54.5945 47.4349C54.3735 46.8976 54.0398 46.4816 53.5935 46.1869C53.1515 45.8922 52.6055 45.7427 51.9555 45.7384C51.3055 45.7341 50.7573 45.8792 50.311 46.1739C49.869 46.4686 49.5353 46.8867 49.31 47.4284C49.089 47.9657 48.9763 48.5962 48.972 49.3199C48.9676 50.0436 49.0781 50.6741 49.3035 51.2114C49.5288 51.7444 49.8646 52.1582 50.311 52.4529C50.7573 52.7476 51.3055 52.8971 51.9555 52.9014Z" fill="black"/>
<path d="M60.4345 52.6934C60.2569 52.7237 60.0684 52.7389 59.869 52.7389C59.297 52.7389 58.7749 52.5959 58.3025 52.3099C57.8302 52.0196 57.4554 51.5971 57.178 51.0424C56.9007 50.4834 56.762 49.8182 56.762 49.0469C56.762 48.2756 56.9007 47.6082 57.178 47.0449C57.4597 46.4772 57.8367 46.0461 58.309 45.7514C58.7857 45.4567 59.31 45.3094 59.882 45.3094C60.0727 45.3094 60.2569 45.3246 60.4345 45.3549V44.6399H61.7865V45.3549C61.9642 45.3246 62.1484 45.3094 62.339 45.3094C62.911 45.3094 63.4354 45.4567 63.912 45.7514C64.3887 46.0461 64.7657 46.4772 65.043 47.0449C65.3247 47.6082 65.4655 48.2756 65.4655 49.0469C65.4655 49.8182 65.3247 50.4834 65.043 51.0424C64.7657 51.5971 64.3909 52.0196 63.9185 52.3099C63.4462 52.5959 62.924 52.7389 62.352 52.7389C62.1527 52.7389 61.9642 52.7237 61.7865 52.6934V53.9999H60.4345V52.6934ZM60.4345 46.5964C60.3175 46.5791 60.194 46.5704 60.064 46.5704C59.6437 46.5704 59.2905 46.6831 59.0045 46.9084C58.7185 47.1294 58.504 47.4284 58.361 47.8054C58.2224 48.1781 58.153 48.5919 58.153 49.0469C58.153 49.4976 58.2224 49.9049 58.361 50.2689C58.4997 50.6329 58.7099 50.9232 58.9915 51.1399C59.2775 51.3566 59.6307 51.4649 60.051 51.4649C60.155 51.4649 60.2829 51.4541 60.4345 51.4324V46.5964ZM61.7865 51.4324C61.9295 51.4541 62.0552 51.4649 62.1635 51.4649C62.5795 51.4649 62.9305 51.3587 63.2165 51.1464C63.5069 50.9297 63.7214 50.6416 63.86 50.2819C64.003 49.9179 64.0745 49.5171 64.0745 49.0794C64.0745 48.6374 64.003 48.2257 63.86 47.8444C63.717 47.4631 63.4982 47.1554 63.2035 46.9214C62.9132 46.6874 62.5579 46.5704 62.1375 46.5704C62.0119 46.5704 61.8949 46.5791 61.7865 46.5964V51.4324Z" fill="black"/>
<path d="M73.7399 53.9999H72.3619V47.0384L67.7534 53.9999H66.3754V44.6399H67.7534V51.5949L72.3619 44.6399H73.7399V53.9999Z" fill="black"/>
<path d="M79.0833 54.1949C78.1647 54.1949 77.3717 53.9912 76.7043 53.5839C76.037 53.1766 75.5278 52.6067 75.1768 51.8744C74.8302 51.1377 74.6568 50.2862 74.6568 49.3199C74.6568 48.3536 74.8302 47.5042 75.1768 46.7719C75.5278 46.0352 76.037 45.4632 76.7043 45.0559C77.3717 44.6486 78.1647 44.4449 79.0833 44.4449C79.7897 44.4449 80.4223 44.5684 80.9813 44.8154C81.5447 45.0581 82.0148 45.4069 82.3918 45.8619C82.7732 46.3126 83.057 46.8477 83.2433 47.4674L81.8653 47.8379C81.6747 47.1706 81.3453 46.6549 80.8773 46.2909C80.4093 45.9226 79.8113 45.7384 79.0833 45.7384C78.4333 45.7384 77.8852 45.8857 77.4388 46.1804C76.9925 46.4751 76.6567 46.8911 76.4313 47.4284C76.2103 47.9657 76.0977 48.5962 76.0933 49.3199C76.089 50.0436 76.1995 50.6741 76.4248 51.2114C76.6502 51.7487 76.986 52.1647 77.4323 52.4594C77.883 52.7541 78.4333 52.9014 79.0833 52.9014C79.8113 52.9014 80.4093 52.7194 80.8773 52.3554C81.3453 51.9871 81.6747 51.4692 81.8653 50.8019L83.2433 51.1724C83.057 51.7921 82.7732 52.3294 82.3918 52.7844C82.0148 53.2351 81.5447 53.5839 80.9813 53.8309C80.4223 54.0736 79.7897 54.1949 79.0833 54.1949Z" fill="black"/>
<defs>
<filter id="filter0_b_335_8327" x="-5.21927" y="-5.21927" width="110.439" height="110.439" filterUnits="userSpaceOnUse" color-interpolation-filters="sRGB">
<feFlood flood-opacity="0" result="BackgroundImageFix"/>
<feGaussianBlur in="BackgroundImageFix" stdDeviation="3.10963"/>
<feComposite in2="SourceAlpha" operator="in" result="effect1_backgroundBlur_335_8327"/>
<feBlend mode="normal" in="SourceGraphic" in2="effect1_backgroundBlur_335_8327" result="shape"/>
</filter>
</defs>
</svg>
