<svg width="101" height="101" viewBox="0 0 101 101" fill="none" xmlns="http://www.w3.org/2000/svg">
<g filter="url(#filter0_b_335_8425)">
<rect x="2" y="2" width="98" height="98" rx="10" fill="#EE1C25"/>
</g>
<path d="M21.8938 45.6881C22.1938 45.6881 22.4713 45.7081 22.7263 45.7481C23.3163 45.8381 23.8138 46.0406 24.2188 46.3556C24.6238 46.6656 24.9263 47.0606 25.1263 47.5406C25.3313 48.0206 25.4338 48.5556 25.4338 49.1456C25.4338 49.7406 25.3313 50.2781 25.1263 50.7581C24.9213 51.2331 24.6163 51.6281 24.2113 51.9431C23.8063 52.2531 23.3113 52.4556 22.7263 52.5506C22.4713 52.5906 22.1938 52.6106 21.8938 52.6106H19.0963V56.4881H17.5288V45.6881H21.8938ZM21.8338 51.1256C22.0938 51.1256 22.3213 51.1031 22.5163 51.0581C22.9613 50.9481 23.2913 50.7131 23.5063 50.3531C23.7263 49.9931 23.8363 49.5906 23.8363 49.1456C23.8363 48.7006 23.7263 48.2981 23.5063 47.9381C23.2913 47.5781 22.9613 47.3456 22.5163 47.2406C22.3313 47.1906 22.1038 47.1656 21.8338 47.1656H19.0963V51.1256H21.8338Z" fill="white"/>
<path d="M26.4831 45.6881H33.3831V47.1656H28.0506V50.1956H32.4831V51.6731H28.0506V55.0106H33.3831V56.4881H26.4831V45.6881Z" fill="white"/>
<path d="M34.1868 55.0106C34.6518 55.0106 35.0193 54.8581 35.2893 54.5531C35.5643 54.2431 35.7643 53.8406 35.8893 53.3456C36.0143 52.8506 36.1118 52.2381 36.1818 51.5081C36.2418 50.8731 36.2968 50.1956 36.3468 49.4756C36.3968 48.7506 36.4418 48.0231 36.4818 47.2931L36.5793 45.6806L43.4943 45.6881V55.0106H44.2968V58.2881H42.7218V56.4881H35.7543V58.2881H34.1868V55.0106ZM41.9268 47.1656L38.0268 47.1581L37.9518 48.4631C37.9418 48.6181 37.9168 49.0406 37.8768 49.7306C37.8368 50.4206 37.7793 51.1231 37.7043 51.8381C37.6443 52.4531 37.5818 52.9406 37.5168 53.3006C37.4568 53.6556 37.3693 53.9706 37.2543 54.2456C37.1393 54.5206 36.9743 54.7756 36.7593 55.0106H41.9268V47.1656Z" fill="white"/>
<path d="M49.9979 56.7131C48.9379 56.7131 48.0229 56.4781 47.2529 56.0081C46.4829 55.5381 45.8954 54.8806 45.4904 54.0356C45.0904 53.1856 44.8904 52.2031 44.8904 51.0881C44.8904 49.9731 45.0904 48.9931 45.4904 48.1481C45.8954 47.2981 46.4829 46.6381 47.2529 46.1681C48.0229 45.6981 48.9379 45.4631 49.9979 45.4631C50.8129 45.4631 51.5429 45.6056 52.1879 45.8906C52.8379 46.1706 53.3804 46.5731 53.8154 47.0981C54.2554 47.6181 54.5829 48.2356 54.7979 48.9506L53.2079 49.3781C52.9879 48.6081 52.6079 48.0131 52.0679 47.5931C51.5279 47.1681 50.8379 46.9556 49.9979 46.9556C49.2479 46.9556 48.6154 47.1256 48.1004 47.4656C47.5854 47.8056 47.1979 48.2856 46.9379 48.9056C46.6829 49.5256 46.5529 50.2531 46.5479 51.0881C46.5429 51.9231 46.6704 52.6506 46.9304 53.2706C47.1904 53.8906 47.5779 54.3706 48.0929 54.7106C48.6129 55.0506 49.2479 55.2206 49.9979 55.2206C50.8379 55.2206 51.5279 55.0106 52.0679 54.5906C52.6079 54.1656 52.9879 53.5681 53.2079 52.7981L54.7979 53.2256C54.5829 53.9406 54.2554 54.5606 53.8154 55.0856C53.3804 55.6056 52.8379 56.0081 52.1879 56.2931C51.5429 56.5731 50.8129 56.7131 49.9979 56.7131Z" fill="white"/>
<path d="M60.5049 56.7131C59.4449 56.7131 58.5299 56.4781 57.7599 56.0081C56.9899 55.5381 56.4024 54.8806 55.9974 54.0356C55.5974 53.1856 55.3974 52.2031 55.3974 51.0881C55.3974 49.9731 55.5974 48.9931 55.9974 48.1481C56.4024 47.2981 56.9899 46.6381 57.7599 46.1681C58.5299 45.6981 59.4449 45.4631 60.5049 45.4631C61.5649 45.4631 62.4774 45.6981 63.2424 46.1681C64.0124 46.6381 64.5974 47.2981 64.9974 48.1481C65.4024 48.9931 65.6049 49.9731 65.6049 51.0881C65.6049 52.2031 65.4024 53.1856 64.9974 54.0356C64.5974 54.8806 64.0124 55.5381 63.2424 56.0081C62.4774 56.4781 61.5649 56.7131 60.5049 56.7131ZM60.5049 55.2206C61.2549 55.2256 61.8849 55.0581 62.3949 54.7181C62.9099 54.3781 63.2949 53.8981 63.5499 53.2781C63.8099 52.6531 63.9399 51.9231 63.9399 51.0881C63.9399 50.2531 63.8099 49.5281 63.5499 48.9131C63.2949 48.2931 62.9099 47.8131 62.3949 47.4731C61.8849 47.1331 61.2549 46.9606 60.5049 46.9556C59.7549 46.9506 59.1224 47.1181 58.6074 47.4581C58.0974 47.7981 57.7124 48.2806 57.4524 48.9056C57.1974 49.5256 57.0674 50.2531 57.0624 51.0881C57.0574 51.9231 57.1849 52.6506 57.4449 53.2706C57.7049 53.8856 58.0924 54.3631 58.6074 54.7031C59.1224 55.0431 59.7549 55.2156 60.5049 55.2206Z" fill="white"/>
<path d="M70.2884 54.9806C70.0834 55.0156 69.8659 55.0331 69.6359 55.0331C68.9759 55.0331 68.3734 54.8681 67.8284 54.5381C67.2834 54.2031 66.8509 53.7156 66.5309 53.0756C66.2109 52.4306 66.0509 51.6631 66.0509 50.7731C66.0509 49.8831 66.2109 49.1131 66.5309 48.4631C66.8559 47.8081 67.2909 47.3106 67.8359 46.9706C68.3859 46.6306 68.9909 46.4606 69.6509 46.4606C69.8709 46.4606 70.0834 46.4781 70.2884 46.5131V45.6881H71.8484V46.5131C72.0534 46.4781 72.2659 46.4606 72.4859 46.4606C73.1459 46.4606 73.7509 46.6306 74.3009 46.9706C74.8509 47.3106 75.2859 47.8081 75.6059 48.4631C75.9309 49.1131 76.0934 49.8831 76.0934 50.7731C76.0934 51.6631 75.9309 52.4306 75.6059 53.0756C75.2859 53.7156 74.8534 54.2031 74.3084 54.5381C73.7634 54.8681 73.1609 55.0331 72.5009 55.0331C72.2709 55.0331 72.0534 55.0156 71.8484 54.9806V56.4881H70.2884V54.9806ZM70.2884 47.9456C70.1534 47.9256 70.0109 47.9156 69.8609 47.9156C69.3759 47.9156 68.9684 48.0456 68.6384 48.3056C68.3084 48.5606 68.0609 48.9056 67.8959 49.3406C67.7359 49.7706 67.6559 50.2481 67.6559 50.7731C67.6559 51.2931 67.7359 51.7631 67.8959 52.1831C68.0559 52.6031 68.2984 52.9381 68.6234 53.1881C68.9534 53.4381 69.3609 53.5631 69.8459 53.5631C69.9659 53.5631 70.1134 53.5506 70.2884 53.5256V47.9456ZM71.8484 53.5256C72.0134 53.5506 72.1584 53.5631 72.2834 53.5631C72.7634 53.5631 73.1684 53.4406 73.4984 53.1956C73.8334 52.9456 74.0809 52.6131 74.2409 52.1981C74.4059 51.7781 74.4884 51.3156 74.4884 50.8106C74.4884 50.3006 74.4059 49.8256 74.2409 49.3856C74.0759 48.9456 73.8234 48.5906 73.4834 48.3206C73.1484 48.0506 72.7384 47.9156 72.2534 47.9156C72.1084 47.9156 71.9734 47.9256 71.8484 47.9456V53.5256Z" fill="white"/>
<path d="M79.5428 47.1656H75.9503V45.6881L84.7028 45.6881V47.1656L81.1103 47.1656V56.4881H79.5428V47.1656Z" fill="white"/>
<defs>
<filter id="filter0_b_335_8425" x="-4.21927" y="-4.21927" width="110.439" height="110.439" filterUnits="userSpaceOnUse" color-interpolation-filters="sRGB">
<feFlood flood-opacity="0" result="BackgroundImageFix"/>
<feGaussianBlur in="BackgroundImageFix" stdDeviation="3.10963"/>
<feComposite in2="SourceAlpha" operator="in" result="effect1_backgroundBlur_335_8425"/>
<feBlend mode="normal" in="SourceGraphic" in2="effect1_backgroundBlur_335_8425" result="shape"/>
</filter>
</defs>
</svg>
