<svg width="100" height="100" viewBox="0 0 100 100" fill="none" xmlns="http://www.w3.org/2000/svg">
<g filter="url(#filter0_b_335_8344)">
<rect x="1" y="1" width="98" height="98" rx="10" fill="#009881"/>
</g>
<path d="M10.2405 44.7631H11.808V49.8031L16.3305 44.7631H18.2805L13.503 50.0356L18.633 55.5631H16.623L11.808 50.4031V55.5631H10.2405V44.7631Z" fill="white"/>
<path d="M26.1387 55.5631L25.3362 53.1256H20.9037L20.1162 55.5631H18.4887L21.9987 44.7631H24.2562L27.7662 55.5631H26.1387ZM21.3837 51.6556H24.8562L23.1087 46.3306L21.3837 51.6556Z" fill="white"/>
<path d="M32.2838 55.7881C31.5088 55.7881 30.8088 55.6556 30.1838 55.3906C29.5588 55.1206 29.0438 54.7356 28.6388 54.2356C28.2388 53.7306 27.9813 53.1406 27.8663 52.4656L29.5013 52.2181C29.6113 52.6531 29.8013 53.0281 30.0713 53.3431C30.3463 53.6581 30.6813 53.8981 31.0763 54.0631C31.4713 54.2281 31.9038 54.3106 32.3738 54.3106C32.8088 54.3106 33.2113 54.2406 33.5813 54.1006C33.9513 53.9606 34.2438 53.7606 34.4588 53.5006C34.6788 53.2406 34.7888 52.9356 34.7888 52.5856C34.7888 52.2156 34.6688 51.9206 34.4288 51.7006C34.1938 51.4756 33.8613 51.2981 33.4313 51.1681L30.6638 50.3506C29.9788 50.1506 29.4113 49.8456 28.9613 49.4356C28.5113 49.0256 28.2863 48.4281 28.2863 47.6431C28.2863 46.9931 28.4538 46.4356 28.7888 45.9706C29.1288 45.5006 29.5913 45.1456 30.1763 44.9056C30.7613 44.6606 31.4213 44.5406 32.1563 44.5456C32.8813 44.5506 33.5338 44.6806 34.1138 44.9356C34.6938 45.1856 35.1738 45.5481 35.5538 46.0231C35.9388 46.4931 36.2038 47.0556 36.3488 47.7106L34.6688 47.9956C34.5888 47.5906 34.4238 47.2406 34.1738 46.9456C33.9288 46.6456 33.6238 46.4181 33.2588 46.2631C32.8938 46.1081 32.4988 46.0306 32.0738 46.0306C31.6838 46.0306 31.3263 46.0956 31.0013 46.2256C30.6763 46.3556 30.4188 46.5381 30.2288 46.7731C30.0388 47.0081 29.9438 47.2731 29.9438 47.5681C29.9438 47.9681 30.0963 48.2731 30.4013 48.4831C30.7113 48.6881 31.1188 48.8606 31.6238 49.0006L33.6188 49.5631C34.1088 49.6981 34.5463 49.8581 34.9313 50.0431C35.3213 50.2281 35.6663 50.5206 35.9663 50.9206C36.2713 51.3156 36.4238 51.8356 36.4238 52.4806C36.4238 53.1806 36.2363 53.7806 35.8613 54.2806C35.4913 54.7756 34.9913 55.1506 34.3613 55.4056C33.7363 55.6606 33.0438 55.7881 32.2838 55.7881Z" fill="white"/>
<path d="M41.9371 44.7631C42.2371 44.7631 42.5146 44.7831 42.7696 44.8231C43.3596 44.9131 43.8571 45.1156 44.2621 45.4306C44.6671 45.7406 44.9696 46.1356 45.1696 46.6156C45.3746 47.0956 45.4771 47.6306 45.4771 48.2206C45.4771 48.8156 45.3746 49.3531 45.1696 49.8331C44.9646 50.3081 44.6596 50.7031 44.2546 51.0181C43.8496 51.3281 43.3546 51.5306 42.7696 51.6256C42.5146 51.6656 42.2371 51.6856 41.9371 51.6856H39.1396V55.5631H37.5721V44.7631H41.9371ZM41.8771 50.2006C42.1371 50.2006 42.3646 50.1781 42.5596 50.1331C43.0046 50.0231 43.3346 49.7881 43.5496 49.4281C43.7696 49.0681 43.8796 48.6656 43.8796 48.2206C43.8796 47.7756 43.7696 47.3731 43.5496 47.0131C43.3346 46.6531 43.0046 46.4206 42.5596 46.3156C42.3746 46.2656 42.1471 46.2406 41.8771 46.2406H39.1396V50.2006H41.8771Z" fill="white"/>
<path d="M46.5264 44.7631H53.4264V46.2406H48.0939V49.2706H52.5264V50.7481H48.0939V54.0856H53.4264V55.5631H46.5264V44.7631Z" fill="white"/>
<path d="M61.0926 55.5631L59.2101 51.6856H56.3451V55.5631H54.7776V44.7631H59.1426C59.4426 44.7631 59.7201 44.7831 59.9751 44.8231C60.5651 44.9131 61.0626 45.1156 61.4676 45.4306C61.8726 45.7406 62.1751 46.1356 62.3751 46.6156C62.5801 47.0956 62.6826 47.6306 62.6826 48.2206C62.6826 48.9556 62.5251 49.6006 62.2101 50.1556C61.9001 50.7106 61.4451 51.1181 60.8451 51.3781L62.8851 55.5631H61.0926ZM56.3451 50.2006H59.0826C59.3426 50.2006 59.5701 50.1781 59.7651 50.1331C60.2101 50.0231 60.5401 49.7881 60.7551 49.4281C60.9751 49.0681 61.0851 48.6656 61.0851 48.2206C61.0851 47.7756 60.9751 47.3731 60.7551 47.0131C60.5401 46.6531 60.2101 46.4206 59.7651 46.3156C59.5801 46.2656 59.3526 46.2406 59.0826 46.2406H56.3451V50.2006Z" fill="white"/>
<path d="M67.9984 55.7881C67.2234 55.7881 66.5234 55.6556 65.8984 55.3906C65.2734 55.1206 64.7584 54.7356 64.3534 54.2356C63.9534 53.7306 63.6959 53.1406 63.5809 52.4656L65.2159 52.2181C65.3259 52.6531 65.5159 53.0281 65.7859 53.3431C66.0609 53.6581 66.3959 53.8981 66.7909 54.0631C67.1859 54.2281 67.6184 54.3106 68.0884 54.3106C68.5234 54.3106 68.9259 54.2406 69.2959 54.1006C69.6659 53.9606 69.9584 53.7606 70.1734 53.5006C70.3934 53.2406 70.5034 52.9356 70.5034 52.5856C70.5034 52.2156 70.3834 51.9206 70.1434 51.7006C69.9084 51.4756 69.5759 51.2981 69.1459 51.1681L66.3784 50.3506C65.6934 50.1506 65.1259 49.8456 64.6759 49.4356C64.2259 49.0256 64.0009 48.4281 64.0009 47.6431C64.0009 46.9931 64.1684 46.4356 64.5034 45.9706C64.8434 45.5006 65.306 45.1456 65.8909 44.9056C66.4759 44.6606 67.1359 44.5406 67.8709 44.5456C68.5959 44.5506 69.2484 44.6806 69.8284 44.9356C70.4085 45.1856 70.8884 45.5481 71.2684 46.0231C71.6534 46.4931 71.9184 47.0556 72.0634 47.7106L70.3834 47.9956C70.3034 47.5906 70.1384 47.2406 69.8884 46.9456C69.6434 46.6456 69.3384 46.4181 68.9734 46.2631C68.6084 46.1081 68.2134 46.0306 67.7884 46.0306C67.3984 46.0306 67.0409 46.0956 66.7159 46.2256C66.3909 46.3556 66.1334 46.5381 65.9434 46.7731C65.7534 47.0081 65.6584 47.2731 65.6584 47.5681C65.6584 47.9681 65.8109 48.2731 66.1159 48.4831C66.4259 48.6881 66.8334 48.8606 67.3384 49.0006L69.3334 49.5631C69.8234 49.6981 70.2609 49.8581 70.6459 50.0431C71.0359 50.2281 71.3809 50.5206 71.6809 50.9206C71.9859 51.3156 72.1384 51.8356 72.1384 52.4806C72.1384 53.1806 71.9509 53.7806 71.5759 54.2806C71.2059 54.7756 70.7059 55.1506 70.0759 55.4056C69.4509 55.6606 68.7584 55.7881 67.9984 55.7881Z" fill="white"/>
<path d="M73.2868 44.7631L74.8543 44.7631V49.8031L79.3768 44.7631H81.3268L76.5493 50.0356L81.6793 55.5631H79.6693L74.8543 50.4031V55.5631H73.2868V44.7631Z" fill="white"/>
<path d="M84.8875 51.1006L81.235 44.7631H83.065L85.6825 49.3006L88.3 44.7631H90.13L86.4775 51.1006V55.5631H84.8875V51.1006Z" fill="white"/>
<defs>
<filter id="filter0_b_335_8344" x="-5.21927" y="-5.21927" width="110.439" height="110.439" filterUnits="userSpaceOnUse" color-interpolation-filters="sRGB">
<feFlood flood-opacity="0" result="BackgroundImageFix"/>
<feGaussianBlur in="BackgroundImageFix" stdDeviation="3.10963"/>
<feComposite in2="SourceAlpha" operator="in" result="effect1_backgroundBlur_335_8344"/>
<feBlend mode="normal" in="SourceGraphic" in2="effect1_backgroundBlur_335_8344" result="shape"/>
</filter>
</defs>
</svg>
