<svg width="100" height="100" viewBox="0 0 100 100" fill="none" xmlns="http://www.w3.org/2000/svg">
<g filter="url(#filter0_b_335_8356)">
<rect x="1" y="1" width="98" height="98" rx="10" fill="#FFD400"/>
</g>
<path d="M13.9012 44.9494H15.5287L18.5212 54.1669L21.5512 44.9494H23.1787L19.6687 55.7494H17.4112L13.9012 44.9494Z" fill="#070B13"/>
<path d="M24.0098 44.9494H25.5773V55.7494H24.0098V44.9494Z" fill="#070B13"/>
<path d="M31.2946 55.9744C30.5196 55.9744 29.8196 55.8419 29.1946 55.5769C28.5696 55.3069 28.0546 54.9219 27.6496 54.4219C27.2496 53.9169 26.9921 53.3269 26.8771 52.6519L28.5121 52.4044C28.6221 52.8394 28.8121 53.2144 29.0821 53.5294C29.3571 53.8444 29.6921 54.0844 30.0871 54.2494C30.4821 54.4144 30.9146 54.4969 31.3846 54.4969C31.8196 54.4969 32.2221 54.4269 32.5921 54.2869C32.9621 54.1469 33.2546 53.9469 33.4696 53.6869C33.6896 53.4269 33.7996 53.1219 33.7996 52.7719C33.7996 52.4019 33.6796 52.1069 33.4396 51.8869C33.2046 51.6619 32.8721 51.4844 32.4421 51.3544L29.6746 50.5369C28.9896 50.3369 28.4221 50.0319 27.9721 49.6219C27.5221 49.2119 27.2971 48.6144 27.2971 47.8294C27.2971 47.1794 27.4646 46.6219 27.7996 46.1569C28.1396 45.6869 28.6021 45.3319 29.1871 45.0919C29.7721 44.8469 30.4321 44.7269 31.1671 44.7319C31.8921 44.7369 32.5446 44.8669 33.1246 45.1219C33.7046 45.3719 34.1846 45.7344 34.5646 46.2094C34.9496 46.6794 35.2146 47.2419 35.3596 47.8969L33.6796 48.1819C33.5996 47.7769 33.4346 47.4269 33.1846 47.1319C32.9396 46.8319 32.6346 46.6044 32.2696 46.4494C31.9046 46.2944 31.5096 46.2169 31.0846 46.2169C30.6946 46.2169 30.3371 46.2819 30.0121 46.4119C29.6871 46.5419 29.4296 46.7244 29.2396 46.9594C29.0496 47.1944 28.9546 47.4594 28.9546 47.7544C28.9546 48.1544 29.1071 48.4594 29.4121 48.6694C29.7221 48.8744 30.1296 49.0469 30.6346 49.1869L32.6296 49.7494C33.1196 49.8844 33.5571 50.0444 33.9421 50.2294C34.3321 50.4144 34.6771 50.7069 34.9771 51.1069C35.2821 51.5019 35.4346 52.0219 35.4346 52.6669C35.4346 53.3669 35.2471 53.9669 34.8721 54.4669C34.5021 54.9619 34.0021 55.3369 33.3721 55.5919C32.7471 55.8469 32.0546 55.9744 31.2946 55.9744Z" fill="#070B13"/>
<path d="M36.7329 44.9494H38.3004V55.7494H36.7329V44.9494Z" fill="#070B13"/>
<path d="M44.6101 55.9744C43.5501 55.9744 42.6351 55.7394 41.8651 55.2694C41.0951 54.7994 40.5076 54.1419 40.1026 53.2969C39.7026 52.4469 39.5026 51.4644 39.5026 50.3494C39.5026 49.2344 39.7026 48.2544 40.1026 47.4094C40.5076 46.5594 41.0951 45.8994 41.8651 45.4294C42.6351 44.9594 43.5501 44.7244 44.6101 44.7244C45.6701 44.7244 46.5826 44.9594 47.3476 45.4294C48.1176 45.8994 48.7026 46.5594 49.1026 47.4094C49.5076 48.2544 49.7101 49.2344 49.7101 50.3494C49.7101 51.4644 49.5076 52.4469 49.1026 53.2969C48.7026 54.1419 48.1176 54.7994 47.3476 55.2694C46.5826 55.7394 45.6701 55.9744 44.6101 55.9744ZM44.6101 54.4819C45.3601 54.4869 45.9901 54.3194 46.5001 53.9794C47.0151 53.6394 47.4001 53.1594 47.6551 52.5394C47.9151 51.9144 48.0451 51.1844 48.0451 50.3494C48.0451 49.5144 47.9151 48.7894 47.6551 48.1744C47.4001 47.5544 47.0151 47.0744 46.5001 46.7344C45.9901 46.3944 45.3601 46.2219 44.6101 46.2169C43.8601 46.2119 43.2276 46.3794 42.7126 46.7194C42.2026 47.0594 41.8176 47.5419 41.5576 48.1669C41.3026 48.7869 41.1726 49.5144 41.1676 50.3494C41.1626 51.1844 41.2901 51.9119 41.5501 52.5319C41.8101 53.1469 42.1976 53.6244 42.7126 53.9644C43.2276 54.3044 43.8601 54.4769 44.6101 54.4819Z" fill="#070B13"/>
<path d="M50.9061 44.9494H52.4736V54.2719L57.3636 54.2719V55.7494L50.9061 55.7494V44.9494Z" fill="#070B13"/>
<path d="M62.4015 55.9744C61.3415 55.9744 60.4265 55.7394 59.6565 55.2694C58.8865 54.7994 58.299 54.1419 57.894 53.2969C57.494 52.4469 57.294 51.4644 57.294 50.3494C57.294 49.2344 57.494 48.2544 57.894 47.4094C58.299 46.5594 58.8865 45.8994 59.6565 45.4294C60.4265 44.9594 61.3415 44.7244 62.4015 44.7244C63.4615 44.7244 64.374 44.9594 65.139 45.4294C65.909 45.8994 66.494 46.5594 66.894 47.4094C67.299 48.2544 67.5015 49.2344 67.5015 50.3494C67.5015 51.4644 67.299 52.4469 66.894 53.2969C66.494 54.1419 65.909 54.7994 65.139 55.2694C64.374 55.7394 63.4615 55.9744 62.4015 55.9744ZM62.4015 54.4819C63.1515 54.4869 63.7815 54.3194 64.2915 53.9794C64.8065 53.6394 65.1915 53.1594 65.4465 52.5394C65.7065 51.9144 65.8365 51.1844 65.8365 50.3494C65.8365 49.5144 65.7065 48.7894 65.4465 48.1744C65.1915 47.5544 64.8065 47.0744 64.2915 46.7344C63.7815 46.3944 63.1515 46.2219 62.4015 46.2169C61.6515 46.2119 61.019 46.3794 60.504 46.7194C59.994 47.0594 59.609 47.5419 59.349 48.1669C59.094 48.7869 58.964 49.5144 58.959 50.3494C58.954 51.1844 59.0815 51.9119 59.3415 52.5319C59.6015 53.1469 59.989 53.6244 60.504 53.9644C61.019 54.3044 61.6515 54.4769 62.4015 54.4819Z" fill="#070B13"/>
<path d="M72.965 55.9744C71.995 55.9744 71.13 55.7494 70.37 55.2994C69.615 54.8494 69.0225 54.2019 68.5925 53.3569C68.1625 52.5069 67.9475 51.5044 67.9475 50.3494C67.9475 49.2044 68.1575 48.2094 68.5775 47.3644C69.0025 46.5144 69.5925 45.8644 70.3475 45.4144C71.1075 44.9594 71.98 44.7319 72.965 44.7319C74.205 44.7319 75.2075 45.0219 75.9725 45.6019C76.7425 46.1769 77.27 46.9969 77.555 48.0619L75.965 48.3469C75.74 47.6869 75.38 47.1694 74.885 46.7944C74.39 46.4144 73.78 46.2219 73.055 46.2169C72.305 46.2119 71.6725 46.3794 71.1575 46.7194C70.6475 47.0594 70.2625 47.5419 70.0025 48.1669C69.7475 48.7869 69.6175 49.5144 69.6125 50.3494C69.6075 51.1894 69.735 51.9194 69.995 52.5394C70.26 53.1594 70.6525 53.6394 71.1725 53.9794C71.6975 54.3144 72.3425 54.4819 73.1075 54.4819C74.0125 54.4819 74.725 54.2194 75.245 53.6944C75.77 53.1644 76.0875 52.3994 76.1975 51.3994H74.0975V50.1394H77.8625C77.8825 50.3044 77.8925 50.5169 77.8925 50.7769C77.8925 51.7869 77.6975 52.6844 77.3075 53.4694C76.9225 54.2544 76.3575 54.8694 75.6125 55.3144C74.8725 55.7544 73.99 55.9744 72.965 55.9744Z" fill="#070B13"/>
<path d="M81.0858 51.2869L77.4333 44.9494H79.2633L81.8808 49.4869L84.4983 44.9494H86.3283L82.6758 51.2869V55.7494H81.0858V51.2869Z" fill="#070B13"/>
<defs>
<filter id="filter0_b_335_8356" x="-5.21927" y="-5.21927" width="110.439" height="110.439" filterUnits="userSpaceOnUse" color-interpolation-filters="sRGB">
<feFlood flood-opacity="0" result="BackgroundImageFix"/>
<feGaussianBlur in="BackgroundImageFix" stdDeviation="3.10963"/>
<feComposite in2="SourceAlpha" operator="in" result="effect1_backgroundBlur_335_8356"/>
<feBlend mode="normal" in="SourceGraphic" in2="effect1_backgroundBlur_335_8356" result="shape"/>
</filter>
</defs>
</svg>
